<?xml version="1.0" ?>
<svg xmlns="http://www.w3.org/2000/svg" xmlns:ev="http://www.w3.org/2001/xml-events" xmlns:xlink="http://www.w3.org/1999/xlink" baseProfile="full" height="167.48779mm" id="svg5" version="1.1" viewBox="0 0 269.95016 167.48779" width="269.95016mm" xml:space="preserve">
	<defs/>
	<path d="M 51.001,167.078 C 50.828,166.627 48.716,166.504 48.716,166.945 C 48.716,167.091 48.433,167.21 48.087,167.21 C 46.935,167.21 45.805,166.883 45.805,166.549 C 45.805,166.094 43.662,165.767 43.405,166.183 C 43.118,166.647 40.839,165.965 40.646,165.357 C 40.473,164.812 38.995,164.442 38.531,164.828 C 38.126,165.164 36.574,164.687 36.012,164.053 C 35.792,163.804 35.056,163.276 34.377,162.878 C 33.361,162.282 33.056,162.209 32.646,162.465 C 32.245,162.716 31.937,162.667 31.04,162.209 C 30.43,161.898 29.93,161.475 29.93,161.271 C 29.93,160.644 28.617,159.789 27.922,159.963 C 27.2,160.145 25.432,159.173 25.432,158.595 C 25.432,158.105 24.132,157.271 23.527,157.373 C 22.883,157.482 21.464,156.442 21.464,155.861 C 21.464,155.195 20.355,154.245 19.578,154.245 C 18.789,154.245 17.495,152.991 17.495,152.227 C 17.495,151.553 16.441,150.541 15.738,150.541 C 14.957,150.541 14.055,149.45 14.055,148.506 C 14.055,147.617 13.737,147.258 12.732,147.014 C 11.994,146.834 10.968,145.463 11.095,144.826 C 11.209,144.258 10.431,143.133 9.924,143.133 C 9.235,143.133 8.517,142.02 8.508,140.938 C 8.498,140.11 8.363,139.855 7.726,139.49 C 6.815,138.967 6.092,137.602 6.301,136.802 C 6.458,136.202 5.757,135.195 5.183,135.195 C 4.666,135.195 4.211,133.77 4.403,132.75 C 4.555,131.94 4.471,131.727 3.723,131.028 C 2.843,130.206 2.626,129.289 3.035,128.119 C 3.199,127.649 3.078,127.372 2.46,126.796 C 1.628,126.022 1.128,124.519 1.604,124.225 C 2.093,123.923 1.923,122.586 1.347,122.197 C 0.592,121.688 0.317,119.875 0.941,119.526 C 1.506,119.21 1.298,118.098 0.54,117.392 C -0.117,116.779 -0.108,115.601 0.561,114.75 C 1.237,113.892 1.237,113.067 0.561,112.706 C -0.187,112.305 -0.187,110.46 0.561,110.06 C 1.209,109.713 1.278,108.358 0.678,107.758 C 0.452,107.531 0.333,107.173 0.414,106.962 C 0.495,106.75 0.561,106.297 0.561,105.955 C 0.561,105.566 0.759,105.27 1.09,105.165 C 1.714,104.967 2.08,103.801 1.653,103.373 C 1.083,102.803 1.403,100.535 2.053,100.535 C 2.66,100.535 3.108,99.274 2.721,98.654 C 2.275,97.94 2.797,96.227 3.564,95.89 C 4.025,95.688 4.133,95.413 4.135,94.45 C 4.135,92.911 4.708,91.539 5.346,91.539 C 6.011,91.539 6.412,90.695 6.215,89.712 C 6.038,88.825 6.658,87.57 7.273,87.57 C 7.899,87.57 8.536,86.62 8.365,85.941 C 8.182,85.21 9.21,83.474 9.833,83.462 C 10.535,83.449 10.88,83.051 10.88,82.252 C 10.88,81.219 11.864,79.898 12.634,79.898 C 13.339,79.898 13.562,79.599 13.634,78.561 C 13.695,77.676 14.738,76.432 15.253,76.63 C 15.896,76.877 16.701,76.215 16.701,75.44 C 16.701,74.515 17.996,73.187 18.652,73.439 C 19.238,73.664 20.12,72.866 19.96,72.255 C 19.788,71.597 21.543,70.278 22.28,70.512 C 22.929,70.718 23.845,69.995 23.845,69.277 C 23.845,68.705 25.795,67.328 26.226,67.595 C 26.714,67.896 28.078,67.187 28.078,66.632 C 28.078,65.863 29.609,65.04 30.724,65.21 C 31.773,65.37 32.224,65.154 32.666,64.281 C 33.072,63.478 34.804,62.864 35.477,63.284 C 35.861,63.524 36.108,63.493 36.651,63.138 C 37.029,62.89 37.338,62.53 37.338,62.338 C 37.338,61.821 39.392,61.259 39.86,61.648 C 40.367,62.069 41.776,61.718 41.964,61.125 C 42.158,60.516 43.403,60.262 45.094,60.487 C 46.217,60.636 46.467,60.584 46.833,60.125 C 47.385,59.433 49.352,59.149 49.805,59.695 C 50.184,60.151 51.642,59.925 51.97,59.36 C 52.266,58.849 54.634,58.873 55.065,59.392 C 55.5,59.916 56.761,59.899 57.205,59.364 C 57.662,58.814 59.797,59.006 60.146,59.629 C 60.407,60.096 62.33,60.235 62.595,59.806 C 62.814,59.452 64.604,59.793 65.384,60.338 C 65.748,60.592 66.673,60.853 67.439,60.917 C 68.762,61.029 68.841,61.0 69.002,60.346 C 69.309,59.1 70.164,57.298 71.09,55.949 C 71.737,55.007 72.11,54.048 72.38,52.637 C 73.127,48.731 73.87,42.919 74.788,33.789 C 75.3,28.688 75.841,23.611 75.99,22.506 C 76.392,19.513 77.667,17.002 79.902,14.808 L 81.707,13.034 L 81.216,12.078 L 80.725,11.121 L 81.455,10.675 C 81.857,10.43 82.629,9.95 83.172,9.609 C 83.714,9.268 84.25,8.985 84.362,8.979 C 84.475,8.969 84.924,8.674 85.36,8.312 L 86.154,7.654 L 85.572,7.197 C 85.252,6.946 84.862,6.397 84.705,5.977 C 84.318,4.941 84.856,4.159 86.547,3.302 C 88.038,2.547 88.984,2.46 89.461,3.036 C 89.976,3.656 90.256,3.539 92.331,1.844 C 93.399,0.97 94.567,0.182 94.926,0.092 C 95.964,-0.169 97.928,0.155 98.669,0.708 C 101.07,2.501 100.973,4.884 98.433,6.531 C 96.437,7.824 96.459,7.797 96.8,8.546 C 97.237,9.505 98.974,10.556 99.844,10.39 C 100.351,10.293 100.628,10.406 100.883,10.814 C 101.074,11.12 101.41,11.373 101.63,11.377 C 101.849,11.377 102.622,11.707 103.346,12.104 C 105.049,13.037 105.449,13.978 104.549,14.935 C 103.946,15.577 103.942,15.615 104.403,16.125 C 104.793,16.556 104.82,16.725 104.547,17.054 C 104.363,17.275 104.004,17.456 103.749,17.456 C 103.111,17.456 102.621,18.074 102.976,18.429 C 103.164,18.617 103.027,18.967 102.537,19.549 C 101.932,20.268 101.868,20.491 102.113,21.027 C 102.335,21.516 102.307,21.847 101.986,22.49 C 101.754,22.954 101.672,23.419 101.8,23.542 C 101.926,23.663 105.006,25.104 108.644,26.745 C 118.527,31.202 142.701,43.474 155.739,50.653 C 157.631,51.695 159.389,52.625 159.645,52.721 C 159.901,52.817 163.294,52.721 167.185,52.504 C 173.217,52.17 174.309,52.047 174.591,51.667 C 175.094,50.989 174.99,50.549 174.247,50.21 C 173.704,49.963 173.588,49.744 173.652,49.091 C 173.728,48.313 173.783,48.279 175.002,48.256 C 175.716,48.243 176.434,48.068 176.641,47.859 C 177.023,47.471 182.736,31.894 183.024,30.457 C 183.114,30.007 183.352,29.502 183.552,29.336 C 184.181,28.814 183.956,28.568 182.851,28.568 C 181.145,28.568 180.038,27.924 177.805,25.63 L 175.711,23.479 L 173.133,23.708 C 168.713,24.102 166.864,24.018 166.011,23.382 C 164.516,22.27 165.032,20.825 167.306,19.756 C 170.036,18.472 172.358,18.405 183.124,19.297 C 189.744,19.846 192.731,19.879 197.147,19.453 C 205.076,18.688 205.634,18.676 206.672,19.248 C 207.939,19.946 208.413,20.944 207.977,21.997 C 207.695,22.676 206.996,23.108 203.256,24.917 C 198.196,27.364 196.57,28.039 195.74,28.039 C 195.333,28.039 195.058,28.272 194.867,28.778 C 194.588,29.518 193.219,30.156 191.91,30.156 C 191.61,30.156 191.145,30.434 190.877,30.775 C 190.228,31.6 189.419,32.008 188.433,32.008 C 187.987,32.008 187.622,32.051 187.622,32.105 C 187.622,32.204 184.571,41.035 182.617,46.592 C 182.023,48.283 181.536,49.774 181.536,49.907 C 181.536,50.04 181.888,50.281 182.318,50.444 C 183.866,51.028 183.593,53.078 181.999,52.844 C 181.073,52.708 180.993,52.854 179.414,57.429 L 178.266,60.756 L 183.243,66.424 C 185.979,69.542 188.405,72.201 188.634,72.333 C 188.921,72.5 189.087,72.459 189.173,72.201 C 189.427,71.434 190.836,70.373 191.418,70.509 C 192.092,70.667 192.458,70.452 192.881,69.648 C 193.28,68.89 194.642,68.181 195.298,68.389 C 195.924,68.588 196.882,68.105 196.882,67.591 C 196.882,67.033 198.742,66.164 199.589,66.326 C 200.143,66.432 200.463,66.282 201.046,65.644 C 201.812,64.804 203.304,64.291 203.597,64.765 C 203.842,65.161 204.78,64.83 205.231,64.188 C 205.569,63.706 205.861,63.633 207.273,63.675 C 208.547,63.713 209.04,63.615 209.45,63.241 C 210.102,62.644 211.582,62.297 211.821,62.684 C 212.078,63.1 213.544,63.025 213.712,62.587 C 213.901,62.096 215.884,61.752 216.275,62.143 C 216.697,62.565 217.929,62.502 218.313,62.038 C 218.734,61.532 219.914,61.528 220.578,62.028 C 221.184,62.487 222.44,62.556 222.694,62.145 C 222.933,61.758 224.658,62.09 225.272,62.641 C 225.655,62.986 225.895,63.013 226.504,62.783 C 227.461,62.422 228.626,62.627 229.238,63.264 C 229.738,63.785 230.641,63.901 231.24,63.521 C 231.76,63.191 233.451,63.782 233.598,64.345 C 233.743,64.898 234.701,65.204 235.496,64.952 C 236.268,64.707 237.836,65.277 238.024,65.871 C 238.185,66.378 239.523,66.835 239.994,66.544 C 240.412,66.286 242.125,67.292 242.479,68.004 C 242.727,68.503 243.073,68.685 243.985,68.796 C 245.386,68.967 246.359,69.526 246.359,70.161 C 246.359,70.705 247.129,71.165 248.041,71.165 C 248.888,71.165 250.409,72.423 250.206,72.954 C 250.011,73.46 250.794,74.056 251.667,74.067 C 252.487,74.077 253.687,75.267 253.811,76.192 C 253.874,76.665 254.139,76.931 254.739,77.125 C 255.804,77.469 256.713,78.283 256.632,78.82 C 256.532,79.482 257.18,80.425 257.735,80.425 C 258.451,80.425 259.638,81.76 259.479,82.386 C 259.319,83.019 259.752,83.865 260.235,83.865 C 260.821,83.865 262.026,85.473 261.874,86.052 C 261.78,86.413 262.089,86.904 262.922,87.713 C 263.917,88.681 264.076,88.972 263.929,89.559 C 263.785,90.131 263.929,90.439 264.754,91.28 C 265.598,92.144 265.76,92.495 265.795,93.535 C 265.826,94.456 265.981,94.876 266.41,95.203 C 267.167,95.779 267.702,97.288 267.294,97.696 C 266.821,98.169 266.943,98.657 267.712,99.37 C 268.445,100.05 268.682,101.453 268.226,102.421 C 268.088,102.714 268.24,103.087 268.7,103.584 C 269.184,104.106 269.378,104.607 269.378,105.335 C 269.378,105.896 269.259,106.355 269.113,106.355 C 268.62,106.355 268.836,107.652 269.378,107.942 C 269.784,108.159 269.907,108.496 269.907,109.391 C 269.907,110.032 269.788,110.63 269.642,110.72 C 269.274,110.948 269.311,112.267 269.696,112.653 C 270.117,113.073 269.989,114.777 269.5,115.266 C 268.985,115.781 269.009,116.589 269.55,116.891 C 269.889,117.081 269.95,117.364 269.82,118.161 C 269.729,118.724 269.473,119.318 269.251,119.48 C 268.781,119.824 268.722,120.674 269.14,121.092 C 269.55,121.502 269.182,122.945 268.556,123.383 C 268.111,123.695 268.065,123.942 268.213,125.203 C 268.366,126.509 268.319,126.728 267.756,127.29 C 267.252,127.794 267.128,128.197 267.128,129.333 C 267.128,130.558 267.03,130.825 266.401,131.327 C 265.845,131.77 265.673,132.136 265.673,132.877 C 265.673,134.035 265.194,135.194 264.714,135.194 C 264.225,135.194 263.761,136.175 263.958,136.796 C 264.168,137.457 263.213,139.053 262.495,139.24 C 262.109,139.341 261.969,139.602 261.969,140.222 C 261.969,141.157 261.081,142.602 260.505,142.602 C 260.057,142.602 259.497,143.572 259.676,144.038 C 259.847,144.484 258.538,145.967 257.868,146.085 C 257.504,146.15 257.312,146.425 257.252,146.97 C 257.147,147.935 255.99,149.217 255.226,149.217 C 254.503,149.217 254.032,149.7 254.032,150.441 C 254.032,151.083 252.899,152.127 252.203,152.127 C 251.54,152.127 250.539,152.93 250.695,153.336 C 250.876,153.809 249.091,155.276 248.517,155.125 C 248.027,154.997 246.888,155.927 246.888,156.455 C 246.888,156.867 245.027,157.927 244.588,157.766 C 244.128,157.597 243.184,158.167 243.184,158.614 C 243.184,159.091 241.154,160.155 240.628,159.953 C 240.113,159.756 238.686,160.508 238.686,160.977 C 238.686,161.463 237.068,161.986 236.222,161.774 C 235.749,161.655 235.403,161.761 235.025,162.139 C 234.133,163.03 233.399,163.293 231.64,163.35 C 230.319,163.393 229.873,163.515 229.579,163.916 C 229.265,164.346 228.915,164.421 227.401,164.378 C 226.123,164.343 225.471,164.442 225.165,164.72 C 224.844,165.01 224.126,165.102 222.383,165.075 C 221.09,165.055 219.464,165.122 218.77,165.225 C 217.92,165.35 217.38,165.307 217.121,165.091 C 216.846,164.863 216.126,164.825 214.601,164.96 C 212.739,165.125 212.397,165.088 211.931,164.667 C 211.509,164.285 211.021,164.195 209.596,164.238 C 208.135,164.282 207.665,164.191 207.115,163.759 C 206.719,163.447 206.017,163.218 205.429,163.208 C 204.028,163.184 202.635,162.721 202.225,162.141 C 201.987,161.805 201.548,161.652 200.822,161.652 C 199.733,161.652 198.205,161.036 198.205,160.597 C 198.205,160.214 197.127,159.725 196.106,159.644 C 195.421,159.59 194.932,159.296 194.192,158.495 C 193.465,157.707 192.991,157.419 192.422,157.419 C 191.684,157.419 191.053,156.936 189.679,155.323 C 189.428,155.028 188.892,154.709 188.488,154.614 C 187.57,154.397 186.298,153.24 186.298,152.622 C 186.298,152.099 185.282,151.277 184.916,151.503 C 184.561,151.722 183.631,150.793 183.212,149.803 C 182.997,149.295 182.544,148.82 182.124,148.66 C 181.133,148.283 180.478,147.643 180.478,147.05 C 180.478,146.338 179.699,145.248 179.19,145.248 C 178.68,145.247 177.665,143.821 177.776,143.262 C 177.886,142.71 177.352,141.809 176.916,141.809 C 176.328,141.809 175.402,140.449 175.561,139.818 C 175.715,139.203 175.078,138.105 174.566,138.105 C 174.047,138.105 173.369,136.719 173.514,135.956 C 173.615,135.431 173.448,135.059 172.829,134.425 C 171.971,133.548 171.931,133.438 172.0,132.14 C 172.055,131.093 171.346,130.462 169.567,129.974 C 168.801,129.764 167.758,129.475 167.248,129.331 C 166.739,129.188 165.543,128.922 164.59,128.741 C 163.637,128.56 162.696,128.312 162.497,128.19 C 162.16,127.981 160.125,127.942 159.926,128.141 C 159.811,128.256 156.93,142.592 156.93,143.052 C 156.93,143.286 157.334,143.398 158.186,143.403 C 160.072,143.413 161.506,143.827 162.009,144.508 C 162.256,144.843 162.651,145.332 162.885,145.596 C 163.889,146.723 162.702,147.64 159.368,148.312 C 157.55,148.678 156.853,148.702 155.195,148.455 C 152.068,147.99 149.338,148.061 149.028,148.615 C 148.422,149.698 145.983,147.536 146.494,146.369 C 146.604,146.117 146.672,145.808 146.644,145.684 C 146.547,145.254 147.207,144.719 147.834,144.719 C 148.195,144.719 148.463,144.563 148.463,144.351 C 148.463,143.851 149.053,143.661 150.61,143.661 C 151.43,143.661 151.955,143.537 152.015,143.33 C 152.121,142.965 153.76,129.422 153.757,128.94 C 153.757,128.774 153.368,128.565 152.895,128.475 C 149.847,127.893 145.987,124.891 144.474,121.926 C 142.749,118.545 142.777,113.724 144.54,110.37 L 145.281,108.961 L 140.445,101.506 C 137.786,97.406 134.305,92.057 132.71,89.619 C 131.115,87.181 127.884,82.239 125.53,78.638 C 123.176,75.038 119.647,69.65 117.689,66.667 C 115.73,63.684 112.156,58.239 109.746,54.567 C 107.336,50.895 104.809,47.295 104.129,46.569 C 102.766,45.112 99.49,42.901 97.181,41.88 L 95.694,41.222 L 94.702,42.369 C 94.156,43.0 93.706,43.74 93.702,44.013 C 93.692,44.547 91.069,47.226 90.011,47.781 C 89.594,48.0 89.213,48.033 88.918,47.875 C 88.56,47.683 88.194,47.925 87.159,49.037 C 86.059,50.22 85.64,50.999 84.499,53.99 C 83.755,55.942 82.495,59.232 81.699,61.3 L 80.252,65.06 L 81.417,65.743 C 82.076,66.129 82.582,66.622 82.582,66.88 C 82.582,67.475 83.436,67.994 84.122,67.815 C 84.774,67.644 86.639,68.965 86.448,69.462 C 86.272,69.921 87.129,70.636 87.853,70.636 C 88.709,70.636 90.06,71.658 89.868,72.16 C 89.664,72.691 90.451,73.544 91.155,73.556 C 92.04,73.57 92.972,74.491 92.764,75.146 C 92.56,75.788 93.232,76.435 94.116,76.449 C 94.846,76.46 95.566,77.284 95.786,78.362 C 95.891,78.873 96.204,79.35 96.547,79.521 C 97.606,80.048 98.192,80.761 98.192,81.52 C 98.192,82.093 98.344,82.306 98.84,82.43 C 99.693,82.645 100.398,83.74 100.197,84.54 C 100.106,84.9 100.181,85.278 100.373,85.434 C 100.556,85.583 101.051,85.984 101.472,86.326 C 102.068,86.809 102.245,87.179 102.266,87.983 C 102.288,88.825 102.422,89.079 102.988,89.351 C 103.816,89.748 104.474,91.111 104.076,91.605 C 103.717,92.05 104.144,93.126 104.679,93.126 C 105.277,93.126 105.979,94.913 105.658,95.618 C 105.348,96.298 105.704,97.359 106.243,97.359 C 106.829,97.359 107.38,99.372 106.972,100.025 C 106.53,100.733 106.574,100.96 107.286,101.648 C 108.078,102.412 108.373,103.804 107.838,104.248 C 107.266,104.723 107.369,105.393 108.114,106.041 C 108.877,106.704 109.024,108.201 108.378,108.736 C 107.859,109.167 107.874,109.913 108.411,110.451 C 109.067,111.106 109.115,112.911 108.49,113.445 C 107.885,113.964 107.82,114.968 108.378,115.182 C 108.996,115.419 108.902,117.364 108.246,117.926 C 107.681,118.41 107.518,119.584 108.016,119.584 C 108.537,119.584 108.11,121.939 107.483,122.523 C 106.844,123.119 106.802,123.366 107.225,124.044 C 107.683,124.777 107.289,126.336 106.519,126.841 C 105.846,127.282 105.668,128.013 106.123,128.468 C 106.495,128.84 105.878,130.671 105.271,130.996 C 104.649,131.329 104.273,132.288 104.554,132.827 C 104.795,133.287 103.938,135.459 103.515,135.459 C 102.897,135.459 102.384,136.346 102.534,137.154 C 102.714,138.117 101.895,139.673 101.098,139.882 C 100.551,140.025 100.164,140.851 100.278,141.631 C 100.381,142.333 99.271,143.82 98.336,144.232 C 97.677,144.523 97.53,144.743 97.53,145.446 C 97.53,146.463 96.268,148.217 95.695,147.997 C 95.129,147.78 94.163,148.875 94.363,149.507 C 94.487,149.897 94.277,150.265 93.553,150.928 C 93.015,151.421 92.416,151.762 92.221,151.687 C 91.759,151.51 90.519,152.753 90.519,153.393 C 90.519,154.085 89.425,155.038 88.63,155.038 C 87.893,155.038 86.663,156.166 86.929,156.596 C 87.178,156.999 85.143,158.266 84.59,158.054 C 83.898,157.788 82.846,158.467 82.846,159.179 C 82.846,159.907 81.126,160.913 80.266,160.689 C 79.549,160.501 78.613,161.024 78.613,161.613 C 78.613,162.266 76.901,163.049 75.937,162.837 C 74.942,162.619 74.203,162.876 74.04,163.498 C 73.844,164.247 72.19,164.844 70.829,164.658 C 69.867,164.526 69.629,164.589 69.299,165.061 C 68.783,165.797 67.415,166.259 66.503,166.004 C 65.48,165.718 64.799,165.856 64.226,166.465 C 63.82,166.898 63.511,166.965 62.507,166.841 C 60.523,166.595 59.454,166.676 59.222,167.089 C 58.974,167.533 56.78,167.63 56.52,167.209 C 56.43,167.064 55.894,166.945 55.329,166.945 C 54.765,166.945 54.229,167.064 54.139,167.209 C 53.866,167.651 51.177,167.538 51.0,167.077 L 51.001,167.078 M 61.35,154.639 C 61.866,154.474 61.944,154.269 61.939,153.09 C 61.929,151.216 59.426,126.503 59.224,126.301 C 59.134,126.211 58.668,126.287 58.188,126.47 C 57.708,126.652 55.886,126.842 54.14,126.891 C 52.394,126.94 50.905,126.983 50.833,126.987 C 50.76,126.987 50.671,128.273 50.635,129.838 C 50.599,131.402 50.378,137.43 50.145,143.233 C 49.826,151.174 49.795,153.948 50.02,154.443 L 50.32,155.101 L 55.537,154.965 C 58.407,154.89 61.022,154.744 61.35,154.639 L 61.35,154.639 M 55.453,152.304 C 55.22,151.062 55.375,150.433 55.943,150.324 C 56.359,150.244 56.408,150.405 56.337,151.623 C 56.243,153.247 55.708,153.66 55.453,152.304 M 49.245,151.043 C 49.375,149.239 49.678,143.067 49.918,137.327 C 50.335,127.33 50.334,126.876 49.881,126.545 C 49.621,126.355 49.274,126.199 49.109,126.199 C 48.945,126.199 47.935,128.075 46.865,130.367 C 45.795,132.659 43.441,137.629 41.634,141.413 C 38.904,147.129 37.338,150.715 37.338,151.253 C 37.338,151.414 39.684,152.38 41.836,153.105 C 44.241,153.916 48.502,154.779 48.796,154.514 C 48.913,154.409 49.115,152.847 49.245,151.043 L 49.245,151.043 M 66.522,153.33 C 70.196,152.216 73.587,150.711 73.587,150.193 C 73.587,149.372 72.653,147.344 67.259,136.452 C 64.031,129.935 61.506,125.141 61.301,125.141 C 61.105,125.141 60.69,125.35 60.379,125.604 L 59.812,126.067 L 61.143,139.341 C 61.875,146.642 62.534,152.803 62.606,153.033 C 62.68,153.263 62.794,153.63 62.863,153.848 C 63.029,154.382 63.067,154.377 66.522,153.33 L 66.522,153.33 M 223.87,152.659 C 224.503,152.489 224.53,152.396 224.509,150.519 C 224.485,148.449 223.197,130.892 222.871,128.184 C 222.691,126.696 222.639,126.601 222.026,126.67 C 221.424,126.737 220.199,127.284 217.758,128.573 C 216.842,129.058 216.8,129.144 216.636,130.879 C 216.366,133.73 216.448,135.801 216.859,136.518 C 217.401,137.467 217.344,137.96 216.588,138.859 C 215.982,139.578 215.872,140.103 215.401,144.501 C 215.116,147.168 214.881,150.149 214.878,151.124 L 214.878,152.898 L 216.664,152.987 C 218.819,153.094 222.959,152.906 223.874,152.66 L 223.87,152.659 M 219.277,150.358 C 219.184,150.265 219.107,149.791 219.107,149.306 C 219.107,148.699 219.231,148.424 219.504,148.424 C 219.78,148.424 219.901,148.702 219.901,149.335 C 219.901,150.225 219.614,150.695 219.277,150.358 L 219.277,150.358 M 214.014,151.61 C 214.314,150.65 215.403,141.978 215.403,140.554 C 215.403,139.964 215.378,139.957 214.623,140.348 C 214.193,140.57 213.556,140.752 213.207,140.752 C 212.417,140.752 210.905,140.255 210.376,139.823 C 209.811,139.36 208.567,139.185 208.31,139.532 C 208.19,139.693 207.885,140.361 207.633,141.016 C 205.536,146.462 204.833,148.422 204.686,149.232 L 204.516,150.171 L 206.586,150.884 C 208.621,151.584 212.506,152.601 213.288,152.639 C 213.529,152.651 213.817,152.242 214.014,151.61 L 214.014,151.61 M 229.869,151.3 C 231.204,150.876 232.842,150.288 233.509,149.993 C 234.61,149.506 234.706,149.391 234.557,148.742 C 234.278,147.528 224.308,128.631 223.575,127.926 C 223.248,127.612 223.322,128.971 224.286,141.016 C 225.201,152.462 225.218,152.542 226.583,152.253 C 227.055,152.152 228.534,151.724 229.869,151.3 L 229.869,151.3 M 39.639,144.456 C 43.463,136.63 48.187,126.477 48.187,126.08 C 48.187,125.562 47.393,125.345 46.896,125.727 C 45.987,126.428 31.474,138.819 28.254,141.645 C 26.086,143.548 26.042,143.685 27.223,144.846 C 28.577,146.178 32.06,148.618 34.296,149.802 L 36.148,150.783 L 36.632,150.199 C 36.899,149.878 38.252,147.293 39.639,144.456 L 39.639,144.456 M 76.62,148.816 C 78.898,147.444 81.481,145.464 82.949,143.965 L 84.241,142.645 L 83.694,141.95 C 82.584,140.538 63.161,124.347 62.577,124.347 C 62.392,124.347 62.181,124.443 62.109,124.561 C 61.964,124.795 73.311,147.824 74.157,149.011 C 74.445,149.416 74.769,149.747 74.877,149.747 C 74.985,149.747 75.769,149.328 76.62,148.816 L 76.62,148.816 M 204.283,148.176 C 205.101,146.554 207.73,139.74 207.73,139.24 C 207.73,139.084 207.284,138.885 206.738,138.797 C 206.193,138.709 205.508,138.576 205.217,138.503 C 204.926,138.429 203.981,138.226 203.117,138.052 L 201.547,137.735 L 199.456,139.971 C 196.325,143.318 195.482,144.401 195.654,144.85 C 195.879,145.435 202.717,149.747 203.42,149.747 C 203.458,149.747 203.846,149.04 204.283,148.176 L 204.283,148.176 M 239.216,146.975 C 240.162,146.362 241.564,145.361 242.332,144.749 L 243.729,143.638 L 242.91,142.497 C 242.166,141.461 238.657,137.929 229.103,128.602 L 225.738,125.316 L 224.672,125.668 C 223.941,125.909 223.605,126.173 223.605,126.505 C 223.605,126.773 224.541,128.688 225.685,130.763 C 226.829,132.837 228.928,136.737 230.349,139.429 C 233.938,146.227 234.43,147.114 235.161,148.094 C 235.801,148.951 235.805,148.952 236.65,148.521 C 237.115,148.283 238.27,147.587 239.216,146.975 L 239.216,146.975 M 195.352,143.449 C 196.289,142.831 200.823,138.062 200.839,137.678 C 200.849,137.515 200.226,137.241 199.462,137.069 C 197.022,136.518 195.976,136.286 195.163,136.116 C 194.726,136.024 194.131,135.849 193.84,135.727 C 193.549,135.604 192.551,135.366 191.624,135.198 L 189.937,134.891 L 189.044,135.757 C 188.553,136.233 188.151,136.796 188.151,137.009 C 188.151,137.221 188.638,138.026 189.233,138.797 C 190.35,140.246 194.087,143.928 194.436,143.925 C 194.545,143.925 194.957,143.71 195.352,143.449 L 195.352,143.449 M 26.829,142.141 C 27.349,141.74 28.468,140.817 29.316,140.088 C 30.7,138.897 32.797,137.103 43.49,127.959 C 45.2,126.497 46.599,125.215 46.599,125.111 C 46.599,125.006 46.12,124.542 45.535,124.078 C 44.334,123.127 42.365,120.482 41.746,118.99 C 41.52,118.444 41.207,117.997 41.052,117.997 C 40.897,117.997 40.147,118.402 39.385,118.896 C 38.623,119.391 35.262,121.49 31.915,123.562 C 21.895,129.765 18.35,132.025 18.021,132.42 C 17.775,132.717 17.892,133.114 18.581,134.326 C 20.626,137.918 24.587,142.868 25.416,142.868 C 25.673,142.868 26.309,142.541 26.829,142.141 L 26.829,142.141 M 246.93,140.521 C 248.144,139.231 249.598,137.506 250.16,136.688 L 251.183,135.201 L 250.557,134.519 C 250.213,134.145 248.503,132.69 246.756,131.286 C 245.01,129.882 241.141,126.755 238.157,124.337 C 232.169,119.483 231.351,118.889 231.072,119.188 C 230.967,119.301 231.036,119.448 231.223,119.515 C 231.478,119.606 231.49,119.727 231.27,119.992 C 231.108,120.187 230.814,120.286 230.618,120.21 C 230.123,120.02 229.621,120.996 230.012,121.388 C 230.231,121.607 230.193,121.721 229.867,121.825 C 229.625,121.903 229.236,122.026 229.004,122.1 C 228.772,122.174 228.523,122.461 228.45,122.739 C 228.377,123.017 227.794,123.575 227.152,123.981 C 226.511,124.386 225.987,124.791 225.987,124.881 C 225.987,125.21 244.136,142.868 244.474,142.868 C 244.611,142.868 245.716,141.812 246.93,140.522 L 246.93,140.521 M 86.294,140.553 C 88.557,137.993 92.111,132.454 92.105,131.498 C 92.105,131.004 90.371,129.768 87.213,128.0 C 85.903,127.267 81.617,124.807 77.688,122.532 C 72.658,119.62 70.27,118.38 69.618,118.341 C 69.108,118.311 68.382,118.211 68.003,118.119 C 67.38,117.967 67.231,118.096 66.454,119.475 C 65.981,120.313 65.005,121.621 64.285,122.383 L 62.976,123.767 L 68.48,128.339 C 71.507,130.854 75.883,134.527 78.205,136.501 C 83.426,140.939 84.484,141.779 84.875,141.797 C 85.045,141.807 85.683,141.245 86.294,140.554 L 86.294,140.553 M 209.194,135.063 C 210.025,132.759 210.039,132.648 209.645,131.624 C 209.421,131.042 209.158,130.473 209.06,130.361 C 208.886,130.161 203.335,135.598 203.179,136.122 C 203.1,136.385 207.265,137.575 207.967,137.49 C 208.175,137.465 208.708,136.41 209.194,135.063 L 209.194,135.063 M 188.746,135.369 C 189.503,134.774 189.295,134.537 187.622,134.089 C 185.795,133.599 185.677,133.753 186.708,135.27 C 187.412,136.306 187.548,136.312 188.746,135.37 L 188.746,135.369 M 204.946,133.542 C 209.723,128.691 210.112,128.203 210.112,127.041 C 210.112,126.407 210.317,125.746 210.641,125.334 C 211.335,124.451 211.324,124.396 210.256,123.301 C 209.739,122.771 209.062,121.616 208.698,120.644 C 208.027,118.853 207.626,118.552 206.482,118.979 C 205.872,119.206 191.326,133.022 191.326,133.374 C 191.326,133.592 193.151,134.194 194.104,134.29 C 194.395,134.319 195.288,134.542 196.089,134.785 C 196.889,135.028 197.863,135.219 198.254,135.209 C 198.645,135.199 199.039,135.31 199.13,135.457 C 199.221,135.604 199.615,135.727 200.007,135.729 C 200.398,135.729 200.897,135.848 201.116,135.989 C 201.89,136.489 202.305,136.224 204.946,133.542 L 204.946,133.542 M 210.641,134.237 C 210.641,133.886 210.569,133.868 210.244,134.137 C 210.026,134.318 209.847,134.512 209.847,134.566 C 209.847,134.621 210.026,134.666 210.244,134.666 C 210.462,134.666 210.641,134.473 210.641,134.237 M 216.246,129.053 C 216.123,128.931 215.716,129.072 215.341,129.367 C 214.965,129.662 214.422,129.904 214.133,129.904 C 212.887,129.904 213.353,131.596 215.102,133.424 L 216.065,134.431 L 216.266,131.853 C 216.377,130.435 216.368,129.175 216.245,129.053 L 216.246,129.053 M 252.903,132.087 C 254.313,129.432 255.668,125.997 255.567,125.335 C 255.442,124.515 254.948,124.377 242.523,121.693 C 239.758,121.096 236.703,120.423 235.734,120.199 C 234.765,119.974 233.835,119.835 233.668,119.891 C 233.41,119.977 235.925,122.169 239.086,124.612 C 239.556,124.976 242.001,126.941 244.518,128.978 C 249.108,132.693 251.012,134.089 251.534,134.12 C 251.688,134.13 252.304,133.215 252.903,132.087 M 196.016,128.101 C 199.039,125.217 202.329,122.096 203.327,121.165 C 205.246,119.374 205.279,118.932 203.429,119.805 C 202.812,120.096 199.151,121.787 195.295,123.562 C 186.872,127.44 184.391,128.672 183.959,129.192 C 183.697,129.509 183.745,129.814 184.211,130.772 C 184.832,132.051 185.455,132.372 187.992,132.719 C 188.67,132.812 189.287,132.991 189.365,133.116 C 189.793,133.808 190.935,132.947 196.016,128.101 L 196.016,128.101 M 18.665,131.119 C 21.635,129.54 41.038,117.301 41.04,117.006 C 41.04,116.82 40.723,116.676 40.315,116.676 C 38.724,116.676 17.395,119.666 15.282,120.181 C 14.574,120.353 13.931,120.66 13.854,120.862 C 13.411,122.016 16.565,131.756 17.381,131.756 C 17.428,131.756 18.006,131.469 18.665,131.119 L 18.665,131.119 M 93.645,128.118 C 94.076,126.99 94.612,125.413 94.838,124.612 C 95.206,123.305 96.076,119.034 96.076,118.534 C 96.076,118.081 92.545,117.727 84.17,117.34 C 79.295,117.115 74.196,116.933 72.84,116.935 C 70.675,116.935 70.383,116.994 70.458,117.383 C 70.532,117.768 72.706,119.208 76.365,121.295 C 76.947,121.627 80.357,123.575 83.942,125.624 C 90.29,129.251 91.91,130.103 92.551,130.147 C 92.723,130.159 93.215,129.246 93.645,128.118 L 93.645,128.118 M 170.639,127.607 C 170.69,127.248 170.528,126.926 170.211,126.756 C 169.561,126.409 169.228,124.561 169.684,123.831 C 169.96,123.389 169.911,123.209 169.36,122.622 C 168.846,122.074 168.716,121.663 168.73,120.626 C 168.74,119.908 168.675,119.321 168.586,119.321 C 168.496,119.321 168.258,119.886 168.057,120.577 C 167.856,121.269 167.622,121.894 167.536,121.966 C 167.265,122.198 166.191,123.791 166.191,123.962 C 166.191,124.053 165.577,124.709 164.827,125.42 C 163.649,126.538 163.532,126.736 163.967,126.873 C 164.244,126.96 164.689,127.149 164.955,127.293 C 165.221,127.436 165.757,127.606 166.145,127.672 C 166.534,127.737 167.328,127.898 167.911,128.029 C 169.632,128.417 170.543,128.276 170.639,127.607 L 170.639,127.607 M 186.564,127.164 C 187.946,126.532 191.339,124.969 194.104,123.691 C 196.869,122.413 200.008,120.977 201.08,120.499 C 203.569,119.389 203.878,119.088 202.396,119.212 C 188.548,120.375 182.827,120.895 182.0,121.065 C 181.076,121.255 181.069,121.687 181.942,124.694 C 182.796,127.643 183.111,128.317 183.63,128.315 C 183.861,128.314 185.182,127.796 186.564,127.164 L 186.564,127.164 M 54.801,125.803 C 54.801,125.585 54.63,125.406 54.42,125.406 C 53.978,125.406 53.68,125.784 53.926,126.031 C 54.243,126.347 54.801,126.201 54.801,125.803 M 52.817,125.671 C 52.907,125.525 52.735,125.406 52.436,125.406 C 52.136,125.406 51.891,125.525 51.891,125.671 C 51.891,125.816 52.062,125.935 52.272,125.935 C 52.482,125.935 52.727,125.816 52.817,125.671 M 57.022,125.517 C 57.253,124.914 57.234,124.877 56.697,124.877 C 56.025,124.877 55.809,125.159 56.159,125.58 C 56.548,126.049 56.825,126.029 57.022,125.517 L 57.022,125.517 M 51.117,125.069 C 51.084,124.752 50.721,124.814 50.608,125.155 C 50.55,125.329 50.645,125.425 50.819,125.366 C 50.994,125.308 51.128,125.174 51.117,125.069 M 49.51,124.877 C 49.51,124.731 49.391,124.612 49.245,124.612 C 49.099,124.612 48.98,124.731 48.98,124.877 C 48.98,125.022 49.099,125.141 49.245,125.141 C 49.39,125.141 49.51,125.022 49.51,124.877 M 59.034,124.893 C 59.034,124.536 58.552,124.288 58.236,124.483 C 58.089,124.574 58.036,124.76 58.12,124.896 C 58.318,125.217 59.035,125.215 59.035,124.896 L 59.034,124.893 M 60.358,124.332 C 60.358,124.196 60.238,124.084 60.093,124.084 C 59.947,124.084 59.828,124.269 59.828,124.496 C 59.828,124.723 59.947,124.835 60.093,124.745 C 60.238,124.655 60.358,124.469 60.358,124.332 M 223.738,124.613 C 223.648,124.467 223.462,124.348 223.325,124.348 C 223.188,124.348 223.076,124.467 223.076,124.613 C 223.076,124.758 223.262,124.877 223.489,124.877 C 223.716,124.877 223.828,124.758 223.738,124.613 M 55.936,124.177 C 56.541,124.077 57.048,123.805 57.217,123.49 C 57.456,123.044 57.286,122.766 56.022,121.542 C 55.211,120.757 54.383,120.115 54.183,120.115 C 53.982,120.115 53.265,120.601 52.589,121.196 C 51.321,122.312 50.99,123.342 51.679,124.031 C 52.019,124.37 54.291,124.448 55.936,124.177 L 55.936,124.177 M 151.79,123.946 C 151.51,123.733 151.216,123.625 151.136,123.704 C 150.97,123.87 151.642,124.342 152.036,124.336 C 152.181,124.336 152.071,124.158 151.79,123.946 M 47.12,123.885 C 47.1,123.413 46.346,122.722 46.052,122.904 C 45.828,123.042 45.921,123.244 46.365,123.586 C 47.084,124.139 47.131,124.158 47.12,123.885 M 50.792,123.435 C 50.85,123.134 50.755,123.006 50.527,123.082 C 50.331,123.147 50.13,123.413 50.08,123.672 C 50.021,123.974 50.117,124.101 50.344,124.025 C 50.54,123.96 50.741,123.695 50.792,123.435 M 219.901,123.554 C 219.901,123.26 219.725,123.025 219.504,123.025 C 219.284,123.025 219.107,123.26 219.107,123.554 C 219.107,123.848 219.284,124.083 219.504,124.083 C 219.725,124.083 219.901,123.848 219.901,123.554 M 224.857,123.923 C 224.769,123.835 224.54,123.826 224.349,123.902 C 224.138,123.987 224.201,124.049 224.509,124.062 C 224.788,124.074 224.944,124.011 224.857,123.923 L 224.857,123.923 M 256.794,121.079 C 257.042,119.791 257.315,117.659 257.4,116.341 L 257.556,113.945 L 255.066,114.102 C 253.697,114.188 247.948,114.711 242.291,115.264 L 232.004,116.271 L 231.595,117.128 C 231.219,117.917 231.223,118.027 231.651,118.5 C 231.907,118.782 232.731,119.151 233.483,119.318 C 234.235,119.486 235.624,119.797 236.57,120.01 C 243.226,121.509 254.059,123.803 254.826,123.876 C 255.336,123.925 255.885,123.842 256.047,123.693 C 256.209,123.544 256.546,122.368 256.794,121.079 L 256.794,121.079 M 61.416,123.554 C 61.416,123.408 61.29,123.289 61.136,123.289 C 60.981,123.289 60.929,123.408 61.019,123.554 C 61.109,123.699 61.235,123.818 61.299,123.818 C 61.363,123.818 61.416,123.699 61.416,123.554 M 225.722,123.289 C 225.722,123.144 225.543,123.025 225.325,123.025 C 225.107,123.025 224.928,123.144 224.928,123.289 C 224.928,123.435 225.107,123.554 225.325,123.554 C 225.543,123.554 225.722,123.435 225.722,123.289 M 49.427,122.694 C 49.996,122.066 50.568,120.137 50.568,118.848 C 50.568,118.244 50.373,117.976 49.652,117.588 C 49.149,117.317 48.683,117.149 48.617,117.215 C 48.234,117.6 46.599,120.763 46.599,121.119 C 46.599,121.607 48.142,123.289 48.589,123.289 C 48.754,123.289 49.131,123.021 49.427,122.694 L 49.427,122.694 M 153.226,123.061 C 153.226,122.935 152.743,122.497 152.152,122.088 C 151.561,121.678 150.955,121.114 150.805,120.833 C 150.607,120.463 150.451,120.402 150.242,120.612 C 149.902,120.951 150.772,122.009 152.036,122.794 C 152.909,123.337 153.226,123.408 153.226,123.061 M 150.316,122.908 C 150.316,122.844 150.197,122.718 150.051,122.628 C 149.906,122.538 149.787,122.59 149.787,122.744 C 149.787,122.899 149.906,123.025 150.051,123.025 C 150.197,123.025 150.316,122.973 150.316,122.908 M 163.176,122.038 C 162.907,121.769 162.685,122.174 162.905,122.531 C 163.072,122.801 163.134,122.801 163.224,122.531 C 163.285,122.347 163.264,122.125 163.176,122.037 L 163.176,122.038 M 216.462,122.496 C 216.462,122.35 216.343,122.231 216.197,122.231 C 216.051,122.231 215.932,122.35 215.932,122.496 C 215.932,122.641 216.051,122.76 216.197,122.76 C 216.343,122.76 216.462,122.641 216.462,122.496 M 227.309,122.496 C 227.309,122.35 227.131,122.231 226.913,122.231 C 226.694,122.231 226.516,122.35 226.516,122.496 C 226.516,122.641 226.694,122.76 226.913,122.76 C 227.131,122.76 227.309,122.641 227.309,122.496 M 62.037,121.247 C 62.714,120.561 63.268,119.8 63.268,119.556 C 63.268,118.78 59.719,117.754 59.117,118.356 C 58.82,118.654 59.627,121.975 60.057,122.227 C 60.698,122.601 60.706,122.597 62.037,121.247 L 62.037,121.247 M 225.36,121.551 C 225.85,121.031 226.251,120.414 226.251,120.179 C 226.251,119.491 225.166,118.527 224.392,118.527 C 223.634,118.527 221.999,119.497 221.815,120.055 C 221.688,120.443 223.641,122.496 224.138,122.496 C 224.32,122.496 224.87,122.07 225.36,121.551 M 45.541,121.551 C 45.541,121.341 45.362,121.169 45.144,121.169 C 44.745,121.169 44.6,121.728 44.916,122.044 C 45.163,122.291 45.541,121.993 45.541,121.551 M 58.892,120.839 C 58.509,118.554 58.505,118.55 56.684,118.995 C 55.29,119.336 55.116,119.446 55.333,119.852 C 55.67,120.482 57.944,121.963 58.574,121.963 C 59.024,121.963 59.06,121.836 58.892,120.839 M 161.635,121.475 C 161.711,121.247 161.584,121.152 161.282,121.21 C 161.023,121.26 160.757,121.462 160.692,121.658 C 160.616,121.885 160.743,121.981 161.045,121.922 C 161.304,121.872 161.57,121.671 161.635,121.475 M 218.209,121.241 C 217.94,120.972 217.718,121.377 217.939,121.734 C 218.105,122.004 218.168,122.004 218.257,121.734 C 218.318,121.55 218.297,121.328 218.209,121.24 L 218.209,121.241 M 52.274,120.655 L 53.293,119.611 L 52.331,119.152 C 51.801,118.9 51.323,118.744 51.269,118.807 C 51.044,119.062 50.831,121.699 51.034,121.699 C 51.155,121.699 51.713,121.229 52.274,120.655 M 64.764,120.524 C 64.723,120.388 64.549,120.229 64.376,120.172 C 64.191,120.111 64.122,120.226 64.209,120.451 C 64.302,120.695 64.147,120.89 63.785,120.985 C 63.469,121.068 63.292,121.26 63.389,121.417 C 63.596,121.75 64.88,120.916 64.764,120.524 M 154.549,121.302 C 154.549,121.083 154.43,120.905 154.284,120.905 C 154.139,120.905 154.02,121.083 154.02,121.302 C 154.02,121.52 154.139,121.699 154.284,121.699 C 154.43,121.699 154.549,121.52 154.549,121.302 M 44.152,120.221 C 43.9,119.969 43.394,120.378 43.582,120.682 C 43.694,120.862 43.842,120.858 44.032,120.668 C 44.187,120.512 44.241,120.311 44.152,120.221 L 44.152,120.221 M 228.897,120.36 C 228.897,120.223 228.778,120.111 228.632,120.111 C 228.487,120.111 228.368,120.297 228.368,120.524 C 228.368,120.75 228.487,120.862 228.632,120.773 C 228.778,120.683 228.897,120.497 228.897,120.36 M 162.751,119.979 C 162.751,119.76 162.639,119.582 162.502,119.582 C 162.169,119.582 161.93,119.995 162.141,120.206 C 162.439,120.504 162.751,120.388 162.751,119.979 M 188.236,119.979 C 190.882,119.761 194.951,119.41 197.279,119.199 C 199.608,118.987 202.441,118.738 203.576,118.645 C 205.205,118.512 205.79,118.346 206.354,117.857 C 207.688,116.701 207.082,116.631 199.512,117.066 C 192.801,117.452 187.469,117.809 183.034,118.17 C 180.827,118.35 180.557,118.541 180.852,119.715 C 181.056,120.529 181.415,120.541 188.236,119.979 M 47.123,118.59 C 47.557,117.898 47.914,117.197 47.917,117.031 C 47.927,116.579 47.262,116.407 45.519,116.407 C 44.117,116.407 43.953,116.464 43.953,116.949 C 43.953,117.483 44.56,118.867 45.077,119.516 C 45.608,120.181 46.328,119.855 47.123,118.59 M 25.168,118.164 C 29.752,117.517 34.127,116.905 34.891,116.805 C 35.655,116.704 36.28,116.514 36.28,116.382 C 36.28,116.25 36.099,116.142 35.878,116.142 C 35.464,116.142 28.221,115.369 22.125,114.673 C 20.233,114.458 17.387,114.204 15.799,114.111 L 12.913,113.94 L 13.068,116.298 C 13.287,119.633 13.256,119.587 15.205,119.453 C 16.101,119.391 20.584,118.811 25.168,118.164 L 25.168,118.164 M 43.424,119.185 C 43.424,118.967 43.312,118.788 43.175,118.788 C 42.842,118.788 42.603,119.201 42.814,119.413 C 43.112,119.711 43.424,119.594 43.424,119.185 M 65.523,118.768 C 65.683,118.266 65.523,117.755 65.285,118.016 C 65.005,118.327 64.852,119.317 65.084,119.317 C 65.23,119.317 65.427,119.07 65.523,118.768 L 65.523,118.768 M 148.101,118.193 C 148.013,117.865 147.94,117.27 147.938,116.87 C 147.938,116.47 147.816,116.142 147.67,116.142 C 147.381,116.142 147.308,117.698 147.566,118.37 C 147.815,119.018 148.281,118.864 148.101,118.193 L 148.101,118.193 M 229.995,118.391 C 229.995,118.253 229.867,118.097 229.711,118.045 C 229.554,117.993 229.426,118.149 229.426,118.391 C 229.426,118.634 229.554,118.79 229.711,118.737 C 229.867,118.685 229.995,118.53 229.995,118.391 M 64.272,117.693 C 64.321,117.436 63.855,116.85 63.131,116.257 L 61.908,115.254 L 61.289,116.029 C 60.581,116.915 60.747,117.309 62.077,117.898 C 63.097,118.35 64.166,118.25 64.272,117.693 L 64.272,117.693 M 207.873,117.977 C 208.184,117.475 207.731,117.351 207.27,117.812 C 206.858,118.224 206.857,118.259 207.26,118.259 C 207.501,118.259 207.777,118.132 207.873,117.977 L 207.873,117.977 M 42.895,117.598 C 42.895,117.379 42.716,117.201 42.498,117.201 C 42.28,117.201 42.101,117.379 42.101,117.598 C 42.101,117.816 42.28,117.994 42.498,117.994 C 42.716,117.994 42.895,117.816 42.895,117.598 M 228.581,116.896 C 228.746,115.475 226.51,114.756 225.924,116.041 C 225.645,116.654 225.681,116.792 226.24,117.245 C 226.634,117.564 227.178,117.727 227.686,117.677 C 228.345,117.613 228.516,117.464 228.581,116.896 L 228.581,116.896 M 96.138,116.838 C 96.441,116.372 96.374,109.775 96.044,107.554 C 95.752,105.587 95.737,105.559 94.965,105.559 C 94.535,105.559 92.258,105.97 89.904,106.473 C 87.551,106.976 82.481,108.049 78.639,108.856 C 72.018,110.248 70.769,110.623 71.081,111.127 C 71.155,111.246 71.102,111.413 70.963,111.498 C 70.825,111.583 70.722,112.009 70.735,112.443 C 70.747,112.878 70.552,113.46 70.301,113.737 C 69.867,114.216 69.877,114.292 70.504,115.285 L 71.163,116.329 L 76.674,116.527 C 79.706,116.636 84.686,116.878 87.742,117.064 C 93.489,117.414 95.804,117.352 96.139,116.838 L 96.138,116.838 M 230.504,116.598 C 230.471,116.282 230.109,116.343 229.995,116.684 C 229.937,116.859 230.032,116.954 230.207,116.896 C 230.381,116.838 230.515,116.704 230.504,116.598 M 48.716,116.283 C 48.716,116.037 48.562,115.953 48.297,116.055 C 47.959,116.184 47.946,116.259 48.231,116.439 C 48.701,116.737 48.716,116.732 48.716,116.283 L 48.716,116.283 M 40.789,113.628 C 40.876,112.185 41.173,110.537 41.544,109.444 C 41.88,108.453 42.103,107.589 42.039,107.525 C 41.898,107.384 39.849,107.118 30.856,106.072 C 14.613,104.182 14.142,104.147 13.775,104.802 C 13.53,105.241 12.733,110.88 12.733,112.177 C 12.733,113.167 13.174,113.382 15.643,113.595 C 18.627,113.853 32.055,115.316 35.222,115.728 C 36.75,115.927 38.595,116.071 39.323,116.05 L 40.646,116.01 L 40.789,113.628 M 14.717,110.85 C 14.408,110.351 14.882,110.057 15.989,110.061 C 17.233,110.061 17.918,110.379 17.645,110.821 C 17.419,111.187 14.94,111.212 14.717,110.851 L 14.717,110.85 M 47.999,115.547 C 48.277,115.339 48.36,115.087 48.223,114.87 C 48.046,114.591 47.817,114.613 47.037,114.985 C 46.505,115.239 46.07,115.543 46.07,115.662 C 46.07,116.0 47.507,115.914 47.999,115.547 M 239.877,115.077 C 242.788,114.786 247.074,114.374 249.402,114.16 C 251.731,113.947 254.499,113.634 255.554,113.465 L 257.472,113.157 L 257.462,111.673 C 257.452,109.124 256.399,103.08 255.917,102.815 C 255.61,102.646 252.899,103.077 248.868,103.937 C 246.685,104.403 243.173,105.146 241.063,105.589 C 235.15,106.83 231.16,107.701 231.097,107.763 C 231.066,107.794 231.279,108.532 231.572,109.401 C 231.902,110.383 232.134,111.885 232.186,113.364 C 232.232,114.673 232.283,115.76 232.301,115.779 C 232.341,115.822 233.383,115.725 239.872,115.077 L 239.877,115.077 M 46.334,114.747 C 47.939,113.95 48.048,113.84 47.962,113.099 C 47.911,112.663 47.833,112.266 47.787,112.218 C 47.608,112.032 46.445,112.826 45.226,113.965 C 43.208,115.853 43.579,116.114 46.334,114.747 M 42.366,115.084 C 42.366,114.938 42.187,114.819 41.969,114.819 C 41.751,114.819 41.572,114.938 41.572,115.084 C 41.572,115.229 41.751,115.348 41.969,115.348 C 42.187,115.348 42.366,115.229 42.366,115.084 M 148.013,114.621 C 148.09,114.22 148.097,113.837 148.029,113.768 C 147.843,113.581 147.413,114.356 147.409,114.885 C 147.399,115.621 147.858,115.422 148.012,114.621 L 148.013,114.621 M 231.014,114.803 C 231.014,114.666 230.835,114.554 230.617,114.554 C 230.208,114.554 230.091,114.867 230.389,115.165 C 230.6,115.376 231.014,115.137 231.014,114.803 M 46.525,112.253 L 47.907,111.182 L 47.126,110.004 C 46.153,108.535 45.395,107.835 45.024,108.064 C 44.121,108.622 42.884,113.265 43.33,114.426 C 43.469,114.788 43.622,114.737 44.319,114.09 C 44.773,113.669 45.765,112.842 46.525,112.253 L 46.525,112.253 M 42.63,114.025 C 42.63,113.88 42.511,113.761 42.366,113.761 C 42.22,113.761 42.101,113.88 42.101,114.025 C 42.101,114.171 42.22,114.29 42.366,114.29 C 42.511,114.29 42.63,114.171 42.63,114.025 M 53.743,113.893 C 53.743,113.675 53.624,113.496 53.478,113.496 C 53.333,113.496 53.214,113.675 53.214,113.893 C 53.214,114.111 53.333,114.29 53.478,114.29 C 53.624,114.29 53.743,114.111 53.743,113.893 M 64.458,114.025 C 64.548,113.88 64.429,113.761 64.194,113.761 C 63.958,113.761 63.839,113.88 63.929,114.025 C 64.019,114.171 64.138,114.29 64.194,114.29 C 64.25,114.29 64.369,114.171 64.458,114.025 M 228.759,112.974 C 229.127,112.566 229.193,112.209 229.056,111.353 C 228.959,110.749 228.761,110.032 228.615,109.759 C 228.261,109.098 227.284,109.131 226.392,109.833 C 225.751,110.337 225.687,110.523 225.835,111.453 C 225.927,112.031 226.123,112.727 226.269,113.0 C 226.633,113.68 228.134,113.664 228.759,112.974 L 228.759,112.974 M 231.278,112.952 C 231.278,112.815 231.1,112.703 230.881,112.703 C 230.472,112.703 230.356,113.015 230.654,113.313 C 230.865,113.524 231.278,113.285 231.278,112.952 M 42.585,112.08 C 42.652,111.731 42.544,111.622 42.194,111.689 C 41.928,111.74 41.668,112.0 41.617,112.267 C 41.55,112.616 41.658,112.725 42.008,112.657 C 42.274,112.606 42.534,112.346 42.585,112.08 M 64.492,111.038 C 64.606,110.202 64.567,109.792 64.37,109.792 C 64.21,109.792 64.141,109.956 64.217,110.155 C 64.294,110.354 64.171,110.589 63.944,110.676 C 63.53,110.835 63.363,112.18 63.713,112.531 C 64.035,112.853 64.317,112.312 64.492,111.038 L 64.492,111.038 M 198.999,111.158 C 205.438,111.008 206.542,110.925 206.555,110.586 C 206.565,110.368 206.646,110.011 206.738,109.792 C 206.83,109.574 206.942,109.181 206.987,108.918 C 207.032,108.656 207.158,108.448 207.267,108.455 C 207.669,108.483 208.56,107.358 208.422,106.998 C 208.341,106.787 208.518,106.498 208.829,106.331 C 209.931,105.741 208.839,105.349 205.614,105.179 C 200.139,104.889 184.155,103.822 182.465,103.633 C 182.047,103.586 181.849,103.854 181.5,104.935 C 180.849,106.956 180.323,111.12 180.691,111.348 C 180.984,111.529 184.646,111.491 198.999,111.158 L 198.999,111.158 M 231.014,110.983 C 231.014,110.765 230.835,110.586 230.617,110.586 C 230.398,110.586 230.22,110.765 230.22,110.983 C 230.22,111.201 230.399,111.38 230.617,111.38 C 230.835,111.38 231.014,111.201 231.014,110.983 M 42.895,110.057 C 42.895,109.499 42.51,109.345 42.233,109.792 C 42.041,110.104 42.29,110.586 42.646,110.586 C 42.783,110.586 42.895,110.348 42.895,110.057 M 162.751,110.354 C 162.751,110.02 161.974,109.422 161.786,109.611 C 161.515,109.882 161.919,110.586 162.346,110.586 C 162.569,110.586 162.751,110.481 162.751,110.354 M 49.309,109.412 C 49.95,108.609 49.981,108.489 49.573,108.376 C 48.56,108.097 46.599,107.92 46.599,108.108 C 46.599,108.492 47.996,110.321 48.289,110.321 C 48.451,110.321 48.91,109.912 49.309,109.412 L 49.309,109.412 M 85.757,106.859 C 89.905,105.975 93.757,105.055 94.318,104.813 C 95.305,104.388 95.332,104.341 95.19,103.313 C 94.963,101.678 93.783,98.276 92.504,95.571 C 91.868,94.225 91.287,93.123 91.213,93.123 C 90.68,93.123 75.184,103.363 73.388,104.901 C 72.509,105.654 72.262,106.048 72.257,106.704 C 72.257,107.166 72.149,107.984 72.024,108.522 C 71.899,109.061 71.845,109.55 71.905,109.61 C 72.032,109.737 75.324,109.083 85.757,106.859 L 85.757,106.859 M 168.572,108.072 C 168.572,106.976 168.701,106.488 169.095,106.094 C 169.615,105.575 169.574,104.835 169.005,104.455 C 168.611,104.192 165.733,103.896 165.424,104.087 C 165.265,104.185 165.424,104.635 165.807,105.206 C 166.397,106.076 166.583,106.635 166.481,107.23 C 166.461,107.348 166.684,107.783 166.979,108.197 C 167.273,108.61 167.514,109.078 167.514,109.238 C 167.514,109.397 167.752,109.528 168.043,109.528 C 168.508,109.528 168.572,109.351 168.572,108.072 L 168.572,108.072 M 230.424,108.783 C 230.482,108.611 230.34,108.469 230.11,108.469 C 229.879,108.469 229.691,108.658 229.691,108.888 C 229.691,109.355 230.26,109.274 230.424,108.783 L 230.424,108.783 M 43.424,108.321 C 43.424,108.095 43.303,107.984 43.155,108.075 C 43.007,108.166 42.955,108.352 43.039,108.488 C 43.265,108.855 43.424,108.786 43.424,108.321 M 65.682,108.271 C 65.911,108.017 66.324,107.664 66.601,107.487 C 67.088,107.177 67.083,107.148 66.48,106.627 C 65.633,105.897 65.446,105.942 64.946,106.991 C 64.291,108.364 64.802,109.253 65.682,108.271 L 65.682,108.271 M 156.255,107.918 C 156.17,107.78 155.987,107.737 155.849,107.822 C 155.712,107.907 155.668,108.09 155.753,108.228 C 155.838,108.365 156.021,108.408 156.159,108.324 C 156.297,108.239 156.34,108.056 156.255,107.918 M 223.281,108.158 C 223.136,107.723 222.346,107.26 222.125,107.481 C 221.873,107.732 222.524,108.47 222.998,108.47 C 223.211,108.47 223.338,108.329 223.281,108.158 L 223.281,108.158 M 226.869,107.988 C 227.248,107.57 227.256,107.44 226.934,107.0 C 226.594,106.534 226.524,106.526 226.077,106.912 C 225.809,107.142 225.368,107.41 225.097,107.507 C 224.694,107.65 224.664,107.754 224.931,108.076 C 225.378,108.615 226.342,108.571 226.87,107.988 L 226.869,107.988 M 213.816,107.94 C 213.816,107.795 213.585,107.676 213.302,107.676 C 213.02,107.676 212.715,107.795 212.625,107.94 C 212.532,108.09 212.755,108.205 213.139,108.205 C 213.511,108.205 213.816,108.086 213.816,107.94 M 52.581,105.559 C 53.063,104.322 53.462,103.205 53.468,103.076 C 53.487,102.634 51.105,103.166 49.579,103.943 C 48.16,104.666 45.549,106.978 45.832,107.261 C 46.051,107.48 49.33,107.888 50.54,107.847 L 51.703,107.808 L 52.581,105.559 M 56.124,107.056 C 56.123,106.428 54.546,103.442 54.215,103.442 C 53.912,103.442 52.683,106.313 52.685,107.014 C 52.686,107.16 53.46,107.297 54.405,107.32 C 55.553,107.348 56.124,107.26 56.124,107.056 L 56.124,107.056 M 228.937,107.015 C 228.937,106.876 228.809,106.721 228.652,106.668 C 228.496,106.616 228.368,106.772 228.368,107.015 C 228.368,107.257 228.496,107.413 228.652,107.361 C 228.809,107.309 228.937,107.153 228.937,107.015 M 236.702,106.107 C 239.467,105.54 242.622,104.882 243.714,104.647 C 244.805,104.412 247.484,103.86 249.667,103.42 C 253.779,102.593 255.601,101.968 255.613,101.382 C 255.631,100.465 252.964,94.353 251.865,92.796 L 251.354,92.07 L 249.849,93.033 C 248.25,94.056 246.897,95.046 237.165,102.32 C 233.782,104.848 231.014,106.969 231.014,107.032 C 231.014,107.247 231.675,107.14 236.702,106.107 L 236.702,106.107 M 42.763,106.379 C 42.763,106.175 41.87,105.499 40.778,104.878 C 38.084,103.345 36.971,102.701 30.989,99.214 C 21.065,93.431 18.891,92.254 18.538,92.472 C 17.675,93.005 13.774,102.791 14.263,103.195 C 14.914,103.732 19.171,104.332 34.957,106.109 C 37.648,106.412 39.906,106.716 39.973,106.783 C 40.041,106.851 40.696,106.871 41.43,106.828 C 42.36,106.773 42.763,106.638 42.763,106.379 L 42.763,106.379 M 235.309,103.233 C 237.385,101.666 241.405,98.671 244.243,96.577 C 249.558,92.656 250.593,91.771 250.593,91.146 C 250.593,90.472 247.139,86.295 245.305,84.752 L 244.482,84.06 L 243.81,84.689 C 243.44,85.035 241.638,87.343 239.805,89.817 C 232.882,99.162 229.239,104.114 229.07,104.41 C 228.974,104.579 229.215,105.204 229.605,105.799 C 230.445,107.082 229.861,107.345 235.309,103.233 L 235.309,103.233 M 44.747,106.353 C 44.747,106.208 44.628,106.089 44.482,106.089 C 44.337,106.089 44.218,106.208 44.218,106.353 C 44.218,106.499 44.337,106.618 44.482,106.618 C 44.628,106.618 44.747,106.499 44.747,106.353 M 70.544,105.745 C 71.427,105.246 71.697,104.88 72.175,103.541 C 73.036,101.131 74.154,95.859 74.063,94.643 L 73.983,93.572 L 70.808,97.161 C 68.015,100.319 67.544,100.992 66.89,102.757 C 66.48,103.861 66.226,104.893 66.323,105.051 C 66.644,105.57 68.15,106.351 68.824,106.348 C 69.188,106.348 69.962,106.075 70.544,105.746 L 70.544,105.745 M 224.928,105.972 C 224.928,105.55 224.448,105.157 224.216,105.389 C 223.999,105.607 224.339,106.353 224.655,106.353 C 224.805,106.353 224.928,106.182 224.928,105.972 M 228.103,105.824 C 228.103,105.678 227.984,105.559 227.839,105.559 C 227.693,105.559 227.574,105.678 227.574,105.824 C 227.574,105.969 227.693,106.089 227.839,106.089 C 227.984,106.089 228.103,105.969 228.103,105.824 M 43.505,105.39 C 43.598,105.297 43.34,104.791 42.93,104.266 C 42.521,103.74 40.005,100.215 37.34,96.431 C 32.723,89.878 28.892,84.66 27.436,82.94 L 26.767,82.149 L 25.146,83.734 C 23.466,85.377 20.103,89.536 19.479,90.744 C 19.142,91.396 19.174,91.477 20.041,92.169 C 20.547,92.573 21.64,93.293 22.469,93.77 C 23.299,94.247 25.823,95.707 28.078,97.016 C 30.334,98.324 33.37,100.084 34.825,100.927 C 36.28,101.77 38.358,102.995 39.443,103.648 C 41.251,104.738 42.796,105.523 43.182,105.549 C 43.267,105.559 43.412,105.483 43.505,105.39 L 43.505,105.39 M 46.07,105.03 C 46.07,104.472 45.685,104.318 45.408,104.766 C 45.216,105.078 45.465,105.559 45.821,105.559 C 45.958,105.559 46.07,105.321 46.07,105.03 M 57.185,104.699 C 57.87,103.576 57.849,103.012 57.116,102.816 C 55.976,102.51 55.066,102.626 55.066,103.076 C 55.066,103.611 56.145,105.559 56.441,105.559 C 56.562,105.559 56.897,105.172 57.185,104.699 L 57.185,104.699 M 45.422,103.75 C 46.847,102.496 49.232,101.205 50.899,100.786 C 51.59,100.612 52.155,100.348 52.155,100.199 C 52.155,99.963 45.989,89.285 43.945,85.98 C 43.54,85.325 42.929,84.299 42.589,83.699 C 40.392,79.832 38.536,76.748 38.017,76.101 L 37.414,75.35 L 35.987,76.065 C 32.455,77.835 27.814,81.011 27.814,81.658 C 27.814,82.167 28.658,83.569 30.371,85.907 C 32.506,88.82 35.466,92.976 38.338,97.093 C 41.892,102.188 43.8,104.766 44.018,104.766 C 44.156,104.766 44.788,104.309 45.422,103.751 L 45.422,103.75 M 226.78,104.501 C 226.78,104.356 226.661,104.236 226.516,104.236 C 226.37,104.236 226.251,104.356 226.251,104.501 C 226.251,104.647 226.37,104.766 226.516,104.766 C 226.661,104.766 226.78,104.647 226.78,104.501 M 47.485,104.113 C 47.672,103.626 47.176,103.289 46.811,103.654 C 46.528,103.937 46.732,104.501 47.116,104.501 C 47.237,104.501 47.403,104.326 47.485,104.113 M 81.392,98.754 C 89.93,92.998 90.519,92.564 90.521,92.023 C 90.521,91.415 87.733,87.53 85.752,85.384 L 83.859,83.332 L 83.118,83.859 C 82.711,84.149 80.787,86.128 78.842,88.257 L 75.306,92.127 L 75.113,94.544 C 74.954,96.544 73.72,102.363 73.129,103.903 C 73.043,104.126 73.081,104.263 73.214,104.207 C 73.346,104.15 77.026,101.697 81.392,98.754 L 81.392,98.754 M 220.987,103.629 C 220.647,103.289 220.303,103.552 220.554,103.959 C 220.651,104.116 220.853,104.17 221.001,104.079 C 221.182,103.967 221.177,103.819 220.987,103.629 L 220.987,103.629 M 207.712,103.68 C 207.844,103.893 208.13,103.977 208.387,103.878 C 208.927,103.671 208.895,103.628 203.361,97.225 C 201.223,94.751 198.504,91.599 197.318,90.221 C 196.133,88.842 194.577,87.083 193.861,86.312 L 192.56,84.909 L 191.779,85.643 C 190.719,86.64 187.617,90.472 187.287,91.193 C 186.872,92.099 187.107,92.268 198.405,99.174 C 205.664,103.611 206.39,103.987 206.984,103.619 C 207.376,103.376 207.531,103.389 207.712,103.68 L 207.712,103.68 M 230.345,101.963 C 232.227,99.462 238.754,90.581 240.923,87.568 C 241.814,86.331 242.815,84.85 243.149,84.277 L 243.754,83.235 L 243.139,82.738 C 241.864,81.708 237.19,78.674 236.329,78.317 C 235.463,77.959 235.412,77.972 234.796,78.722 C 234.446,79.149 233.911,79.974 233.608,80.556 C 232.858,81.994 224.595,96.237 223.605,97.798 C 223.168,98.486 222.812,99.323 222.812,99.658 C 222.812,100.159 222.953,100.268 223.605,100.268 C 224.273,100.268 224.399,100.372 224.399,100.923 C 224.399,101.786 225.838,102.605 226.562,102.153 C 227.268,101.712 227.385,101.782 227.237,102.559 C 227.078,103.391 227.487,103.948 228.27,103.962 C 228.668,103.972 229.276,103.383 230.345,101.963 M 204.82,103.474 C 204.82,103.345 204.612,103.17 204.357,103.085 C 204.102,103.0 203.715,102.809 203.497,102.661 C 203.279,102.514 201.255,101.28 198.999,99.92 C 196.743,98.559 193.946,96.849 192.781,96.12 C 191.617,95.391 189.725,94.28 188.577,93.65 C 186.558,92.544 186.477,92.523 186.108,93.014 C 185.534,93.777 183.823,97.252 183.007,99.312 C 182.266,101.181 182.328,101.576 183.368,101.587 C 183.575,101.587 183.932,101.757 184.162,101.96 C 184.451,102.215 185.717,102.386 188.283,102.515 C 192.303,102.718 194.036,102.824 196.486,103.018 C 197.359,103.087 199.204,103.224 200.587,103.321 C 201.969,103.418 203.15,103.545 203.21,103.603 C 203.431,103.812 204.82,103.702 204.82,103.474 L 204.82,103.474 M 48.773,102.601 C 48.369,102.197 48.071,102.495 48.295,103.079 C 48.427,103.424 48.542,103.458 48.777,103.223 C 49.013,102.987 49.012,102.839 48.777,102.601 L 48.773,102.601 M 156.137,102.986 C 156.137,102.706 155.853,102.634 155.032,102.703 C 153.531,102.828 153.467,103.304 154.946,103.336 C 155.81,103.355 156.136,103.258 156.136,102.986 L 156.137,102.986 M 157.459,102.914 C 157.459,102.768 157.407,102.649 157.343,102.649 C 157.279,102.649 157.153,102.768 157.063,102.914 C 156.973,103.059 157.026,103.178 157.179,103.178 C 157.333,103.178 157.459,103.059 157.459,102.914 M 50.039,102.384 C 50.039,102.239 49.92,102.12 49.774,102.12 C 49.629,102.12 49.509,102.239 49.509,102.384 C 49.509,102.53 49.629,102.649 49.774,102.649 C 49.92,102.649 50.039,102.53 50.039,102.384 M 169.751,101.975 C 170.486,101.294 170.585,100.783 170.125,100.046 C 169.731,99.416 170.496,97.734 171.268,97.532 C 171.75,97.406 171.792,97.256 171.636,96.219 C 171.432,94.856 171.789,93.877 172.624,93.51 C 173.098,93.302 173.204,93.034 173.209,92.019 C 173.219,90.77 173.834,89.684 174.538,89.684 C 174.967,89.684 175.24,88.946 175.041,88.32 C 174.833,87.665 175.885,85.98 176.503,85.98 C 177.012,85.98 177.303,85.483 177.303,84.61 C 177.303,83.856 178.306,82.541 178.88,82.541 C 179.405,82.541 179.684,82.043 179.684,81.11 C 179.684,80.37 180.838,79.244 181.382,79.453 C 181.869,79.64 182.207,79.164 182.112,78.426 C 182.035,77.826 182.938,76.861 183.581,76.856 C 183.806,76.856 184.267,76.416 184.605,75.884 L 185.218,74.915 L 181.898,70.857 C 177.896,65.965 177.121,65.144 176.824,65.484 C 176.601,65.739 175.991,67.457 169.873,85.054 C 166.679,94.24 166.309,95.194 165.151,97.213 C 164.614,98.15 164.571,98.468 164.738,100.256 C 164.84,101.354 165.04,102.325 165.183,102.414 C 165.325,102.503 166.26,102.581 167.26,102.587 C 168.813,102.597 169.177,102.507 169.751,101.975 L 169.751,101.975 M 51.626,101.84 C 51.626,101.703 51.448,101.591 51.229,101.591 C 50.82,101.591 50.704,101.903 51.002,102.201 C 51.213,102.412 51.626,102.173 51.626,101.84 M 53.374,101.398 C 53.105,101.129 52.883,101.534 53.103,101.891 C 53.27,102.161 53.332,102.161 53.422,101.891 C 53.483,101.707 53.461,101.485 53.374,101.397 L 53.374,101.398 M 153.389,101.851 C 153.537,101.703 154.613,101.508 155.779,101.418 L 157.9,101.255 L 158.912,98.206 C 159.817,95.479 160.382,93.4 160.815,91.206 C 160.935,90.601 160.867,90.478 160.413,90.478 C 159.724,90.478 159.272,89.724 159.597,89.116 C 159.849,88.646 161.27,87.832 161.84,87.832 C 162.022,87.832 162.289,87.505 162.435,87.105 C 162.58,86.705 163.655,83.698 164.823,80.424 C 165.991,77.15 167.742,72.268 168.715,69.576 C 172.279,59.711 172.525,58.929 172.242,58.4 C 172.096,58.128 171.79,57.833 171.562,57.745 C 171.333,57.657 168.394,57.73 165.031,57.906 L 158.915,58.227 L 147.67,52.61 C 127.912,42.741 117.549,37.757 113.931,36.384 C 112.219,35.734 108.606,34.998 108.356,35.247 C 108.272,35.331 110.515,38.893 113.339,43.161 C 116.163,47.43 119.169,51.995 120.018,53.304 C 120.868,54.614 123.901,59.257 126.759,63.623 C 129.617,67.989 132.224,72.003 132.552,72.543 C 133.071,73.398 133.247,73.506 133.903,73.375 C 134.503,73.255 134.733,73.351 135.034,73.847 C 135.241,74.19 136.58,76.435 138.009,78.837 C 139.437,81.238 140.843,83.466 141.132,83.788 L 141.658,84.373 L 142.328,83.846 C 142.811,83.466 143.078,83.4 143.283,83.608 C 143.488,83.815 143.332,84.333 142.732,85.438 L 141.896,86.979 L 145.428,92.367 C 151.444,101.544 151.863,102.12 152.524,102.12 C 152.852,102.12 153.241,101.999 153.389,101.851 L 153.389,101.851 M 55.799,101.541 C 55.635,101.051 55.066,100.969 55.066,101.436 C 55.066,101.667 55.254,101.855 55.485,101.855 C 55.715,101.855 55.856,101.714 55.799,101.541 L 55.799,101.541 M 59.986,97.208 C 64.572,85.567 67.758,76.894 67.764,76.037 C 67.764,75.88 67.498,75.761 67.17,75.773 C 66.702,75.789 66.578,75.653 66.591,75.132 C 66.601,74.769 66.695,74.209 66.803,73.889 C 66.974,73.38 66.872,73.274 65.979,73.033 C 63.295,72.311 63.317,72.307 62.759,73.578 C 62.48,74.215 61.697,76.879 61.019,79.498 C 59.904,83.811 57.149,93.58 55.844,97.848 C 55.562,98.773 55.33,99.687 55.33,99.879 C 55.33,100.195 57.672,100.813 58.373,100.681 C 58.519,100.654 59.244,99.091 59.986,97.208 M 53.743,99.93 C 53.743,99.744 53.217,95.845 52.574,91.265 C 51.931,86.685 51.143,80.914 50.823,78.44 C 50.503,75.966 50.146,73.704 50.031,73.413 C 49.916,73.122 49.749,72.659 49.66,72.385 C 49.519,71.948 49.32,71.907 48.071,72.054 C 46.58,72.229 40.97,73.766 39.349,74.443 L 38.409,74.836 L 38.797,75.935 C 39.01,76.54 40.635,79.494 42.408,82.499 C 44.18,85.505 47.053,90.405 48.791,93.389 C 50.529,96.372 52.184,99.14 52.468,99.54 C 53.004,100.294 53.743,100.52 53.743,99.93 L 53.743,99.93 M 55.134,98.614 C 60.653,79.735 62.404,72.964 61.952,72.234 C 61.662,71.764 55.2,71.301 52.814,71.579 L 50.7,71.825 L 50.681,72.751 C 50.671,73.26 50.755,74.392 50.868,75.265 C 51.938,83.503 53.838,97.337 54.148,99.143 C 54.36,100.374 54.667,100.208 55.134,98.614 L 55.134,98.614 M 219.176,98.593 C 219.141,98.064 218.744,96.171 218.293,94.386 C 215.868,84.766 214.079,77.409 214.072,77.024 C 214.072,76.784 213.889,76.357 213.675,76.074 C 213.461,75.792 213.287,75.345 213.287,75.082 C 213.287,74.819 213.172,74.604 213.032,74.604 C 211.758,74.604 204.907,76.694 204.077,77.337 C 203.591,77.713 203.875,79.223 205.007,82.277 C 206.267,85.679 208.771,92.784 209.096,93.883 C 209.255,94.421 210.249,95.696 211.607,97.105 C 213.799,99.379 213.88,99.433 214.935,99.337 C 215.53,99.282 216.087,99.126 216.173,98.99 C 216.259,98.854 216.835,98.756 217.454,98.773 C 218.36,98.798 218.578,98.899 218.578,99.294 C 218.578,99.57 218.722,99.733 218.909,99.669 C 219.109,99.6 219.214,99.175 219.176,98.593 L 219.176,98.593 M 222.211,99.144 C 222.191,98.375 222.701,91.678 223.355,84.133 C 223.638,80.861 223.87,77.329 223.87,76.284 L 223.87,74.384 L 221.828,74.193 C 219.575,73.982 214.629,74.204 214.331,74.529 C 214.227,74.643 214.241,75.531 214.363,76.503 C 214.645,78.749 219.597,98.724 219.96,99.078 C 220.142,99.255 220.272,99.233 220.353,99.012 C 220.42,98.83 220.762,98.681 221.114,98.681 C 221.577,98.681 221.753,98.827 221.753,99.21 C 221.753,99.501 221.86,99.739 221.99,99.739 C 222.12,99.739 222.219,99.471 222.211,99.144 L 222.211,99.144 M 72.881,94.183 L 74.421,92.463 L 74.269,90.903 C 74.185,90.045 74.116,88.527 74.116,87.529 C 74.116,86.532 74.008,85.716 73.876,85.716 C 73.542,85.716 68.548,97.798 68.565,98.567 C 68.575,98.825 70.279,97.09 72.882,94.183 L 72.881,94.183 M 224.724,95.241 C 228.958,88.202 233.54,79.985 234.04,78.533 L 234.398,77.496 L 233.364,76.969 C 232.275,76.413 226.259,74.604 225.501,74.604 C 224.825,74.604 224.485,76.086 224.016,81.086 C 223.206,89.734 222.618,97.493 222.747,97.833 C 222.9,98.236 223.007,98.096 224.724,95.241 M 206.669,88.067 C 204.767,82.589 203.414,79.014 202.981,78.323 C 202.78,78.003 202.62,77.996 201.995,78.28 C 200.327,79.036 197.147,81.077 197.147,81.39 C 197.147,81.574 198.063,82.713 199.182,83.919 C 204.458,89.606 208.345,93.656 208.439,93.563 C 208.495,93.507 207.699,91.033 206.669,88.067 L 206.669,88.067 M 78.965,87.474 C 80.686,85.554 82.282,83.675 82.511,83.297 C 82.917,82.627 82.901,82.589 81.793,81.584 C 80.283,80.216 77.297,78.043 76.926,78.044 C 76.763,78.044 76.183,79.168 75.637,80.54 L 74.646,83.036 L 74.905,85.501 C 75.048,86.856 75.167,88.65 75.17,89.486 C 75.17,90.536 75.277,91.001 75.505,90.986 C 75.687,90.974 77.244,89.394 78.965,87.474 L 78.965,87.474 M 136.116,77.51 C 135.857,77.071 135.368,76.387 135.03,75.989 C 134.488,75.351 134.5,75.407 135.124,76.456 C 135.514,77.111 135.951,77.795 136.095,77.977 C 136.579,78.588 136.591,78.315 136.116,77.51 L 136.116,77.51 M 134.267,74.725 C 134.181,74.5 134.054,74.373 133.985,74.442 C 133.916,74.511 133.937,74.695 134.033,74.851 C 134.294,75.273 134.446,75.191 134.267,74.725 L 134.267,74.725 M 75.314,59.6 C 76.551,57.797 80.0,49.375 79.911,48.377 C 79.719,46.242 79.956,44.724 80.598,43.96 C 80.962,43.528 81.259,42.928 81.259,42.626 C 81.259,41.821 82.155,41.459 83.639,41.663 C 84.764,41.817 84.934,41.776 85.081,41.312 C 85.173,41.023 85.425,40.718 85.642,40.635 C 85.899,40.536 85.984,40.276 85.887,39.883 C 85.804,39.545 86.079,38.283 86.514,37.001 L 87.288,34.72 L 85.131,33.627 C 81.621,31.847 78.662,29.093 77.179,26.225 C 76.928,25.739 76.673,25.392 76.612,25.452 C 76.551,25.512 76.207,28.837 75.846,32.839 C 75.106,41.045 74.351,47.449 73.624,51.668 L 73.131,54.529 L 74.132,54.93 C 75.433,55.45 75.664,56.055 74.823,56.743 C 74.185,57.265 73.587,59.203 73.587,60.748 C 73.587,61.739 74.065,61.421 75.314,59.6 L 75.314,59.6 M 89.182,30.617 C 89.944,28.98 90.599,27.361 90.635,27.02 C 90.672,26.678 90.835,26.317 90.997,26.217 C 91.427,25.951 93.166,22.026 93.166,21.322 C 93.166,20.584 94.128,19.648 95.011,19.527 C 95.651,19.44 96.855,17.783 96.866,16.976 C 96.866,16.585 94.988,15.682 93.653,15.433 C 93.167,15.343 92.572,15.023 92.332,14.722 C 91.912,14.197 91.853,14.192 90.877,14.601 C 89.327,15.248 87.424,15.681 87.074,15.465 C 86.46,15.086 86.008,13.557 86.29,12.814 C 86.562,12.1 86.449,11.633 86.005,11.633 C 85.427,11.633 80.956,14.906 79.844,16.143 C 78.233,17.934 77.254,20.066 77.087,22.142 C 76.968,23.623 77.045,23.99 77.797,25.517 C 78.741,27.434 80.659,29.668 82.56,31.063 C 84.147,32.228 86.722,33.593 87.332,33.593 C 87.664,33.593 88.19,32.747 89.182,30.617 L 89.182,30.617 M 193.552,28.142 C 194.182,27.9 193.778,27.508 192.898,27.508 C 192.383,27.508 192.12,27.642 192.12,27.905 C 192.12,28.312 192.811,28.426 193.552,28.142 M 185.251,26.708 C 185.537,26.556 185.77,26.326 185.77,26.197 C 185.77,25.786 179.283,23.852 178.966,24.169 C 178.724,24.411 180.65,26.334 181.643,26.842 C 182.514,27.287 184.293,27.221 185.251,26.708 L 185.251,26.708" id="path3" style="fill:#A8B0BE;opacity:0.92"/>
</svg>
