<?xml version="1.0" encoding="UTF-8"?>
<svg xmlns="http://www.w3.org/2000/svg" width="1672" height="941" viewBox="0 0 1672 941" role="img" aria-label="Mountain bike silhouette">
  <title>Mountain bike silhouette</title>
  <g id="bicycle-silhouette" fill="#F4F6FA" fill-rule="evenodd" stroke="none">
    <path d="M357.0,757.0 L357.0,765.0 L358.0,765.0 L358.0,758.0 Z
M373.0,672.0 L376.0,678.0 L376.0,682.0 L377.0,683.0 L378.0,690.0 L382.0,700.0 L382.0,703.0 L383.0,704.0 L384.0,710.0 L386.0,714.0 L387.0,721.0 L389.0,725.0 L389.0,728.0 L391.0,732.0 L391.0,735.0 L394.0,742.0 L394.0,745.0 L396.0,749.0 L396.0,752.0 L397.0,753.0 L397.0,756.0 L399.0,761.0 L400.0,759.0 L398.0,755.0 L398.0,752.0 L396.0,748.0 L395.0,741.0 L393.0,737.0 L393.0,734.0 L390.0,727.0 L389.0,720.0 L386.0,713.0 L386.0,710.0 L385.0,709.0 L384.0,703.0 L383.0,702.0 L382.0,696.0 L381.0,695.0 L381.0,693.0 L382.0,692.0 L383.0,692.0 L387.0,696.0 L387.0,697.0 L403.0,716.0 L406.0,721.0 L410.0,725.0 L413.0,730.0 L417.0,734.0 L417.0,735.0 L420.0,738.0 L420.0,739.0 L423.0,742.0 L423.0,743.0 L426.0,746.0 L432.0,755.0 L435.0,757.0 L435.0,756.0 L425.0,744.0 L422.0,739.0 L418.0,735.0 L418.0,734.0 L414.0,730.0 L414.0,729.0 L407.0,721.0 L404.0,716.0 L400.0,712.0 L400.0,711.0 L396.0,707.0 L393.0,702.0 L378.0,684.0 L376.0,677.0 L375.0,676.0 L375.0,674.0 L374.0,672.0 Z
M620.0,669.0 L616.0,667.0 L610.0,667.0 L609.0,666.0 L604.0,666.0 L603.0,665.0 L596.0,665.0 L595.0,664.0 L590.0,664.0 L589.0,663.0 L583.0,663.0 L582.0,662.0 L580.0,662.0 L578.0,666.0 L578.0,669.0 L577.0,670.0 L577.0,672.0 L576.0,673.0 L576.0,675.0 L575.0,676.0 L575.0,678.0 L574.0,679.0 L573.0,684.0 L571.0,687.0 L571.0,689.0 L567.0,697.0 L567.0,699.0 L564.0,704.0 L564.0,706.0 L559.0,716.0 L557.0,718.0 L554.0,725.0 L552.0,727.0 L548.0,735.0 L542.0,743.0 L542.0,745.0 L544.0,744.0 L551.0,744.0 L552.0,743.0 L561.0,743.0 L562.0,742.0 L570.0,742.0 L571.0,741.0 L579.0,741.0 L580.0,740.0 L587.0,740.0 L588.0,739.0 L593.0,739.0 L597.0,731.0 L597.0,730.0 L594.0,728.0 L595.0,726.0 L595.0,724.0 L598.0,720.0 L602.0,720.0 L604.0,717.0 L605.0,712.0 L603.0,711.0 L604.0,709.0 L603.0,707.0 L605.0,704.0 L609.0,704.0 L610.0,703.0 L610.0,701.0 L611.0,700.0 L611.0,698.0 L613.0,694.0 L613.0,693.0 L610.0,690.0 L611.0,683.0 L613.0,681.0 L615.0,680.0 L617.0,680.0 L618.0,678.0 L618.0,675.0 L620.0,671.0 Z
M422.0,636.0 L465.0,671.0 L532.0,720.0 L531.0,724.0 L514.0,746.0 L514.0,748.0 L534.0,746.0 L537.0,743.0 L550.0,723.0 L561.0,702.0 L571.0,676.0 L575.0,662.0 L574.0,661.0 L559.0,659.0 L558.0,665.0 L554.0,666.0 L523.0,653.0 L514.0,651.0 L556.0,669.0 L553.0,680.0 L545.0,699.0 L537.0,714.0 L533.0,718.0 L486.0,685.0 L425.0,637.0 Z
M319.0,598.0 L318.0,607.0 L320.0,612.0 L316.0,617.0 L316.0,619.0 L328.0,624.0 L332.0,629.0 L334.0,637.0 L330.0,645.0 L347.0,651.0 L358.0,658.0 L372.0,652.0 L373.0,653.0 L372.0,656.0 L369.0,658.0 L366.0,658.0 L363.0,661.0 L370.0,668.0 L373.0,666.0 L378.0,667.0 L379.0,662.0 L382.0,659.0 L386.0,660.0 L387.0,663.0 L432.0,703.0 L483.0,747.0 L489.0,750.0 L387.0,661.0 L388.0,659.0 L387.0,655.0 L390.0,652.0 L395.0,651.0 L394.0,648.0 L395.0,644.0 L397.0,642.0 L400.0,643.0 L402.0,641.0 L400.0,637.0 L401.0,633.0 L392.0,632.0 L388.0,635.0 L387.0,634.0 L388.0,631.0 L367.0,627.0 L365.0,628.0 L362.0,626.0 L356.0,626.0 L344.0,623.0 L333.0,624.0 L332.0,622.0 L335.0,618.0 L334.0,613.0 L338.0,612.0 L344.0,604.0 L344.0,600.0 L342.0,596.0 L335.0,591.0 L328.0,591.0 Z
M380.0,644.0 L381.0,645.0 L381.0,648.0 L378.0,651.0 L376.0,651.0 L375.0,650.0 L375.0,648.0 L376.0,646.0 L378.0,644.0 Z
M387.0,636.0 L388.0,637.0 L388.0,639.0 L387.0,641.0 L385.0,643.0 L384.0,643.0 L383.0,642.0 L383.0,639.0 L385.0,636.0 Z
M587.0,580.0 L587.0,617.0 L595.0,617.0 L596.0,618.0 L604.0,618.0 L605.0,619.0 L612.0,619.0 L613.0,620.0 L621.0,620.0 L622.0,621.0 L623.0,620.0 L623.0,618.0 L625.0,616.0 L627.0,616.0 L628.0,615.0 L628.0,604.0 L624.0,601.0 L624.0,594.0 L623.0,593.0 L623.0,592.0 L625.0,590.0 L627.0,590.0 L628.0,589.0 L628.0,582.0 L627.0,581.0 L589.0,581.0 Z
M582.0,581.0 L581.0,580.0 L566.0,580.0 L566.0,588.0 L567.0,589.0 L567.0,604.0 L566.0,605.0 L550.0,605.0 L549.0,606.0 L502.0,606.0 L502.0,607.0 L549.0,607.0 L550.0,606.0 L559.0,606.0 L560.0,607.0 L566.0,607.0 L567.0,608.0 L567.0,612.0 L566.0,613.0 L567.0,614.0 L570.0,614.0 L571.0,615.0 L578.0,615.0 L579.0,616.0 L582.0,616.0 L582.0,605.0 L583.0,604.0 L583.0,595.0 L582.0,594.0 Z
M320.0,590.0 L333.0,586.0 L341.0,589.0 L346.0,594.0 L348.0,606.0 L345.0,614.0 L342.0,617.0 L343.0,619.0 L631.0,664.0 L630.0,649.0 L635.0,629.0 L633.0,627.0 L366.0,596.0 L357.0,590.0 L355.0,586.0 L355.0,580.0 L348.0,580.0 L343.0,577.0 L341.0,574.0 L341.0,567.0 L329.0,575.0 Z
M388.0,559.0 L388.0,560.0 L390.0,561.0 L394.0,561.0 L394.0,559.0 L392.0,557.0 Z
M1232.0,540.0 L1232.0,541.0 L1236.0,543.0 L1238.0,543.0 L1241.0,545.0 L1243.0,545.0 L1246.0,547.0 L1248.0,547.0 L1251.0,549.0 L1253.0,549.0 L1257.0,551.0 L1257.0,550.0 L1254.0,548.0 L1252.0,548.0 L1247.0,545.0 L1245.0,545.0 L1237.0,541.0 Z
M384.0,524.0 L381.0,523.0 L377.0,520.0 L372.0,519.0 L368.0,522.0 L367.0,524.0 L367.0,527.0 L366.0,528.0 L366.0,531.0 L369.0,532.0 L371.0,534.0 L373.0,534.0 L377.0,530.0 L378.0,530.0 L382.0,526.0 L383.0,526.0 Z
M580.0,568.0 L575.0,538.0 L563.0,503.0 L549.0,475.0 L531.0,449.0 L522.0,455.0 L519.0,459.0 L537.0,485.0 L540.0,491.0 L538.0,494.0 L426.0,545.0 L520.0,503.0 L542.0,495.0 L554.0,522.0 L560.0,545.0 L551.0,549.0 L495.0,565.0 L500.0,565.0 L542.0,552.0 L561.0,548.0 L564.0,559.0 L564.0,566.0 Z
M567.0,422.0 L565.0,424.0 L563.0,424.0 L547.0,437.0 L538.0,443.0 L535.0,447.0 L551.0,470.0 L566.0,499.0 L566.0,501.0 L572.0,514.0 L577.0,529.0 L577.0,532.0 L579.0,536.0 L579.0,539.0 L581.0,544.0 L581.0,548.0 L583.0,553.0 L583.0,558.0 L584.0,559.0 L585.0,568.0 L607.0,568.0 L608.0,569.0 L614.0,568.0 L615.0,569.0 L621.0,569.0 L622.0,566.0 L626.0,563.0 L626.0,560.0 L625.0,559.0 L625.0,553.0 L624.0,551.0 L620.0,550.0 L618.0,546.0 L618.0,541.0 L620.0,540.0 L622.0,537.0 L621.0,536.0 L621.0,533.0 L619.0,527.0 L613.0,525.0 L612.0,517.0 L615.0,514.0 L615.0,512.0 L612.0,503.0 L611.0,502.0 L608.0,503.0 L606.0,501.0 L604.0,494.0 L607.0,492.0 L607.0,490.0 L602.0,479.0 L598.0,480.0 L595.0,476.0 L594.0,472.0 L596.0,470.0 L596.0,466.0 L593.0,461.0 L591.0,460.0 L589.0,461.0 L585.0,457.0 L583.0,452.0 L585.0,449.0 L584.0,445.0 L581.0,441.0 L577.0,442.0 L575.0,440.0 L572.0,435.0 L572.0,433.0 L574.0,430.0 Z
M609.0,366.0 L605.0,363.0 L600.0,363.0 L346.0,562.0 L349.0,575.0 L355.0,577.0 L359.0,575.0 L607.0,382.0 L609.0,382.0 L612.0,378.0 L612.0,373.0 Z
M90.0,557.0 L86.0,601.0 L92.0,652.0 L106.0,696.0 L133.0,744.0 L149.0,764.0 L171.0,786.0 L200.0,808.0 L237.0,828.0 L258.0,836.0 L290.0,844.0 L313.0,847.0 L355.0,847.0 L378.0,844.0 L410.0,836.0 L450.0,819.0 L479.0,801.0 L498.0,786.0 L522.0,761.0 L500.0,762.0 L464.0,792.0 L443.0,769.0 L460.0,794.0 L421.0,815.0 L416.0,814.0 L403.0,773.0 L415.0,816.0 L401.0,822.0 L371.0,829.0 L363.0,827.0 L358.0,778.0 L362.0,829.0 L355.0,831.0 L313.0,831.0 L308.0,829.0 L311.0,770.0 L307.0,826.0 L305.0,830.0 L258.0,819.0 L255.0,817.0 L295.0,684.0 L303.0,674.0 L311.0,672.0 L304.0,667.0 L298.0,676.0 L297.0,668.0 L300.0,664.0 L298.0,665.0 L297.0,663.0 L300.0,661.0 L312.0,667.0 L315.0,672.0 L325.0,679.0 L324.0,681.0 L320.0,680.0 L315.0,675.0 L311.0,680.0 L311.0,686.0 L315.0,690.0 L312.0,733.0 L315.0,692.0 L325.0,692.0 L326.0,680.0 L336.0,683.0 L335.0,685.0 L329.0,684.0 L328.0,687.0 L333.0,689.0 L333.0,697.0 L340.0,700.0 L338.0,706.0 L330.0,714.0 L330.0,718.0 L325.0,721.0 L325.0,725.0 L319.0,730.0 L319.0,733.0 L314.0,737.0 L314.0,740.0 L310.0,743.0 L310.0,748.0 L301.0,752.0 L303.0,759.0 L318.0,772.0 L328.0,777.0 L364.0,774.0 L367.0,772.0 L373.0,773.0 L376.0,771.0 L383.0,772.0 L386.0,770.0 L393.0,771.0 L395.0,769.0 L413.0,769.0 L415.0,767.0 L448.0,765.0 L451.0,763.0 L468.0,763.0 L484.0,759.0 L523.0,757.0 L527.0,754.0 L575.0,751.0 L616.0,744.0 L643.0,743.0 L648.0,740.0 L656.0,741.0 L668.0,738.0 L684.0,738.0 L699.0,734.0 L706.0,735.0 L709.0,731.0 L712.0,734.0 L716.0,734.0 L717.0,731.0 L727.0,731.0 L746.0,725.0 L764.0,713.0 L774.0,702.0 L781.0,687.0 L764.0,685.0 L762.0,690.0 L756.0,694.0 L754.0,689.0 L761.0,684.0 L758.0,682.0 L759.0,680.0 L833.0,690.0 L861.0,690.0 L858.0,683.0 L859.0,675.0 L866.0,669.0 L872.0,669.0 L875.0,671.0 L874.0,673.0 L867.0,672.0 L861.0,678.0 L863.0,693.0 L847.0,693.0 L845.0,697.0 L836.0,698.0 L836.0,718.0 L916.0,718.0 L918.0,712.0 L919.0,697.0 L888.0,693.0 L885.0,697.0 L866.0,697.0 L864.0,695.0 L865.0,692.0 L883.0,692.0 L887.0,675.0 L884.0,668.0 L878.0,663.0 L716.0,639.0 L716.0,636.0 L746.0,640.0 L753.0,630.0 L761.0,627.0 L767.0,631.0 L770.0,642.0 L788.0,645.0 L787.0,631.0 L780.0,619.0 L781.0,616.0 L775.0,611.0 L774.0,605.0 L771.0,605.0 L755.0,589.0 L736.0,580.0 L716.0,577.0 L701.0,579.0 L699.0,574.0 L684.0,576.0 L681.0,574.0 L667.0,575.0 L663.0,573.0 L628.0,574.0 L625.0,572.0 L534.0,571.0 L530.0,569.0 L513.0,570.0 L510.0,568.0 L486.0,569.0 L483.0,567.0 L431.0,566.0 L428.0,564.0 L427.0,557.0 L423.0,554.0 L425.0,551.0 L422.0,545.0 L416.0,546.0 L415.0,539.0 L409.0,542.0 L410.0,549.0 L401.0,555.0 L399.0,564.0 L383.0,563.0 L377.0,568.0 L377.0,571.0 L373.0,571.0 L359.0,583.0 L361.0,587.0 L368.0,591.0 L392.0,594.0 L394.0,593.0 L392.0,589.0 L394.0,587.0 L398.0,594.0 L407.0,595.0 L409.0,592.0 L405.0,586.0 L409.0,584.0 L420.0,590.0 L417.0,596.0 L428.0,598.0 L430.0,590.0 L437.0,591.0 L441.0,588.0 L459.0,601.0 L473.0,604.0 L445.0,585.0 L442.0,585.0 L440.0,580.0 L434.0,578.0 L432.0,572.0 L459.0,571.0 L461.0,573.0 L478.0,572.0 L482.0,574.0 L486.0,572.0 L489.0,574.0 L505.0,573.0 L509.0,575.0 L535.0,574.0 L538.0,576.0 L564.0,575.0 L567.0,577.0 L573.0,575.0 L576.0,577.0 L593.0,576.0 L596.0,578.0 L610.0,576.0 L612.0,578.0 L688.0,580.0 L688.0,583.0 L673.0,589.0 L661.0,598.0 L649.0,613.0 L638.0,639.0 L638.0,654.0 L636.0,657.0 L641.0,680.0 L653.0,702.0 L662.0,712.0 L675.0,721.0 L690.0,727.0 L692.0,730.0 L689.0,732.0 L663.0,733.0 L638.0,738.0 L631.0,737.0 L628.0,739.0 L599.0,741.0 L597.0,743.0 L590.0,742.0 L587.0,744.0 L554.0,746.0 L528.0,751.0 L490.0,753.0 L463.0,758.0 L446.0,758.0 L429.0,762.0 L421.0,761.0 L418.0,763.0 L411.0,762.0 L408.0,764.0 L391.0,764.0 L388.0,766.0 L381.0,765.0 L378.0,767.0 L348.0,770.0 L349.0,765.0 L353.0,763.0 L352.0,758.0 L355.0,755.0 L353.0,750.0 L355.0,747.0 L357.0,748.0 L355.0,726.0 L354.0,745.0 L351.0,744.0 L351.0,740.0 L345.0,734.0 L363.0,704.0 L371.0,695.0 L372.0,680.0 L369.0,673.0 L360.0,663.0 L349.0,657.0 L330.0,651.0 L320.0,645.0 L320.0,650.0 L310.0,646.0 L309.0,643.0 L313.0,639.0 L326.0,642.0 L330.0,637.0 L328.0,630.0 L316.0,622.0 L300.0,623.0 L292.0,630.0 L290.0,641.0 L282.0,655.0 L291.0,664.0 L282.0,662.0 L280.0,657.0 L275.0,654.0 L275.0,650.0 L277.0,648.0 L280.0,649.0 L284.0,642.0 L276.0,630.0 L280.0,630.0 L286.0,638.0 L289.0,625.0 L291.0,626.0 L298.0,619.0 L313.0,618.0 L315.0,613.0 L312.0,608.0 L312.0,598.0 L322.0,575.0 L335.0,562.0 L357.0,546.0 L353.0,545.0 L353.0,542.0 L361.0,543.0 L368.0,537.0 L363.0,535.0 L361.0,530.0 L352.0,531.0 L348.0,525.0 L351.0,525.0 L353.0,517.0 L419.0,385.0 L451.0,400.0 L464.0,408.0 L466.0,412.0 L407.0,508.0 L413.0,502.0 L469.0,412.0 L497.0,435.0 L510.0,426.0 L491.0,408.0 L457.0,385.0 L420.0,368.0 L380.0,357.0 L348.0,353.0 L317.0,353.0 L280.0,358.0 L236.0,372.0 L195.0,394.0 L168.0,415.0 L149.0,434.0 L129.0,460.0 L106.0,503.0 Z
M321.0,758.0 L322.0,757.0 L325.0,757.0 L329.0,761.0 L335.0,761.0 L337.0,765.0 L335.0,767.0 L330.0,767.0 L326.0,765.0 L321.0,760.0 Z
M341.0,755.0 L345.0,755.0 L346.0,756.0 L346.0,758.0 L343.0,762.0 L342.0,762.0 L340.0,759.0 L340.0,756.0 Z
M330.0,752.0 L332.0,750.0 L334.0,750.0 L336.0,752.0 L336.0,754.0 L334.0,756.0 L332.0,756.0 L330.0,754.0 Z
M340.0,744.0 L342.0,743.0 L345.0,746.0 L345.0,748.0 L344.0,749.0 L341.0,749.0 L339.0,747.0 Z
M331.0,742.0 L330.0,745.0 L328.0,746.0 L324.0,750.0 L321.0,750.0 L320.0,749.0 L321.0,746.0 L325.0,742.0 L327.0,741.0 L330.0,741.0 Z
M701.0,731.0 L703.0,730.0 L704.0,732.0 L702.0,733.0 Z
M695.0,730.0 L697.0,729.0 L698.0,731.0 L696.0,732.0 Z
M339.0,715.0 L340.0,717.0 L334.0,729.0 L334.0,731.0 L330.0,733.0 L327.0,733.0 L326.0,731.0 L329.0,728.0 L329.0,727.0 L334.0,721.0 L334.0,720.0 L337.0,717.0 L337.0,716.0 Z
M348.0,706.0 L349.0,707.0 L349.0,712.0 L347.0,716.0 L345.0,717.0 L344.0,716.0 L344.0,714.0 L346.0,710.0 L346.0,707.0 Z
M888.0,706.0 L889.0,705.0 L903.0,705.0 L904.0,706.0 L904.0,709.0 L903.0,710.0 L889.0,710.0 L888.0,709.0 Z
M848.0,706.0 L849.0,705.0 L864.0,705.0 L865.0,706.0 L865.0,708.0 L863.0,710.0 L850.0,710.0 L848.0,708.0 Z
M692.0,709.0 L696.0,705.0 L699.0,705.0 L702.0,708.0 L703.0,710.0 L703.0,713.0 L702.0,714.0 L700.0,714.0 L699.0,713.0 L696.0,713.0 L694.0,712.0 L692.0,710.0 Z
M345.0,696.0 L347.0,695.0 L348.0,697.0 L346.0,698.0 Z
M339.0,694.0 L340.0,693.0 L342.0,693.0 L343.0,694.0 L343.0,696.0 L341.0,697.0 L339.0,695.0 Z
M290.0,690.0 L291.0,691.0 L291.0,693.0 L290.0,694.0 L290.0,697.0 L288.0,701.0 L288.0,704.0 L287.0,705.0 L287.0,707.0 L285.0,711.0 L285.0,714.0 L283.0,718.0 L283.0,721.0 L281.0,725.0 L281.0,728.0 L280.0,729.0 L280.0,731.0 L278.0,735.0 L278.0,738.0 L277.0,739.0 L277.0,741.0 L275.0,745.0 L275.0,748.0 L274.0,749.0 L274.0,751.0 L273.0,752.0 L273.0,754.0 L272.0,755.0 L272.0,757.0 L270.0,761.0 L270.0,764.0 L269.0,765.0 L269.0,767.0 L268.0,768.0 L268.0,770.0 L266.0,774.0 L266.0,777.0 L265.0,778.0 L265.0,780.0 L264.0,781.0 L264.0,783.0 L263.0,784.0 L263.0,786.0 L262.0,787.0 L262.0,789.0 L260.0,793.0 L260.0,796.0 L259.0,797.0 L259.0,799.0 L258.0,800.0 L258.0,802.0 L257.0,803.0 L257.0,805.0 L256.0,806.0 L256.0,808.0 L255.0,809.0 L255.0,811.0 L252.0,816.0 L250.0,816.0 L247.0,814.0 L245.0,814.0 L242.0,812.0 L240.0,812.0 L222.0,803.0 L220.0,801.0 L212.0,797.0 L210.0,795.0 L210.0,793.0 L214.0,788.0 L216.0,784.0 L219.0,781.0 L219.0,780.0 L222.0,777.0 L222.0,776.0 L225.0,773.0 L225.0,772.0 L228.0,769.0 L228.0,768.0 L232.0,764.0 L232.0,763.0 L235.0,760.0 L235.0,759.0 L238.0,756.0 L238.0,755.0 L241.0,752.0 L241.0,751.0 L249.0,742.0 L249.0,741.0 L252.0,738.0 L252.0,737.0 L255.0,734.0 L255.0,733.0 L263.0,724.0 L263.0,723.0 L266.0,720.0 L266.0,719.0 L269.0,716.0 L269.0,715.0 L272.0,712.0 L272.0,711.0 L280.0,702.0 L280.0,701.0 L283.0,698.0 L283.0,697.0 L287.0,693.0 L287.0,692.0 L289.0,690.0 Z
M365.0,684.0 L366.0,685.0 L365.0,688.0 L362.0,691.0 L361.0,691.0 L360.0,690.0 L360.0,688.0 L363.0,684.0 Z
M748.0,694.0 L748.0,701.0 L742.0,706.0 L734.0,710.0 L732.0,710.0 L728.0,712.0 L725.0,712.0 L724.0,713.0 L713.0,713.0 L709.0,709.0 L708.0,704.0 L709.0,703.0 L709.0,701.0 L712.0,696.0 L712.0,694.0 L714.0,690.0 L718.0,686.0 L722.0,684.0 L725.0,684.0 L726.0,683.0 L732.0,683.0 L738.0,686.0 L743.0,690.0 L744.0,690.0 Z
M752.0,680.0 L753.0,679.0 L756.0,679.0 L757.0,681.0 L756.0,682.0 L753.0,682.0 Z
M746.0,679.0 L747.0,678.0 L749.0,678.0 L750.0,680.0 L749.0,681.0 L747.0,681.0 Z
M877.0,678.0 L879.0,677.0 L880.0,678.0 L880.0,680.0 L878.0,681.0 L877.0,680.0 Z
M740.0,678.0 L742.0,677.0 L743.0,679.0 L741.0,680.0 Z
M732.0,677.0 L733.0,676.0 L735.0,676.0 L736.0,678.0 L735.0,679.0 L733.0,679.0 Z
M724.0,676.0 L725.0,675.0 L727.0,675.0 L728.0,677.0 L727.0,678.0 L725.0,678.0 Z
M718.0,675.0 L720.0,674.0 L721.0,676.0 L719.0,677.0 Z
M875.0,674.0 L877.0,673.0 L879.0,675.0 L879.0,676.0 L877.0,677.0 L875.0,675.0 Z
M710.0,674.0 L711.0,673.0 L713.0,673.0 L714.0,675.0 L713.0,676.0 L711.0,676.0 Z
M355.0,670.0 L357.0,669.0 L358.0,671.0 L356.0,672.0 Z
M663.0,667.0 L665.0,666.0 L671.0,666.0 L672.0,667.0 L676.0,667.0 L677.0,668.0 L680.0,668.0 L684.0,670.0 L690.0,676.0 L692.0,680.0 L692.0,698.0 L689.0,702.0 L685.0,704.0 L681.0,704.0 L679.0,702.0 L678.0,702.0 L667.0,691.0 L667.0,690.0 L664.0,687.0 L659.0,677.0 L659.0,671.0 Z
M710.0,666.0 L712.0,665.0 L713.0,667.0 L711.0,668.0 Z
M296.0,668.0 L297.0,670.0 L296.0,671.0 L296.0,675.0 L295.0,676.0 L293.0,684.0 L279.0,700.0 L273.0,709.0 L246.0,742.0 L240.0,751.0 L236.0,755.0 L233.0,760.0 L229.0,764.0 L220.0,777.0 L207.0,793.0 L200.0,789.0 L188.0,779.0 L187.0,779.0 L166.0,759.0 L166.0,758.0 L175.0,749.0 L176.0,749.0 L185.0,740.0 L186.0,740.0 L197.0,729.0 L198.0,729.0 L232.0,698.0 L233.0,698.0 L273.0,663.0 L274.0,663.0 L281.0,669.0 L283.0,668.0 Z
M696.0,660.0 L698.0,661.0 L698.0,663.0 L699.0,665.0 L705.0,671.0 L707.0,672.0 L706.0,674.0 L703.0,673.0 L697.0,667.0 L695.0,663.0 L695.0,661.0 Z
M331.0,655.0 L332.0,655.0 L336.0,660.0 L339.0,661.0 L342.0,664.0 L342.0,665.0 L346.0,670.0 L347.0,672.0 L347.0,677.0 L346.0,678.0 L344.0,677.0 L344.0,675.0 L341.0,669.0 L336.0,664.0 L334.0,663.0 L329.0,664.0 L328.0,663.0 L328.0,661.0 Z
M655.0,652.0 L658.0,652.0 L661.0,655.0 L661.0,660.0 L658.0,663.0 L656.0,663.0 L654.0,661.0 L654.0,653.0 Z
M708.0,644.0 L710.0,644.0 L711.0,643.0 L719.0,643.0 L721.0,644.0 L725.0,648.0 L727.0,652.0 L727.0,660.0 L726.0,662.0 L722.0,666.0 L718.0,668.0 L716.0,667.0 L716.0,666.0 L720.0,664.0 L723.0,661.0 L724.0,659.0 L724.0,652.0 L723.0,650.0 L721.0,648.0 L717.0,646.0 L713.0,646.0 L712.0,647.0 L710.0,647.0 L706.0,651.0 L705.0,653.0 L705.0,659.0 L706.0,661.0 L709.0,664.0 L709.0,665.0 L707.0,666.0 L703.0,662.0 L702.0,660.0 L702.0,651.0 L703.0,649.0 Z
M701.0,642.0 L702.0,644.0 L699.0,647.0 L698.0,649.0 L698.0,651.0 L697.0,652.0 L697.0,659.0 L695.0,660.0 L694.0,659.0 L694.0,652.0 L695.0,651.0 L695.0,649.0 L697.0,645.0 L700.0,642.0 Z
M712.0,637.0 L711.0,639.0 L706.0,640.0 L703.0,643.0 L701.0,642.0 L701.0,641.0 L704.0,638.0 L706.0,637.0 L708.0,637.0 L709.0,636.0 L711.0,636.0 Z
M261.0,620.0 L263.0,622.0 L263.0,626.0 L261.0,628.0 L262.0,631.0 L265.0,631.0 L268.0,634.0 L268.0,638.0 L267.0,640.0 L268.0,641.0 L271.0,641.0 L273.0,643.0 L273.0,645.0 L269.0,650.0 L269.0,655.0 L272.0,660.0 L272.0,663.0 L239.0,690.0 L165.0,756.0 L163.0,756.0 L143.0,731.0 L137.0,722.0 L134.0,715.0 L143.0,707.0 L243.0,632.0 L257.0,620.0 Z
M284.0,617.0 L286.0,616.0 L287.0,618.0 L285.0,619.0 Z
M755.0,613.0 L756.0,613.0 L759.0,616.0 L760.0,619.0 L757.0,622.0 L755.0,622.0 L752.0,619.0 L752.0,616.0 Z
M271.0,613.0 L272.0,613.0 L275.0,616.0 L275.0,618.0 L274.0,619.0 L278.0,623.0 L278.0,628.0 L277.0,629.0 L275.0,628.0 L275.0,627.0 L273.0,625.0 L271.0,621.0 L271.0,618.0 L270.0,617.0 L270.0,614.0 Z
M131.0,711.0 L123.0,696.0 L112.0,667.0 L112.0,663.0 L114.0,661.0 L161.0,643.0 L111.0,660.0 L108.0,652.0 L104.0,630.0 L104.0,622.0 L103.0,621.0 L103.0,608.0 L104.0,607.0 L160.0,610.0 L161.0,611.0 L187.0,612.0 L188.0,613.0 L226.0,615.0 L227.0,616.0 L226.0,618.0 L216.0,622.0 L232.0,616.0 L253.0,617.0 L255.0,619.0 L251.0,624.0 L141.0,707.0 L134.0,712.0 Z
M682.0,606.0 L686.0,608.0 L689.0,611.0 L690.0,613.0 L690.0,617.0 L691.0,618.0 L691.0,630.0 L686.0,640.0 L682.0,644.0 L680.0,645.0 L678.0,645.0 L675.0,647.0 L672.0,647.0 L671.0,648.0 L668.0,648.0 L667.0,649.0 L665.0,649.0 L661.0,647.0 L657.0,643.0 L657.0,637.0 L658.0,636.0 L658.0,634.0 L660.0,631.0 L660.0,629.0 L662.0,625.0 L664.0,623.0 L666.0,619.0 L676.0,609.0 Z
M662.0,642.0 L666.0,645.0 L667.0,644.0 L669.0,644.0 L670.0,643.0 L672.0,643.0 L673.0,642.0 L678.0,641.0 L680.0,639.0 L681.0,639.0 L681.0,638.0 L685.0,633.0 L684.0,632.0 L676.0,632.0 L675.0,631.0 L669.0,631.0 L667.0,630.0 L664.0,635.0 L664.0,637.0 L663.0,638.0 L663.0,641.0 Z
M281.0,606.0 L283.0,605.0 L284.0,607.0 L282.0,608.0 Z
M270.0,601.0 L271.0,601.0 L274.0,605.0 L274.0,607.0 L271.0,611.0 L269.0,610.0 L269.0,602.0 Z
M302.0,600.0 L304.0,599.0 L305.0,601.0 L303.0,602.0 Z
M292.0,599.0 L294.0,598.0 L295.0,600.0 L293.0,601.0 Z
M690.0,600.0 L692.0,598.0 L694.0,598.0 L695.0,597.0 L699.0,597.0 L700.0,598.0 L700.0,601.0 L697.0,605.0 L693.0,605.0 L690.0,602.0 Z
M707.0,599.0 L710.0,596.0 L712.0,595.0 L718.0,595.0 L719.0,596.0 L724.0,596.0 L725.0,597.0 L728.0,597.0 L729.0,598.0 L732.0,598.0 L733.0,599.0 L735.0,599.0 L741.0,602.0 L746.0,606.0 L746.0,614.0 L742.0,618.0 L734.0,622.0 L730.0,625.0 L722.0,625.0 L721.0,624.0 L718.0,624.0 L716.0,623.0 L712.0,619.0 L711.0,616.0 L709.0,614.0 L707.0,610.0 L707.0,608.0 L706.0,607.0 L706.0,602.0 L707.0,601.0 Z
M711.0,601.0 L710.0,603.0 L710.0,606.0 L712.0,609.0 L712.0,611.0 L714.0,615.0 L718.0,619.0 L722.0,619.0 L724.0,620.0 L724.0,617.0 L723.0,616.0 L722.0,611.0 L720.0,608.0 L720.0,606.0 L719.0,605.0 L719.0,602.0 L718.0,601.0 Z
M282.0,592.0 L284.0,591.0 L285.0,592.0 L285.0,594.0 L283.0,595.0 L282.0,594.0 Z
M272.0,588.0 L274.0,591.0 L274.0,595.0 L271.0,598.0 L270.0,598.0 L269.0,597.0 L269.0,591.0 L270.0,589.0 Z
M404.0,579.0 L406.0,578.0 L408.0,582.0 L407.0,583.0 L405.0,583.0 L404.0,582.0 Z
M391.0,578.0 L393.0,578.0 L394.0,579.0 L394.0,581.0 L395.0,582.0 L395.0,585.0 L394.0,586.0 L393.0,586.0 L390.0,582.0 L390.0,579.0 Z
M694.0,577.0 L695.0,578.0 L695.0,580.0 L691.0,582.0 L690.0,580.0 L692.0,579.0 L693.0,577.0 Z
M402.0,575.0 L404.0,574.0 L405.0,575.0 L405.0,577.0 L403.0,578.0 L402.0,577.0 Z
M399.0,570.0 L401.0,569.0 L402.0,571.0 L400.0,572.0 Z
M386.0,569.0 L389.0,569.0 L390.0,570.0 L390.0,573.0 L391.0,574.0 L391.0,576.0 L390.0,577.0 L389.0,577.0 L387.0,575.0 L385.0,571.0 Z
M298.0,564.0 L300.0,563.0 L301.0,565.0 L299.0,566.0 Z
M285.0,560.0 L286.0,561.0 L285.0,563.0 L286.0,565.0 L285.0,567.0 L280.0,572.0 L278.0,576.0 L278.0,578.0 L277.0,579.0 L277.0,583.0 L275.0,584.0 L274.0,586.0 L273.0,586.0 L272.0,585.0 L272.0,580.0 L274.0,576.0 L277.0,573.0 L277.0,571.0 L278.0,570.0 L278.0,568.0 L279.0,566.0 L282.0,563.0 L282.0,562.0 L284.0,560.0 Z
M305.0,560.0 L305.0,559.0 L308.0,557.0 L310.0,558.0 L310.0,559.0 L307.0,561.0 Z
M316.0,554.0 L317.0,553.0 L319.0,553.0 L320.0,555.0 L319.0,556.0 L317.0,556.0 Z
M293.0,552.0 L294.0,553.0 L294.0,555.0 L293.0,557.0 L289.0,561.0 L287.0,561.0 L286.0,560.0 L287.0,557.0 L292.0,552.0 Z
M308.0,545.0 L308.0,546.0 L302.0,551.0 L300.0,552.0 L298.0,551.0 L298.0,548.0 L300.0,546.0 L304.0,544.0 L307.0,544.0 Z
M311.0,544.0 L311.0,542.0 L314.0,540.0 L318.0,540.0 L319.0,541.0 L319.0,543.0 L316.0,545.0 L312.0,545.0 Z
M343.0,539.0 L344.0,538.0 L349.0,539.0 L351.0,541.0 L351.0,542.0 L350.0,543.0 L347.0,543.0 L345.0,542.0 L343.0,540.0 Z
M333.0,538.0 L334.0,537.0 L337.0,537.0 L339.0,539.0 L340.0,539.0 L341.0,541.0 L340.0,542.0 L336.0,542.0 L333.0,539.0 Z
M323.0,541.0 L324.0,539.0 L328.0,537.0 L332.0,537.0 L333.0,538.0 L333.0,539.0 L330.0,542.0 L324.0,542.0 Z
M125.0,499.0 L127.0,497.0 L132.0,498.0 L199.0,527.0 L271.0,555.0 L273.0,560.0 L271.0,563.0 L266.0,564.0 L267.0,572.0 L260.0,577.0 L263.0,583.0 L262.0,587.0 L257.0,591.0 L257.0,594.0 L260.0,596.0 L260.0,601.0 L256.0,606.0 L261.0,611.0 L260.0,615.0 L257.0,617.0 L242.0,614.0 L253.0,608.0 L235.0,614.0 L104.0,605.0 L103.0,579.0 L107.0,553.0 L109.0,550.0 L163.0,564.0 L253.0,592.0 L190.0,571.0 L110.0,548.0 L109.0,544.0 Z
M189.0,418.0 L190.0,418.0 L192.0,420.0 L192.0,421.0 L198.0,429.0 L199.0,432.0 L201.0,434.0 L204.0,440.0 L210.0,448.0 L211.0,451.0 L213.0,453.0 L214.0,456.0 L218.0,461.0 L219.0,464.0 L221.0,466.0 L221.0,467.0 L223.0,469.0 L223.0,470.0 L231.0,481.0 L235.0,489.0 L241.0,497.0 L245.0,505.0 L247.0,507.0 L250.0,513.0 L252.0,515.0 L253.0,517.0 L252.0,519.0 L249.0,518.0 L243.0,513.0 L239.0,511.0 L236.0,508.0 L235.0,508.0 L233.0,506.0 L232.0,506.0 L230.0,504.0 L229.0,504.0 L227.0,502.0 L223.0,500.0 L220.0,497.0 L219.0,497.0 L217.0,495.0 L216.0,495.0 L214.0,493.0 L213.0,493.0 L211.0,491.0 L210.0,491.0 L208.0,489.0 L207.0,489.0 L205.0,487.0 L204.0,487.0 L202.0,485.0 L198.0,483.0 L195.0,480.0 L191.0,478.0 L188.0,475.0 L187.0,475.0 L185.0,473.0 L181.0,471.0 L178.0,468.0 L174.0,466.0 L171.0,463.0 L167.0,461.0 L164.0,458.0 L163.0,458.0 L160.0,455.0 L159.0,455.0 L155.0,452.0 L155.0,451.0 L159.0,447.0 L159.0,446.0 L182.0,423.0 L183.0,423.0 Z
M234.0,390.0 L237.0,391.0 L290.0,537.0 L290.0,542.0 L288.0,544.0 L284.0,542.0 L281.0,545.0 L282.0,549.0 L279.0,552.0 L274.0,552.0 L272.0,554.0 L170.0,513.0 L128.0,494.0 L145.0,464.0 L151.0,456.0 L155.0,454.0 L256.0,524.0 L273.0,550.0 L274.0,549.0 L262.0,530.0 L264.0,529.0 L281.0,540.0 L258.0,524.0 L192.0,417.0 L202.0,408.0 Z
M285.0,373.0 L287.0,373.0 L289.0,376.0 L289.0,379.0 L292.0,386.0 L294.0,396.0 L297.0,403.0 L297.0,406.0 L300.0,413.0 L302.0,423.0 L305.0,430.0 L305.0,433.0 L307.0,437.0 L309.0,447.0 L316.0,468.0 L317.0,475.0 L324.0,495.0 L325.0,502.0 L328.0,509.0 L328.0,512.0 L331.0,521.0 L333.0,523.0 L328.0,529.0 L325.0,529.0 L322.0,526.0 L320.0,526.0 L316.0,531.0 L309.0,529.0 L309.0,532.0 L307.0,534.0 L303.0,534.0 L300.0,532.0 L299.0,533.0 L299.0,536.0 L296.0,539.0 L293.0,539.0 L290.0,536.0 L290.0,533.0 L288.0,530.0 L276.0,492.0 L274.0,489.0 L271.0,478.0 L269.0,475.0 L259.0,445.0 L252.0,429.0 L250.0,421.0 L248.0,418.0 L247.0,413.0 L245.0,410.0 L244.0,405.0 L242.0,402.0 L238.0,390.0 L239.0,388.0 L253.0,382.0 L262.0,379.0 L265.0,379.0 L272.0,376.0 L284.0,374.0 Z
M415.0,383.0 L416.0,384.0 L416.0,387.0 L403.0,413.0 L403.0,415.0 L384.0,453.0 L382.0,455.0 L378.0,463.0 L378.0,465.0 L376.0,469.0 L374.0,471.0 L362.0,495.0 L362.0,497.0 L359.0,503.0 L357.0,505.0 L357.0,507.0 L353.0,515.0 L351.0,516.0 L350.0,515.0 L349.0,481.0 L348.0,480.0 L348.0,471.0 L347.0,469.0 L348.0,468.0 L348.0,463.0 L349.0,462.0 L349.0,458.0 L350.0,457.0 L350.0,453.0 L351.0,452.0 L351.0,448.0 L352.0,447.0 L352.0,443.0 L353.0,442.0 L354.0,432.0 L355.0,431.0 L355.0,428.0 L356.0,427.0 L357.0,416.0 L358.0,415.0 L358.0,411.0 L359.0,410.0 L359.0,406.0 L360.0,405.0 L360.0,401.0 L361.0,400.0 L362.0,390.0 L363.0,389.0 L363.0,385.0 L364.0,384.0 L364.0,380.0 L365.0,379.0 L365.0,375.0 L366.0,374.0 L366.0,372.0 L367.0,371.0 L369.0,371.0 L370.0,372.0 L381.0,373.0 L382.0,374.0 L393.0,376.0 L397.0,378.0 L400.0,378.0 L401.0,379.0 Z
M291.0,372.0 L303.0,371.0 L304.0,370.0 L312.0,370.0 L313.0,369.0 L344.0,369.0 L345.0,372.0 L346.0,372.0 L347.0,369.0 L363.0,370.0 L364.0,371.0 L364.0,376.0 L363.0,377.0 L363.0,382.0 L361.0,388.0 L361.0,393.0 L360.0,394.0 L360.0,398.0 L359.0,399.0 L359.0,403.0 L358.0,404.0 L358.0,408.0 L357.0,409.0 L357.0,413.0 L355.0,419.0 L355.0,424.0 L354.0,425.0 L354.0,429.0 L353.0,430.0 L353.0,434.0 L352.0,435.0 L352.0,439.0 L351.0,440.0 L351.0,444.0 L350.0,445.0 L350.0,449.0 L349.0,450.0 L349.0,454.0 L347.0,460.0 L349.0,522.0 L348.0,525.0 L345.0,526.0 L343.0,529.0 L338.0,529.0 L333.0,523.0 L333.0,520.0 L331.0,517.0 L331.0,514.0 L325.0,496.0 L324.0,489.0 L321.0,482.0 L321.0,479.0 L318.0,472.0 L316.0,462.0 L313.0,455.0 L313.0,452.0 L310.0,445.0 L308.0,435.0 L305.0,428.0 L305.0,425.0 L301.0,414.0 L299.0,404.0 L293.0,387.0 L293.0,384.0 L290.0,375.0 Z
M1311.0,307.0 L1309.0,312.0 L1297.0,313.0 L1294.0,309.0 L1284.0,311.0 L1283.0,316.0 L1277.0,317.0 L1275.0,313.0 L1264.0,315.0 L1261.0,321.0 L1253.0,323.0 L1249.0,319.0 L1240.0,322.0 L1246.0,364.0 L1271.0,356.0 L1301.0,350.0 L1343.0,348.0 L1387.0,353.0 L1437.0,369.0 L1478.0,392.0 L1502.0,411.0 L1523.0,432.0 L1551.0,471.0 L1567.0,504.0 L1579.0,540.0 L1586.0,583.0 L1586.0,618.0 L1581.0,651.0 L1569.0,691.0 L1553.0,724.0 L1533.0,754.0 L1512.0,778.0 L1478.0,807.0 L1450.0,824.0 L1428.0,834.0 L1402.0,843.0 L1369.0,850.0 L1317.0,852.0 L1292.0,849.0 L1262.0,842.0 L1234.0,832.0 L1208.0,819.0 L1166.0,789.0 L1133.0,754.0 L1111.0,721.0 L1089.0,669.0 L1080.0,623.0 L1080.0,579.0 L1089.0,532.0 L1100.0,501.0 L1114.0,473.0 L1131.0,447.0 L1149.0,426.0 L1167.0,409.0 L1185.0,396.0 L1181.0,384.0 L1185.0,375.0 L1177.0,356.0 L1174.0,358.0 L1168.0,356.0 L1160.0,361.0 L1160.0,367.0 L1155.0,371.0 L1149.0,369.0 L1141.0,376.0 L1143.0,381.0 L1137.0,387.0 L1131.0,385.0 L1124.0,392.0 L1125.0,398.0 L1119.0,404.0 L1114.0,402.0 L1107.0,410.0 L1109.0,416.0 L1104.0,422.0 L1099.0,421.0 L1092.0,430.0 L1094.0,435.0 L1089.0,442.0 L1085.0,441.0 L1081.0,446.0 L1083.0,452.0 L1079.0,460.0 L1072.0,462.0 L1069.0,468.0 L1072.0,474.0 L1068.0,480.0 L1063.0,481.0 L1059.0,491.0 L1062.0,494.0 L1059.0,503.0 L1055.0,502.0 L1051.0,513.0 L1055.0,517.0 L1053.0,525.0 L1047.0,527.0 L1045.0,538.0 L1049.0,543.0 L1048.0,548.0 L1043.0,550.0 L1040.0,561.0 L1045.0,564.0 L1045.0,570.0 L1043.0,574.0 L1039.0,574.0 L1038.0,586.0 L1043.0,588.0 L1043.0,595.0 L1038.0,598.0 L1038.0,607.0 L1043.0,610.0 L1043.0,617.0 L1039.0,619.0 L1039.0,630.0 L1045.0,633.0 L1046.0,641.0 L1041.0,645.0 L1044.0,657.0 L1049.0,658.0 L1050.0,666.0 L1046.0,669.0 L1049.0,680.0 L1056.0,683.0 L1057.0,690.0 L1054.0,695.0 L1057.0,704.0 L1062.0,704.0 L1065.0,709.0 L1062.0,715.0 L1065.0,720.0 L1069.0,719.0 L1073.0,729.0 L1070.0,733.0 L1075.0,742.0 L1082.0,744.0 L1084.0,748.0 L1082.0,755.0 L1089.0,765.0 L1093.0,763.0 L1099.0,770.0 L1096.0,775.0 L1103.0,784.0 L1108.0,783.0 L1112.0,787.0 L1111.0,793.0 L1117.0,799.0 L1121.0,797.0 L1127.0,803.0 L1126.0,809.0 L1133.0,816.0 L1138.0,814.0 L1145.0,820.0 L1143.0,824.0 L1152.0,832.0 L1155.0,830.0 L1161.0,832.0 L1164.0,835.0 L1163.0,840.0 L1167.0,843.0 L1180.0,845.0 L1180.0,851.0 L1190.0,856.0 L1193.0,854.0 L1198.0,855.0 L1200.0,862.0 L1206.0,865.0 L1218.0,864.0 L1218.0,869.0 L1228.0,874.0 L1233.0,870.0 L1241.0,874.0 L1240.0,877.0 L1252.0,882.0 L1255.0,878.0 L1267.0,881.0 L1268.0,886.0 L1287.0,889.0 L1291.0,885.0 L1297.0,886.0 L1302.0,892.0 L1308.0,893.0 L1315.0,892.0 L1316.0,889.0 L1335.0,889.0 L1336.0,893.0 L1344.0,894.0 L1351.0,893.0 L1353.0,888.0 L1363.0,887.0 L1366.0,892.0 L1376.0,891.0 L1380.0,885.0 L1388.0,883.0 L1393.0,888.0 L1402.0,886.0 L1407.0,879.0 L1415.0,877.0 L1419.0,881.0 L1430.0,877.0 L1430.0,873.0 L1437.0,869.0 L1442.0,873.0 L1453.0,868.0 L1453.0,864.0 L1459.0,860.0 L1469.0,861.0 L1475.0,857.0 L1476.0,851.0 L1482.0,848.0 L1488.0,850.0 L1500.0,841.0 L1498.0,838.0 L1508.0,831.0 L1511.0,834.0 L1522.0,825.0 L1521.0,820.0 L1526.0,815.0 L1530.0,817.0 L1540.0,809.0 L1539.0,803.0 L1544.0,798.0 L1548.0,800.0 L1555.0,793.0 L1554.0,787.0 L1558.0,783.0 L1562.0,784.0 L1569.0,776.0 L1567.0,770.0 L1572.0,764.0 L1577.0,764.0 L1584.0,754.0 L1581.0,749.0 L1586.0,742.0 L1591.0,742.0 L1596.0,732.0 L1593.0,728.0 L1596.0,720.0 L1603.0,718.0 L1603.0,706.0 L1610.0,702.0 L1612.0,692.0 L1609.0,690.0 L1611.0,681.0 L1618.0,677.0 L1620.0,665.0 L1617.0,662.0 L1618.0,654.0 L1623.0,652.0 L1625.0,640.0 L1621.0,637.0 L1623.0,631.0 L1622.0,622.0 L1627.0,618.0 L1627.0,603.0 L1623.0,601.0 L1623.0,591.0 L1628.0,589.0 L1627.0,577.0 L1622.0,575.0 L1621.0,566.0 L1626.0,563.0 L1624.0,551.0 L1618.0,549.0 L1617.0,543.0 L1622.0,538.0 L1619.0,527.0 L1613.0,525.0 L1611.0,517.0 L1615.0,513.0 L1612.0,503.0 L1607.0,502.0 L1604.0,497.0 L1605.0,485.0 L1602.0,479.0 L1597.0,479.0 L1594.0,474.0 L1594.0,462.0 L1592.0,460.0 L1588.0,461.0 L1583.0,451.0 L1586.0,448.0 L1579.0,438.0 L1575.0,439.0 L1573.0,437.0 L1571.0,425.0 L1567.0,421.0 L1563.0,422.0 L1558.0,417.0 L1560.0,411.0 L1553.0,403.0 L1547.0,404.0 L1542.0,398.0 L1544.0,393.0 L1537.0,386.0 L1531.0,387.0 L1525.0,382.0 L1526.0,377.0 L1523.0,374.0 L1517.0,375.0 L1511.0,370.0 L1512.0,365.0 L1503.0,358.0 L1498.0,360.0 L1490.0,355.0 L1490.0,351.0 L1481.0,349.0 L1476.0,341.0 L1466.0,336.0 L1463.0,339.0 L1455.0,337.0 L1447.0,329.0 L1439.0,330.0 L1439.0,325.0 L1426.0,321.0 L1424.0,324.0 L1412.0,321.0 L1409.0,315.0 L1397.0,313.0 L1395.0,317.0 L1389.0,316.0 L1388.0,311.0 L1375.0,309.0 L1373.0,313.0 L1363.0,312.0 L1361.0,307.0 L1348.0,306.0 L1345.0,311.0 L1331.0,311.0 L1329.0,306.0 Z
M316.0,307.0 L313.0,312.0 L307.0,312.0 L304.0,308.0 L293.0,309.0 L292.0,313.0 L287.0,315.0 L281.0,315.0 L279.0,312.0 L269.0,313.0 L265.0,315.0 L264.0,319.0 L254.0,322.0 L250.0,318.0 L238.0,322.0 L236.0,328.0 L227.0,330.0 L224.0,327.0 L212.0,333.0 L213.0,337.0 L203.0,342.0 L197.0,339.0 L184.0,347.0 L185.0,351.0 L175.0,358.0 L171.0,355.0 L162.0,361.0 L162.0,367.0 L157.0,371.0 L151.0,369.0 L142.0,377.0 L144.0,380.0 L142.0,384.0 L138.0,387.0 L133.0,385.0 L125.0,393.0 L127.0,398.0 L122.0,403.0 L117.0,401.0 L108.0,411.0 L111.0,416.0 L105.0,423.0 L99.0,422.0 L93.0,431.0 L96.0,434.0 L91.0,442.0 L85.0,443.0 L83.0,447.0 L84.0,452.0 L81.0,454.0 L81.0,461.0 L73.0,464.0 L71.0,468.0 L73.0,477.0 L70.0,480.0 L66.0,480.0 L62.0,490.0 L65.0,494.0 L63.0,501.0 L57.0,503.0 L54.0,511.0 L57.0,520.0 L56.0,524.0 L49.0,528.0 L47.0,538.0 L51.0,541.0 L49.0,550.0 L45.0,550.0 L43.0,559.0 L47.0,564.0 L47.0,573.0 L42.0,574.0 L41.0,586.0 L45.0,588.0 L45.0,595.0 L41.0,598.0 L41.0,608.0 L46.0,610.0 L46.0,617.0 L41.0,622.0 L42.0,631.0 L48.0,635.0 L48.0,642.0 L44.0,644.0 L45.0,654.0 L52.0,659.0 L53.0,666.0 L49.0,669.0 L52.0,680.0 L57.0,681.0 L60.0,690.0 L57.0,692.0 L57.0,697.0 L60.0,704.0 L65.0,705.0 L67.0,708.0 L66.0,718.0 L73.0,721.0 L75.0,726.0 L73.0,734.0 L76.0,740.0 L84.0,743.0 L87.0,748.0 L85.0,755.0 L91.0,764.0 L96.0,763.0 L101.0,770.0 L99.0,775.0 L106.0,784.0 L111.0,783.0 L113.0,785.0 L114.0,794.0 L118.0,798.0 L123.0,797.0 L129.0,803.0 L128.0,808.0 L135.0,815.0 L141.0,814.0 L146.0,819.0 L145.0,824.0 L154.0,831.0 L157.0,829.0 L162.0,831.0 L167.0,841.0 L173.0,845.0 L178.0,842.0 L194.0,858.0 L202.0,862.0 L207.0,859.0 L214.0,863.0 L214.0,868.0 L224.0,872.0 L227.0,869.0 L236.0,871.0 L239.0,878.0 L249.0,880.0 L251.0,877.0 L261.0,879.0 L263.0,885.0 L272.0,887.0 L277.0,883.0 L285.0,884.0 L288.0,890.0 L299.0,891.0 L301.0,887.0 L309.0,887.0 L313.0,893.0 L323.0,894.0 L327.0,889.0 L339.0,889.0 L343.0,894.0 L353.0,893.0 L355.0,888.0 L364.0,887.0 L368.0,892.0 L379.0,890.0 L382.0,884.0 L392.0,883.0 L394.0,887.0 L405.0,885.0 L406.0,880.0 L413.0,877.0 L422.0,880.0 L430.0,877.0 L432.0,871.0 L440.0,869.0 L442.0,872.0 L452.0,869.0 L453.0,864.0 L459.0,860.0 L463.0,863.0 L474.0,858.0 L474.0,853.0 L480.0,849.0 L489.0,850.0 L501.0,841.0 L500.0,837.0 L508.0,831.0 L513.0,833.0 L523.0,824.0 L522.0,820.0 L527.0,815.0 L532.0,817.0 L541.0,808.0 L539.0,803.0 L544.0,798.0 L548.0,800.0 L555.0,793.0 L554.0,787.0 L558.0,782.0 L562.0,784.0 L569.0,776.0 L568.0,768.0 L571.0,764.0 L577.0,764.0 L582.0,756.0 L581.0,754.0 L529.0,759.0 L501.0,789.0 L481.0,805.0 L446.0,826.0 L405.0,842.0 L351.0,852.0 L307.0,851.0 L270.0,844.0 L240.0,834.0 L198.0,812.0 L168.0,789.0 L140.0,760.0 L121.0,734.0 L101.0,695.0 L88.0,655.0 L82.0,615.0 L82.0,584.0 L88.0,545.0 L99.0,509.0 L117.0,471.0 L139.0,439.0 L167.0,410.0 L201.0,385.0 L229.0,370.0 L262.0,358.0 L293.0,351.0 L324.0,348.0 L356.0,349.0 L397.0,356.0 L437.0,370.0 L475.0,391.0 L512.0,422.0 L515.0,422.0 L542.0,401.0 L544.0,394.0 L537.0,387.0 L532.0,389.0 L526.0,383.0 L528.0,379.0 L520.0,372.0 L513.0,373.0 L508.0,368.0 L509.0,364.0 L501.0,358.0 L493.0,359.0 L490.0,356.0 L491.0,352.0 L483.0,347.0 L477.0,349.0 L471.0,345.0 L471.0,340.0 L463.0,336.0 L457.0,339.0 L452.0,336.0 L451.0,331.0 L445.0,328.0 L438.0,331.0 L433.0,329.0 L432.0,324.0 L423.0,320.0 L420.0,320.0 L418.0,323.0 L407.0,320.0 L408.0,316.0 L398.0,313.0 L394.0,317.0 L386.0,315.0 L385.0,311.0 L375.0,309.0 L372.0,313.0 L365.0,313.0 L359.0,307.0 L348.0,306.0 L345.0,311.0 L330.0,311.0 L327.0,306.0 Z
M1211.0,305.0 L1211.0,311.0 L1220.0,343.0 L1223.0,363.0 L1219.0,367.0 L1187.0,381.0 L1189.0,390.0 L1195.0,402.0 L1205.0,412.0 L1295.0,624.0 L1299.0,626.0 L1332.0,612.0 L1337.0,616.0 L1309.0,628.0 L1308.0,630.0 L1314.0,633.0 L1314.0,638.0 L1304.0,644.0 L1305.0,632.0 L1302.0,644.0 L1296.0,650.0 L1282.0,637.0 L1277.0,626.0 L1291.0,627.0 L1289.0,621.0 L1284.0,620.0 L1286.0,615.0 L1283.0,610.0 L1278.0,614.0 L1276.0,613.0 L1276.0,592.0 L1271.0,581.0 L1265.0,578.0 L1266.0,569.0 L1260.0,555.0 L1241.0,563.0 L1241.0,568.0 L1244.0,572.0 L1242.0,575.0 L1238.0,567.0 L1234.0,566.0 L1224.0,504.0 L1226.0,503.0 L1243.0,514.0 L1224.0,501.0 L1215.0,448.0 L1208.0,433.0 L1206.0,438.0 L1193.0,417.0 L1197.0,411.0 L1186.0,400.0 L1169.0,413.0 L1132.0,453.0 L1108.0,494.0 L1094.0,531.0 L1085.0,576.0 L1084.0,612.0 L1089.0,650.0 L1100.0,687.0 L1122.0,731.0 L1147.0,764.0 L1167.0,784.0 L1191.0,803.0 L1231.0,826.0 L1275.0,841.0 L1312.0,847.0 L1364.0,846.0 L1413.0,835.0 L1450.0,819.0 L1494.0,789.0 L1526.0,756.0 L1542.0,734.0 L1560.0,701.0 L1577.0,649.0 L1582.0,607.0 L1580.0,569.0 L1567.0,516.0 L1547.0,473.0 L1519.0,434.0 L1479.0,398.0 L1437.0,374.0 L1392.0,359.0 L1350.0,353.0 L1307.0,354.0 L1256.0,365.0 L1246.0,369.0 L1246.0,385.0 L1249.0,386.0 L1277.0,471.0 L1250.0,385.0 L1267.0,378.0 L1301.0,371.0 L1303.0,375.0 L1333.0,521.0 L1332.0,526.0 L1321.0,526.0 L1304.0,532.0 L1306.0,535.0 L1310.0,535.0 L1308.0,538.0 L1310.0,545.0 L1325.0,541.0 L1337.0,542.0 L1337.0,547.0 L1324.0,561.0 L1320.0,569.0 L1327.0,578.0 L1344.0,589.0 L1342.0,591.0 L1325.0,583.0 L1330.0,592.0 L1326.0,596.0 L1315.0,575.0 L1238.0,392.0 L1240.0,388.0 L1240.0,359.0 L1232.0,323.0 L1232.0,303.0 L1229.0,299.0 Z
M1288.0,694.0 L1289.0,695.0 L1289.0,697.0 L1288.0,698.0 L1288.0,701.0 L1286.0,705.0 L1286.0,708.0 L1285.0,709.0 L1285.0,712.0 L1283.0,716.0 L1283.0,719.0 L1281.0,723.0 L1281.0,726.0 L1279.0,730.0 L1279.0,733.0 L1278.0,734.0 L1278.0,736.0 L1276.0,740.0 L1276.0,743.0 L1274.0,747.0 L1274.0,750.0 L1273.0,751.0 L1273.0,753.0 L1272.0,754.0 L1272.0,756.0 L1270.0,760.0 L1270.0,763.0 L1269.0,764.0 L1269.0,766.0 L1268.0,767.0 L1268.0,769.0 L1267.0,770.0 L1267.0,772.0 L1266.0,773.0 L1266.0,775.0 L1265.0,776.0 L1265.0,778.0 L1263.0,782.0 L1263.0,785.0 L1262.0,786.0 L1262.0,788.0 L1261.0,789.0 L1261.0,791.0 L1260.0,792.0 L1260.0,794.0 L1259.0,795.0 L1259.0,797.0 L1257.0,801.0 L1257.0,804.0 L1254.0,810.0 L1253.0,815.0 L1252.0,816.0 L1249.0,816.0 L1246.0,814.0 L1244.0,814.0 L1241.0,812.0 L1239.0,812.0 L1221.0,803.0 L1219.0,801.0 L1211.0,797.0 L1209.0,795.0 L1209.0,794.0 L1213.0,789.0 L1215.0,785.0 L1218.0,782.0 L1218.0,781.0 L1221.0,778.0 L1221.0,777.0 L1226.0,772.0 L1226.0,771.0 L1233.0,763.0 L1233.0,762.0 L1237.0,758.0 L1237.0,757.0 L1240.0,754.0 L1240.0,753.0 L1244.0,749.0 L1244.0,748.0 L1247.0,745.0 L1247.0,744.0 L1250.0,741.0 L1250.0,740.0 L1258.0,731.0 L1258.0,730.0 L1261.0,727.0 L1261.0,726.0 L1269.0,717.0 L1269.0,716.0 L1276.0,708.0 L1276.0,707.0 L1283.0,699.0 L1283.0,698.0 L1287.0,694.0 Z
M1383.0,691.0 L1385.0,692.0 L1385.0,693.0 L1400.0,710.0 L1400.0,711.0 L1416.0,730.0 L1416.0,731.0 L1419.0,734.0 L1419.0,735.0 L1423.0,739.0 L1423.0,740.0 L1426.0,743.0 L1426.0,744.0 L1434.0,753.0 L1434.0,754.0 L1437.0,757.0 L1437.0,758.0 L1449.0,773.0 L1451.0,777.0 L1454.0,780.0 L1454.0,781.0 L1459.0,787.0 L1459.0,788.0 L1462.0,792.0 L1461.0,794.0 L1455.0,797.0 L1453.0,799.0 L1450.0,800.0 L1448.0,802.0 L1428.0,812.0 L1426.0,812.0 L1421.0,815.0 L1418.0,815.0 L1417.0,814.0 L1416.0,810.0 L1415.0,809.0 L1415.0,807.0 L1414.0,806.0 L1414.0,804.0 L1413.0,803.0 L1412.0,796.0 L1411.0,795.0 L1411.0,793.0 L1410.0,792.0 L1410.0,789.0 L1408.0,785.0 L1408.0,782.0 L1407.0,781.0 L1407.0,779.0 L1405.0,775.0 L1405.0,772.0 L1403.0,768.0 L1403.0,765.0 L1401.0,761.0 L1401.0,758.0 L1400.0,757.0 L1400.0,755.0 L1399.0,754.0 L1399.0,751.0 L1397.0,747.0 L1397.0,744.0 L1395.0,740.0 L1394.0,733.0 L1393.0,732.0 L1393.0,730.0 L1391.0,726.0 L1391.0,723.0 L1389.0,719.0 L1389.0,716.0 L1387.0,712.0 L1387.0,709.0 L1385.0,705.0 L1385.0,702.0 L1384.0,701.0 L1384.0,699.0 L1382.0,695.0 L1382.0,692.0 Z
M1315.0,676.0 L1317.0,677.0 L1323.0,677.0 L1324.0,678.0 L1342.0,678.0 L1343.0,677.0 L1348.0,677.0 L1349.0,676.0 L1351.0,676.0 L1352.0,677.0 L1352.0,688.0 L1353.0,689.0 L1353.0,712.0 L1354.0,713.0 L1354.0,732.0 L1355.0,733.0 L1355.0,749.0 L1356.0,750.0 L1357.0,779.0 L1358.0,780.0 L1358.0,794.0 L1359.0,795.0 L1359.0,811.0 L1360.0,812.0 L1360.0,829.0 L1359.0,830.0 L1356.0,830.0 L1355.0,831.0 L1313.0,831.0 L1308.0,829.0 L1308.0,804.0 L1309.0,803.0 L1309.0,786.0 L1310.0,785.0 L1311.0,745.0 L1312.0,744.0 L1312.0,724.0 L1313.0,723.0 L1313.0,699.0 L1314.0,698.0 L1314.0,677.0 Z
M1306.0,673.0 L1309.0,675.0 L1312.0,675.0 L1313.0,676.0 L1313.0,693.0 L1312.0,694.0 L1312.0,717.0 L1311.0,718.0 L1311.0,739.0 L1310.0,740.0 L1310.0,759.0 L1309.0,760.0 L1309.0,780.0 L1308.0,781.0 L1308.0,798.0 L1307.0,799.0 L1307.0,817.0 L1306.0,818.0 L1306.0,828.0 L1303.0,830.0 L1302.0,829.0 L1296.0,829.0 L1295.0,828.0 L1286.0,827.0 L1281.0,825.0 L1277.0,825.0 L1273.0,823.0 L1270.0,823.0 L1266.0,821.0 L1263.0,821.0 L1262.0,820.0 L1257.0,819.0 L1255.0,818.0 L1254.0,816.0 L1255.0,815.0 L1256.0,809.0 L1258.0,805.0 L1258.0,802.0 L1261.0,795.0 L1261.0,792.0 L1266.0,779.0 L1266.0,776.0 L1270.0,766.0 L1270.0,763.0 L1274.0,753.0 L1274.0,750.0 L1275.0,749.0 L1276.0,743.0 L1279.0,736.0 L1279.0,733.0 L1282.0,726.0 L1282.0,723.0 L1285.0,716.0 L1285.0,713.0 L1286.0,712.0 L1287.0,706.0 L1288.0,705.0 L1288.0,702.0 L1290.0,698.0 L1292.0,687.0 L1297.0,682.0 L1297.0,681.0 L1305.0,673.0 Z
M1363.0,672.0 L1366.0,672.0 L1377.0,683.0 L1378.0,685.0 L1378.0,687.0 L1382.0,697.0 L1382.0,700.0 L1384.0,704.0 L1384.0,707.0 L1387.0,714.0 L1387.0,717.0 L1389.0,721.0 L1389.0,724.0 L1392.0,731.0 L1392.0,734.0 L1394.0,738.0 L1394.0,741.0 L1396.0,745.0 L1397.0,752.0 L1400.0,759.0 L1400.0,762.0 L1402.0,766.0 L1402.0,769.0 L1404.0,773.0 L1404.0,776.0 L1406.0,780.0 L1407.0,787.0 L1410.0,794.0 L1410.0,797.0 L1413.0,805.0 L1414.0,812.0 L1415.0,813.0 L1415.0,816.0 L1413.0,818.0 L1411.0,818.0 L1404.0,821.0 L1401.0,821.0 L1397.0,823.0 L1394.0,823.0 L1390.0,825.0 L1382.0,826.0 L1381.0,827.0 L1377.0,827.0 L1376.0,828.0 L1372.0,828.0 L1371.0,829.0 L1364.0,829.0 L1362.0,826.0 L1362.0,819.0 L1361.0,818.0 L1361.0,803.0 L1360.0,802.0 L1360.0,789.0 L1359.0,788.0 L1359.0,773.0 L1358.0,772.0 L1358.0,757.0 L1357.0,756.0 L1357.0,741.0 L1356.0,740.0 L1356.0,723.0 L1355.0,722.0 L1354.0,676.0 Z
M1301.0,671.0 L1302.0,673.0 L1300.0,675.0 L1300.0,676.0 L1296.0,680.0 L1295.0,680.0 L1294.0,678.0 L1295.0,677.0 L1295.0,674.0 L1296.0,673.0 L1296.0,671.0 L1297.0,670.0 L1299.0,670.0 Z
M1370.0,669.0 L1372.0,669.0 L1374.0,671.0 L1374.0,673.0 L1375.0,674.0 L1375.0,676.0 L1374.0,677.0 L1373.0,677.0 L1368.0,672.0 L1368.0,671.0 Z
M1346.0,667.0 L1346.0,668.0 L1341.0,673.0 L1339.0,673.0 L1335.0,675.0 L1331.0,675.0 L1330.0,674.0 L1330.0,673.0 L1332.0,671.0 L1335.0,670.0 L1338.0,667.0 L1340.0,666.0 L1345.0,666.0 Z
M1316.0,671.0 L1316.0,670.0 L1320.0,667.0 L1323.0,667.0 L1324.0,666.0 L1330.0,666.0 L1331.0,667.0 L1331.0,668.0 L1329.0,670.0 L1328.0,670.0 L1324.0,673.0 L1318.0,673.0 Z
M1354.0,665.0 L1355.0,664.0 L1357.0,664.0 L1359.0,665.0 L1361.0,667.0 L1361.0,668.0 L1359.0,670.0 L1357.0,671.0 L1355.0,671.0 L1354.0,670.0 Z
M1374.0,667.0 L1381.0,662.0 L1384.0,662.0 L1388.0,666.0 L1389.0,666.0 L1393.0,670.0 L1394.0,670.0 L1398.0,674.0 L1399.0,674.0 L1403.0,678.0 L1409.0,682.0 L1414.0,687.0 L1415.0,687.0 L1419.0,691.0 L1424.0,694.0 L1439.0,707.0 L1440.0,707.0 L1444.0,711.0 L1445.0,711.0 L1449.0,715.0 L1450.0,715.0 L1454.0,719.0 L1460.0,723.0 L1495.0,753.0 L1496.0,753.0 L1501.0,758.0 L1501.0,760.0 L1487.0,774.0 L1486.0,774.0 L1481.0,779.0 L1480.0,779.0 L1475.0,784.0 L1474.0,784.0 L1467.0,790.0 L1464.0,791.0 L1461.0,788.0 L1461.0,787.0 L1458.0,784.0 L1458.0,783.0 L1455.0,780.0 L1455.0,779.0 L1452.0,776.0 L1452.0,775.0 L1449.0,772.0 L1449.0,771.0 L1446.0,768.0 L1446.0,767.0 L1443.0,764.0 L1443.0,763.0 L1440.0,760.0 L1440.0,759.0 L1437.0,756.0 L1428.0,743.0 L1416.0,729.0 L1413.0,724.0 L1404.0,714.0 L1404.0,713.0 L1386.0,692.0 L1386.0,691.0 L1381.0,686.0 L1378.0,681.0 Z
M1295.0,669.0 L1295.0,672.0 L1294.0,673.0 L1292.0,684.0 L1289.0,689.0 L1285.0,693.0 L1285.0,694.0 L1278.0,702.0 L1272.0,711.0 L1260.0,725.0 L1257.0,730.0 L1249.0,739.0 L1246.0,744.0 L1242.0,748.0 L1239.0,753.0 L1235.0,757.0 L1232.0,762.0 L1227.0,767.0 L1224.0,772.0 L1220.0,776.0 L1220.0,777.0 L1207.0,793.0 L1205.0,793.0 L1192.0,784.0 L1188.0,780.0 L1182.0,776.0 L1169.0,763.0 L1166.0,761.0 L1166.0,759.0 L1173.0,752.0 L1174.0,752.0 L1180.0,746.0 L1181.0,746.0 L1193.0,735.0 L1200.0,730.0 L1206.0,724.0 L1207.0,724.0 L1240.0,696.0 L1245.0,693.0 L1249.0,689.0 L1250.0,689.0 L1254.0,685.0 L1255.0,685.0 L1259.0,681.0 L1260.0,681.0 L1264.0,677.0 L1269.0,674.0 L1281.0,664.0 L1285.0,662.0 Z
M1298.0,665.0 L1299.0,662.0 L1301.0,660.0 L1304.0,660.0 L1305.0,661.0 L1308.0,661.0 L1309.0,662.0 L1309.0,664.0 L1305.0,668.0 L1300.0,667.0 Z
M1368.0,657.0 L1370.0,660.0 L1370.0,664.0 L1366.0,667.0 L1363.0,667.0 L1360.0,664.0 L1360.0,662.0 L1364.0,660.0 L1367.0,657.0 Z
M1289.0,660.0 L1289.0,659.0 L1292.0,656.0 L1297.0,656.0 L1298.0,657.0 L1298.0,658.0 L1296.0,660.0 L1294.0,660.0 L1293.0,661.0 L1290.0,661.0 Z
M1371.0,656.0 L1373.0,655.0 L1375.0,657.0 L1375.0,659.0 L1374.0,660.0 L1372.0,660.0 L1371.0,659.0 Z
M1277.0,648.0 L1278.0,647.0 L1281.0,647.0 L1282.0,648.0 L1286.0,648.0 L1290.0,650.0 L1291.0,652.0 L1290.0,653.0 L1281.0,653.0 L1277.0,650.0 Z
M1351.0,658.0 L1351.0,659.0 L1349.0,661.0 L1346.0,661.0 L1345.0,662.0 L1340.0,662.0 L1339.0,663.0 L1328.0,663.0 L1325.0,661.0 L1325.0,660.0 L1338.0,646.0 L1339.0,646.0 L1340.0,648.0 L1342.0,650.0 L1343.0,650.0 Z
M1384.0,644.0 L1385.0,645.0 L1385.0,650.0 L1384.0,651.0 L1384.0,653.0 L1380.0,657.0 L1379.0,657.0 L1378.0,656.0 L1378.0,649.0 L1383.0,644.0 Z
M1353.0,658.0 L1353.0,652.0 L1354.0,651.0 L1354.0,644.0 L1355.0,643.0 L1357.0,643.0 L1368.0,651.0 L1368.0,652.0 L1366.0,654.0 L1356.0,659.0 L1354.0,659.0 Z
M1311.0,643.0 L1313.0,643.0 L1314.0,644.0 L1314.0,651.0 L1313.0,652.0 L1313.0,658.0 L1312.0,659.0 L1310.0,658.0 L1308.0,658.0 L1301.0,654.0 L1301.0,651.0 L1302.0,649.0 L1306.0,646.0 L1309.0,645.0 Z
M1346.0,636.0 L1347.0,636.0 L1348.0,638.0 L1349.0,638.0 L1352.0,641.0 L1352.0,655.0 L1351.0,656.0 L1350.0,656.0 L1339.0,646.0 L1340.0,643.0 Z
M1336.0,635.0 L1337.0,636.0 L1337.0,638.0 L1334.0,641.0 L1334.0,642.0 L1325.0,651.0 L1325.0,652.0 L1320.0,657.0 L1319.0,657.0 L1319.0,658.0 L1317.0,660.0 L1316.0,660.0 L1315.0,659.0 L1315.0,642.0 L1319.0,638.0 L1320.0,638.0 L1324.0,635.0 Z
M1315.0,636.0 L1315.0,635.0 L1318.0,633.0 L1320.0,633.0 L1321.0,634.0 L1320.0,636.0 L1318.0,636.0 L1317.0,637.0 Z
M1393.0,632.0 L1394.0,633.0 L1394.0,643.0 L1393.0,645.0 L1390.0,648.0 L1389.0,648.0 L1388.0,647.0 L1388.0,645.0 L1389.0,644.0 L1389.0,636.0 L1390.0,634.0 L1392.0,632.0 Z
M1349.0,632.0 L1351.0,633.0 L1351.0,636.0 L1350.0,637.0 L1348.0,637.0 L1347.0,636.0 L1347.0,634.0 Z
M1407.0,628.0 L1409.0,628.0 L1448.0,657.0 L1502.0,693.0 L1505.0,696.0 L1518.0,704.0 L1534.0,716.0 L1525.0,731.0 L1505.0,756.0 L1502.0,756.0 L1494.0,750.0 L1462.0,723.0 L1430.0,698.0 L1425.0,693.0 L1404.0,677.0 L1394.0,668.0 L1384.0,661.0 L1384.0,660.0 L1397.0,646.0 Z
M1265.0,629.0 L1266.0,628.0 L1268.0,628.0 L1269.0,627.0 L1271.0,627.0 L1273.0,626.0 L1274.0,627.0 L1273.0,630.0 L1274.0,631.0 L1274.0,633.0 L1275.0,635.0 L1282.0,642.0 L1282.0,643.0 L1280.0,644.0 L1279.0,643.0 L1277.0,643.0 L1273.0,641.0 L1269.0,637.0 Z
M1358.0,625.0 L1360.0,626.0 L1360.0,629.0 L1362.0,632.0 L1362.0,634.0 L1363.0,635.0 L1363.0,637.0 L1365.0,641.0 L1365.0,644.0 L1366.0,645.0 L1365.0,647.0 L1360.0,645.0 L1354.0,640.0 L1354.0,629.0 Z
M1396.0,623.0 L1397.0,623.0 L1399.0,625.0 L1401.0,629.0 L1401.0,631.0 L1399.0,634.0 L1398.0,634.0 L1396.0,632.0 L1396.0,630.0 L1395.0,629.0 L1395.0,624.0 Z
M1364.0,620.0 L1366.0,620.0 L1368.0,622.0 L1368.0,624.0 L1369.0,625.0 L1369.0,627.0 L1370.0,628.0 L1370.0,630.0 L1372.0,634.0 L1372.0,637.0 L1374.0,641.0 L1374.0,647.0 L1371.0,650.0 L1369.0,650.0 L1368.0,649.0 L1368.0,647.0 L1366.0,643.0 L1366.0,640.0 L1365.0,639.0 L1365.0,637.0 L1364.0,636.0 L1364.0,634.0 L1363.0,633.0 L1363.0,631.0 L1361.0,628.0 L1361.0,625.0 L1360.0,624.0 L1360.0,623.0 Z
M1398.0,617.0 L1399.0,616.0 L1402.0,616.0 L1404.0,619.0 L1404.0,621.0 L1402.0,622.0 L1398.0,618.0 Z
M1410.0,616.0 L1411.0,615.0 L1427.0,614.0 L1429.0,613.0 L1440.0,618.0 L1442.0,618.0 L1445.0,620.0 L1450.0,621.0 L1455.0,624.0 L1460.0,625.0 L1463.0,627.0 L1465.0,627.0 L1468.0,629.0 L1475.0,631.0 L1478.0,633.0 L1483.0,634.0 L1491.0,638.0 L1496.0,639.0 L1509.0,645.0 L1514.0,646.0 L1517.0,648.0 L1522.0,649.0 L1530.0,653.0 L1535.0,654.0 L1538.0,656.0 L1543.0,657.0 L1546.0,659.0 L1548.0,659.0 L1551.0,661.0 L1555.0,662.0 L1556.0,663.0 L1556.0,667.0 L1555.0,668.0 L1552.0,679.0 L1550.0,682.0 L1548.0,689.0 L1545.0,694.0 L1545.0,696.0 L1538.0,710.0 L1535.0,713.0 L1533.0,713.0 L1518.0,703.0 L1515.0,700.0 L1496.0,688.0 L1493.0,685.0 L1487.0,682.0 L1481.0,677.0 L1436.0,647.0 L1408.0,626.0 L1408.0,622.0 L1409.0,621.0 Z
M1566.0,607.0 L1566.0,614.0 L1565.0,615.0 L1565.0,625.0 L1564.0,626.0 L1563.0,639.0 L1562.0,640.0 L1562.0,644.0 L1561.0,645.0 L1560.0,654.0 L1559.0,655.0 L1559.0,657.0 L1557.0,661.0 L1553.0,660.0 L1552.0,659.0 L1550.0,659.0 L1549.0,658.0 L1547.0,658.0 L1546.0,657.0 L1544.0,657.0 L1541.0,655.0 L1539.0,655.0 L1536.0,653.0 L1531.0,652.0 L1528.0,650.0 L1520.0,648.0 L1517.0,646.0 L1512.0,645.0 L1509.0,643.0 L1504.0,642.0 L1501.0,640.0 L1499.0,640.0 L1496.0,638.0 L1494.0,638.0 L1486.0,634.0 L1481.0,633.0 L1476.0,630.0 L1474.0,630.0 L1471.0,628.0 L1469.0,628.0 L1466.0,626.0 L1464.0,626.0 L1461.0,624.0 L1459.0,624.0 L1456.0,622.0 L1454.0,622.0 L1451.0,620.0 L1449.0,620.0 L1446.0,618.0 L1444.0,618.0 L1438.0,615.0 L1439.0,613.0 L1441.0,613.0 L1442.0,612.0 L1455.0,612.0 L1456.0,611.0 L1470.0,611.0 L1471.0,610.0 L1487.0,610.0 L1488.0,609.0 L1506.0,609.0 L1507.0,608.0 L1527.0,608.0 L1528.0,607.0 L1551.0,607.0 L1552.0,606.0 L1558.0,606.0 L1559.0,607.0 L1561.0,606.0 L1565.0,606.0 Z
M1411.0,607.0 L1412.0,606.0 L1414.0,607.0 L1416.0,607.0 L1421.0,610.0 L1423.0,610.0 L1424.0,612.0 L1423.0,613.0 L1412.0,613.0 L1411.0,612.0 Z
M1400.0,602.0 L1403.0,602.0 L1407.0,606.0 L1408.0,608.0 L1408.0,612.0 L1406.0,614.0 L1403.0,614.0 L1399.0,610.0 L1399.0,603.0 Z
M1387.0,605.0 L1388.0,604.0 L1390.0,604.0 L1391.0,603.0 L1393.0,603.0 L1395.0,602.0 L1396.0,603.0 L1396.0,607.0 L1395.0,608.0 L1395.0,610.0 L1393.0,611.0 L1391.0,609.0 L1390.0,609.0 L1387.0,606.0 Z
M1404.0,598.0 L1406.0,597.0 L1408.0,599.0 L1408.0,600.0 L1407.0,601.0 L1405.0,601.0 L1404.0,600.0 Z
M1330.0,596.0 L1333.0,596.0 L1334.0,597.0 L1336.0,597.0 L1339.0,601.0 L1339.0,603.0 L1338.0,605.0 L1335.0,608.0 L1332.0,608.0 L1328.0,604.0 L1327.0,602.0 L1328.0,600.0 L1328.0,598.0 Z
M1332.0,602.0 L1333.0,604.0 L1336.0,603.0 L1335.0,601.0 L1333.0,601.0 Z
M1369.0,595.0 L1373.0,597.0 L1378.0,602.0 L1379.0,602.0 L1382.0,605.0 L1382.0,606.0 L1384.0,606.0 L1389.0,611.0 L1390.0,611.0 L1392.0,613.0 L1391.0,616.0 L1393.0,617.0 L1393.0,620.0 L1392.0,621.0 L1391.0,626.0 L1389.0,630.0 L1385.0,635.0 L1385.0,636.0 L1382.0,639.0 L1380.0,639.0 L1378.0,636.0 L1378.0,634.0 L1377.0,633.0 L1377.0,631.0 L1376.0,630.0 L1376.0,628.0 L1374.0,624.0 L1374.0,621.0 L1373.0,620.0 L1373.0,618.0 L1372.0,617.0 L1372.0,615.0 L1371.0,614.0 L1370.0,609.0 L1368.0,607.0 L1368.0,596.0 Z
M1399.0,591.0 L1401.0,590.0 L1405.0,594.0 L1405.0,595.0 L1401.0,597.0 L1399.0,595.0 Z
M1372.0,591.0 L1373.0,590.0 L1375.0,591.0 L1377.0,591.0 L1382.0,594.0 L1384.0,594.0 L1387.0,596.0 L1389.0,596.0 L1393.0,598.0 L1394.0,600.0 L1392.0,602.0 L1390.0,602.0 L1389.0,603.0 L1384.0,604.0 L1380.0,600.0 L1379.0,600.0 L1374.0,595.0 L1372.0,594.0 Z
M1266.0,582.0 L1267.0,582.0 L1269.0,584.0 L1271.0,588.0 L1271.0,592.0 L1272.0,593.0 L1272.0,605.0 L1273.0,606.0 L1273.0,611.0 L1272.0,613.0 L1270.0,614.0 L1270.0,616.0 L1267.0,618.0 L1266.0,618.0 L1265.0,616.0 L1267.0,614.0 L1268.0,612.0 L1268.0,610.0 L1269.0,609.0 L1269.0,602.0 L1268.0,601.0 L1268.0,588.0 L1265.0,584.0 Z
M1261.0,578.0 L1263.0,577.0 L1266.0,580.0 L1266.0,581.0 L1264.0,582.0 L1261.0,579.0 Z
M1394.0,576.0 L1395.0,575.0 L1397.0,575.0 L1399.0,576.0 L1406.0,583.0 L1406.0,587.0 L1404.0,588.0 L1401.0,585.0 L1400.0,585.0 L1396.0,581.0 L1396.0,580.0 L1394.0,578.0 Z
M1264.0,570.0 L1262.0,574.0 L1262.0,577.0 L1261.0,578.0 L1249.0,572.0 L1250.0,570.0 L1252.0,570.0 L1253.0,571.0 L1257.0,571.0 L1258.0,570.0 L1261.0,570.0 L1262.0,569.0 Z
M1357.0,576.0 L1364.0,572.0 L1366.0,572.0 L1370.0,570.0 L1373.0,570.0 L1374.0,572.0 L1372.0,574.0 L1371.0,577.0 L1372.0,575.0 L1375.0,572.0 L1375.0,571.0 L1378.0,568.0 L1380.0,567.0 L1384.0,567.0 L1386.0,569.0 L1386.0,571.0 L1380.0,577.0 L1380.0,578.0 L1378.0,580.0 L1386.0,572.0 L1387.0,572.0 L1389.0,574.0 L1392.0,580.0 L1392.0,582.0 L1394.0,586.0 L1395.0,595.0 L1394.0,596.0 L1392.0,596.0 L1391.0,595.0 L1386.0,594.0 L1379.0,590.0 L1377.0,590.0 L1375.0,589.0 L1372.0,586.0 L1370.0,586.0 L1368.0,585.0 L1367.0,583.0 L1363.0,583.0 L1359.0,579.0 L1359.0,578.0 L1357.0,577.0 Z
M1392.0,567.0 L1394.0,565.0 L1397.0,565.0 L1401.0,569.0 L1401.0,571.0 L1400.0,572.0 L1398.0,572.0 L1394.0,570.0 L1392.0,568.0 Z
M1388.0,564.0 L1390.0,563.0 L1391.0,565.0 L1389.0,566.0 Z
M1339.0,554.0 L1341.0,556.0 L1341.0,559.0 L1342.0,560.0 L1343.0,567.0 L1342.0,568.0 L1331.0,568.0 L1329.0,566.0 L1329.0,564.0 L1330.0,562.0 L1338.0,554.0 Z
M1388.0,552.0 L1389.0,552.0 L1391.0,554.0 L1393.0,558.0 L1391.0,560.0 L1386.0,561.0 L1385.0,560.0 L1385.0,557.0 Z
M1561.0,551.0 L1562.0,561.0 L1563.0,562.0 L1563.0,567.0 L1564.0,568.0 L1564.0,575.0 L1565.0,576.0 L1565.0,585.0 L1566.0,586.0 L1566.0,603.0 L1565.0,604.0 L1560.0,604.0 L1559.0,605.0 L1542.0,605.0 L1541.0,606.0 L1501.0,607.0 L1500.0,608.0 L1482.0,608.0 L1481.0,609.0 L1466.0,609.0 L1465.0,610.0 L1447.0,610.0 L1446.0,611.0 L1434.0,611.0 L1433.0,612.0 L1430.0,612.0 L1420.0,607.0 L1418.0,607.0 L1411.0,603.0 L1411.0,597.0 L1415.0,594.0 L1418.0,594.0 L1419.0,593.0 L1421.0,593.0 L1422.0,592.0 L1424.0,592.0 L1440.0,586.0 L1443.0,586.0 L1456.0,581.0 L1459.0,581.0 L1472.0,576.0 L1475.0,576.0 L1476.0,575.0 L1478.0,575.0 L1488.0,571.0 L1491.0,571.0 L1504.0,566.0 L1507.0,566.0 L1514.0,563.0 L1517.0,563.0 L1518.0,562.0 L1520.0,562.0 L1530.0,558.0 L1533.0,558.0 L1543.0,554.0 L1546.0,554.0 L1547.0,553.0 L1557.0,551.0 L1558.0,550.0 L1560.0,550.0 Z
M1373.0,548.0 L1374.0,547.0 L1381.0,547.0 L1385.0,550.0 L1385.0,552.0 L1383.0,554.0 L1381.0,554.0 L1375.0,551.0 L1373.0,549.0 Z
M1354.0,546.0 L1355.0,545.0 L1358.0,545.0 L1361.0,547.0 L1363.0,547.0 L1365.0,548.0 L1367.0,550.0 L1371.0,552.0 L1380.0,561.0 L1380.0,562.0 L1377.0,565.0 L1374.0,565.0 L1373.0,566.0 L1370.0,566.0 L1369.0,567.0 L1363.0,567.0 L1362.0,568.0 L1357.0,568.0 L1356.0,569.0 L1354.0,569.0 L1353.0,568.0 L1353.0,553.0 L1354.0,552.0 Z
M1351.0,543.0 L1352.0,544.0 L1352.0,567.0 L1349.0,569.0 L1346.0,569.0 L1345.0,568.0 L1345.0,566.0 L1343.0,562.0 L1343.0,559.0 L1342.0,558.0 L1341.0,551.0 L1349.0,543.0 Z
M1362.0,541.0 L1366.0,539.0 L1371.0,539.0 L1373.0,540.0 L1374.0,542.0 L1370.0,544.0 L1367.0,544.0 L1366.0,543.0 L1363.0,543.0 Z
M1311.0,540.0 L1313.0,536.0 L1316.0,536.0 L1317.0,537.0 L1317.0,538.0 L1315.0,540.0 L1313.0,541.0 Z
M1354.0,539.0 L1354.0,537.0 L1356.0,535.0 L1363.0,535.0 L1364.0,536.0 L1363.0,538.0 L1361.0,538.0 L1358.0,540.0 L1355.0,540.0 Z
M1333.0,532.0 L1335.0,533.0 L1335.0,537.0 L1334.0,538.0 L1331.0,538.0 L1330.0,536.0 Z
M1337.0,531.0 L1339.0,529.0 L1345.0,529.0 L1347.0,531.0 L1347.0,532.0 L1352.0,532.0 L1353.0,534.0 L1350.0,538.0 L1348.0,538.0 L1346.0,536.0 L1343.0,539.0 L1341.0,539.0 L1338.0,537.0 L1337.0,535.0 Z
M1328.0,530.0 L1328.0,531.0 L1323.0,536.0 L1321.0,537.0 L1319.0,537.0 L1318.0,536.0 L1319.0,533.0 L1322.0,530.0 L1324.0,529.0 L1327.0,529.0 Z
M1549.0,512.0 L1550.0,517.0 L1552.0,520.0 L1557.0,535.0 L1557.0,538.0 L1560.0,546.0 L1559.0,548.0 L1544.0,553.0 L1541.0,553.0 L1528.0,558.0 L1525.0,558.0 L1512.0,563.0 L1509.0,563.0 L1496.0,568.0 L1493.0,568.0 L1480.0,573.0 L1477.0,573.0 L1464.0,578.0 L1461.0,578.0 L1442.0,585.0 L1439.0,585.0 L1429.0,589.0 L1426.0,589.0 L1413.0,594.0 L1410.0,593.0 L1409.0,581.0 L1403.0,568.0 L1403.0,566.0 L1400.0,561.0 L1401.0,558.0 L1405.0,557.0 L1410.0,554.0 L1412.0,554.0 L1417.0,551.0 L1419.0,551.0 L1424.0,548.0 L1426.0,548.0 L1433.0,544.0 L1435.0,544.0 L1442.0,540.0 L1444.0,540.0 L1451.0,536.0 L1453.0,536.0 L1458.0,533.0 L1467.0,530.0 L1474.0,526.0 L1476.0,526.0 L1502.0,514.0 L1504.0,514.0 L1511.0,510.0 L1520.0,507.0 L1539.0,498.0 L1542.0,498.0 Z
M1517.0,456.0 L1517.0,457.0 L1523.0,464.0 L1523.0,465.0 L1529.0,473.0 L1530.0,476.0 L1534.0,481.0 L1537.0,488.0 L1539.0,490.0 L1541.0,494.0 L1540.0,496.0 L1528.0,502.0 L1526.0,502.0 L1521.0,505.0 L1519.0,505.0 L1512.0,509.0 L1510.0,509.0 L1505.0,512.0 L1503.0,512.0 L1498.0,515.0 L1496.0,515.0 L1491.0,518.0 L1489.0,518.0 L1484.0,521.0 L1482.0,521.0 L1477.0,524.0 L1475.0,524.0 L1470.0,527.0 L1468.0,527.0 L1463.0,530.0 L1461.0,530.0 L1456.0,533.0 L1454.0,533.0 L1449.0,536.0 L1447.0,536.0 L1442.0,539.0 L1440.0,539.0 L1433.0,543.0 L1431.0,543.0 L1424.0,547.0 L1422.0,547.0 L1408.0,554.0 L1406.0,553.0 L1406.0,552.0 L1443.0,514.0 L1444.0,514.0 L1458.0,500.0 L1459.0,500.0 L1477.0,483.0 L1478.0,483.0 L1492.0,470.0 L1493.0,470.0 L1498.0,465.0 L1499.0,465.0 L1513.0,453.0 L1514.0,453.0 Z
M1479.0,418.0 L1489.0,427.0 L1490.0,427.0 L1507.0,444.0 L1507.0,445.0 L1512.0,450.0 L1512.0,451.0 L1483.0,477.0 L1482.0,477.0 L1473.0,486.0 L1472.0,486.0 L1461.0,497.0 L1460.0,497.0 L1399.0,557.0 L1397.0,557.0 L1390.0,549.0 L1391.0,546.0 L1393.0,544.0 L1394.0,541.0 L1397.0,538.0 L1398.0,535.0 L1414.0,512.0 L1415.0,509.0 L1429.0,489.0 L1432.0,483.0 L1435.0,480.0 L1436.0,477.0 L1472.0,423.0 L1476.0,418.0 Z
M1191.0,418.0 L1207.0,441.0 L1210.0,449.0 L1220.0,505.0 L1225.0,549.0 L1230.0,567.0 L1225.0,574.0 L1228.0,579.0 L1234.0,580.0 L1239.0,590.0 L1236.0,594.0 L1236.0,600.0 L1240.0,603.0 L1240.0,610.0 L1236.0,614.0 L1236.0,623.0 L1239.0,628.0 L1245.0,630.0 L1257.0,621.0 L1266.0,641.0 L1282.0,662.0 L1163.0,757.0 L1143.0,734.0 L1133.0,716.0 L1256.0,629.0 L1254.0,627.0 L1132.0,714.0 L1129.0,712.0 L1109.0,665.0 L1111.0,662.0 L1232.0,620.0 L1230.0,619.0 L1109.0,661.0 L1107.0,658.0 L1101.0,626.0 L1101.0,607.0 L1233.0,614.0 L1110.0,606.0 L1100.0,603.0 L1101.0,575.0 L1106.0,550.0 L1231.0,585.0 L1107.0,547.0 L1113.0,523.0 L1125.0,497.0 L1221.0,536.0 L1216.0,532.0 L1176.0,517.0 L1126.0,494.0 L1144.0,463.0 L1154.0,453.0 L1215.0,496.0 L1155.0,451.0 L1178.0,426.0 L1188.0,418.0 Z
M1434.0,390.0 L1458.0,403.0 L1474.0,414.0 L1475.0,416.0 L1467.0,427.0 L1466.0,430.0 L1450.0,453.0 L1449.0,456.0 L1439.0,471.0 L1436.0,474.0 L1435.0,477.0 L1398.0,532.0 L1395.0,538.0 L1392.0,541.0 L1390.0,545.0 L1387.0,546.0 L1379.0,539.0 L1364.0,531.0 L1359.0,530.0 L1358.0,528.0 L1361.0,524.0 L1371.0,503.0 L1373.0,501.0 L1402.0,444.0 L1404.0,442.0 L1429.0,392.0 L1431.0,390.0 Z
M1427.0,387.0 L1429.0,390.0 L1421.0,406.0 L1419.0,408.0 L1405.0,437.0 L1403.0,439.0 L1396.0,454.0 L1394.0,456.0 L1385.0,475.0 L1383.0,477.0 L1371.0,501.0 L1369.0,503.0 L1363.0,516.0 L1361.0,518.0 L1361.0,520.0 L1359.0,524.0 L1356.0,526.0 L1355.0,525.0 L1355.0,520.0 L1356.0,519.0 L1356.0,484.0 L1357.0,483.0 L1358.0,455.0 L1359.0,454.0 L1359.0,450.0 L1360.0,449.0 L1361.0,441.0 L1363.0,436.0 L1363.0,432.0 L1364.0,431.0 L1365.0,422.0 L1367.0,417.0 L1368.0,408.0 L1369.0,407.0 L1369.0,404.0 L1371.0,399.0 L1371.0,395.0 L1372.0,394.0 L1372.0,390.0 L1374.0,385.0 L1374.0,381.0 L1376.0,377.0 L1376.0,373.0 L1378.0,372.0 L1379.0,373.0 L1383.0,373.0 L1388.0,375.0 L1396.0,376.0 L1400.0,378.0 L1403.0,378.0 L1404.0,379.0 L1412.0,381.0 L1415.0,383.0 L1417.0,383.0 Z
M1306.0,370.0 L1314.0,370.0 L1315.0,369.0 L1355.0,369.0 L1358.0,370.0 L1359.0,372.0 L1361.0,370.0 L1365.0,370.0 L1366.0,371.0 L1372.0,371.0 L1374.0,373.0 L1374.0,378.0 L1373.0,379.0 L1371.0,393.0 L1369.0,398.0 L1369.0,402.0 L1367.0,407.0 L1367.0,411.0 L1365.0,416.0 L1362.0,435.0 L1361.0,436.0 L1359.0,447.0 L1357.0,451.0 L1356.0,474.0 L1355.0,475.0 L1355.0,499.0 L1354.0,500.0 L1354.0,527.0 L1353.0,528.0 L1347.0,527.0 L1346.0,526.0 L1336.0,526.0 L1334.0,522.0 L1331.0,502.0 L1329.0,497.0 L1329.0,493.0 L1328.0,492.0 L1328.0,488.0 L1327.0,487.0 L1327.0,483.0 L1326.0,482.0 L1323.0,463.0 L1321.0,458.0 L1320.0,449.0 L1318.0,444.0 L1316.0,430.0 L1314.0,425.0 L1314.0,420.0 L1312.0,415.0 L1312.0,411.0 L1311.0,410.0 L1311.0,406.0 L1310.0,405.0 L1310.0,401.0 L1309.0,400.0 L1309.0,396.0 L1308.0,395.0 L1308.0,391.0 L1307.0,390.0 L1307.0,386.0 L1306.0,385.0 L1306.0,381.0 L1304.0,375.0 L1304.0,372.0 Z
M590.0,300.0 L604.0,344.0 L605.0,356.0 L615.0,358.0 L620.0,365.0 L619.0,372.0 L613.0,383.0 L618.0,389.0 L674.0,569.0 L709.0,570.0 L650.0,381.0 L647.0,366.0 L637.0,361.0 L631.0,355.0 L628.0,348.0 L635.0,329.0 L632.0,325.0 L622.0,291.0 L620.0,289.0 Z
M1186.0,285.0 L1176.0,290.0 L1174.0,290.0 L1169.0,293.0 L1167.0,293.0 L1162.0,296.0 L1160.0,296.0 L1159.0,297.0 L1159.0,299.0 L1165.0,311.0 L1165.0,313.0 L1170.0,323.0 L1170.0,325.0 L1173.0,330.0 L1173.0,332.0 L1176.0,337.0 L1176.0,339.0 L1179.0,344.0 L1179.0,346.0 L1184.0,356.0 L1184.0,358.0 L1187.0,363.0 L1187.0,365.0 L1189.0,368.0 L1189.0,370.0 L1191.0,374.0 L1192.0,374.0 L1197.0,371.0 L1199.0,371.0 L1211.0,365.0 L1213.0,365.0 L1216.0,363.0 L1218.0,363.0 L1218.0,361.0 L1217.0,360.0 L1217.0,358.0 L1215.0,355.0 L1215.0,353.0 L1209.0,341.0 L1209.0,339.0 L1207.0,336.0 L1207.0,334.0 L1205.0,331.0 L1205.0,329.0 L1203.0,326.0 L1203.0,324.0 L1199.0,317.0 L1199.0,315.0 L1197.0,312.0 L1197.0,310.0 L1193.0,303.0 L1193.0,301.0 L1191.0,298.0 L1191.0,296.0 L1188.0,291.0 L1188.0,289.0 Z
M619.0,270.0 L618.0,269.0 L615.0,269.0 L614.0,270.0 L612.0,270.0 L611.0,271.0 L609.0,271.0 L608.0,272.0 L606.0,272.0 L605.0,273.0 L603.0,273.0 L602.0,274.0 L600.0,274.0 L599.0,275.0 L594.0,276.0 L591.0,278.0 L589.0,278.0 L588.0,279.0 L583.0,280.0 L581.0,282.0 L581.0,287.0 L582.0,288.0 L582.0,290.0 L583.0,292.0 L585.0,294.0 L586.0,293.0 L588.0,293.0 L589.0,292.0 L592.0,292.0 L593.0,291.0 L598.0,290.0 L601.0,288.0 L603.0,288.0 L604.0,287.0 L606.0,287.0 L607.0,286.0 L609.0,286.0 L610.0,285.0 L612.0,285.0 L613.0,284.0 L615.0,284.0 L616.0,283.0 L621.0,282.0 L622.0,281.0 L622.0,278.0 L619.0,272.0 Z
M1157.0,236.0 L1155.0,237.0 L1153.0,237.0 L1150.0,239.0 L1148.0,239.0 L1145.0,241.0 L1143.0,241.0 L1140.0,243.0 L1138.0,243.0 L1135.0,245.0 L1130.0,246.0 L1127.0,248.0 L1125.0,248.0 L1119.0,251.0 L1119.0,254.0 L1120.0,255.0 L1121.0,260.0 L1123.0,263.0 L1123.0,265.0 L1126.0,271.0 L1128.0,273.0 L1131.0,273.0 L1132.0,272.0 L1139.0,272.0 L1141.0,273.0 L1143.0,272.0 L1147.0,280.0 L1147.0,282.0 L1150.0,287.0 L1150.0,289.0 L1153.0,294.0 L1156.0,294.0 L1157.0,293.0 L1159.0,293.0 L1169.0,288.0 L1171.0,288.0 L1176.0,285.0 L1178.0,285.0 L1181.0,283.0 L1183.0,283.0 L1187.0,281.0 L1188.0,279.0 L1187.0,274.0 L1185.0,271.0 L1185.0,269.0 L1183.0,266.0 L1183.0,264.0 L1180.0,259.0 L1180.0,257.0 L1177.0,251.0 L1175.0,249.0 L1174.0,249.0 L1171.0,251.0 L1169.0,251.0 L1165.0,253.0 L1164.0,251.0 L1167.0,249.0 L1165.0,246.0 L1162.0,246.0 L1161.0,245.0 L1159.0,241.0 L1159.0,239.0 Z
M1139.0,268.0 L1141.0,267.0 L1142.0,269.0 L1140.0,270.0 Z
M1146.0,256.0 L1148.0,258.0 L1148.0,259.0 L1146.0,261.0 L1140.0,264.0 L1139.0,262.0 L1142.0,259.0 L1143.0,259.0 L1145.0,256.0 Z
M1156.0,247.0 L1155.0,249.0 L1148.0,252.0 L1146.0,255.0 L1144.0,254.0 L1144.0,252.0 L1149.0,248.0 L1151.0,248.0 L1154.0,246.0 Z
M1156.0,246.0 L1158.0,245.0 L1159.0,247.0 L1157.0,248.0 Z
M1217.0,189.0 L1215.0,189.0 L1210.0,193.0 L1207.0,194.0 L1205.0,196.0 L1204.0,196.0 L1202.0,198.0 L1198.0,200.0 L1196.0,199.0 L1190.0,199.0 L1189.0,200.0 L1185.0,200.0 L1184.0,201.0 L1178.0,201.0 L1177.0,202.0 L1174.0,202.0 L1173.0,203.0 L1164.0,203.0 L1163.0,204.0 L1158.0,204.0 L1160.0,208.0 L1168.0,208.0 L1169.0,207.0 L1174.0,207.0 L1175.0,206.0 L1180.0,206.0 L1181.0,205.0 L1188.0,204.0 L1191.0,202.0 L1193.0,203.0 L1192.0,205.0 L1178.0,212.0 L1176.0,212.0 L1175.0,213.0 L1173.0,213.0 L1172.0,214.0 L1170.0,214.0 L1169.0,215.0 L1164.0,216.0 L1164.0,218.0 L1165.0,220.0 L1167.0,219.0 L1170.0,219.0 L1171.0,218.0 L1173.0,218.0 L1174.0,217.0 L1179.0,216.0 L1184.0,213.0 L1186.0,213.0 L1196.0,208.0 L1198.0,206.0 L1201.0,205.0 L1209.0,199.0 L1214.0,197.0 L1217.0,194.0 Z
M1070.0,169.0 L644.0,332.0 L641.0,339.0 L642.0,349.0 L647.0,355.0 L654.0,357.0 L986.0,233.0 L1034.0,219.0 L1038.0,220.0 L1041.0,224.0 L1041.0,228.0 L779.0,595.0 L794.0,625.0 L796.0,645.0 L819.0,621.0 L1078.0,266.0 L1100.0,248.0 Z
M1118.0,137.0 L1114.0,139.0 L1112.0,139.0 L1109.0,141.0 L1107.0,141.0 L1102.0,144.0 L1100.0,144.0 L1095.0,147.0 L1093.0,147.0 L1088.0,150.0 L1086.0,150.0 L1080.0,153.0 L1079.0,155.0 L1080.0,156.0 L1080.0,160.0 L1078.0,164.0 L1081.0,170.0 L1081.0,172.0 L1083.0,175.0 L1083.0,177.0 L1085.0,180.0 L1085.0,182.0 L1087.0,185.0 L1087.0,187.0 L1089.0,190.0 L1089.0,192.0 L1091.0,195.0 L1091.0,197.0 L1093.0,200.0 L1093.0,202.0 L1095.0,205.0 L1096.0,210.0 L1098.0,213.0 L1098.0,215.0 L1102.0,223.0 L1103.0,228.0 L1105.0,231.0 L1105.0,233.0 L1107.0,236.0 L1107.0,238.0 L1109.0,241.0 L1109.0,243.0 L1114.0,247.0 L1117.0,247.0 L1118.0,246.0 L1120.0,246.0 L1123.0,244.0 L1125.0,244.0 L1128.0,242.0 L1130.0,242.0 L1133.0,240.0 L1135.0,240.0 L1138.0,238.0 L1140.0,238.0 L1143.0,236.0 L1145.0,236.0 L1157.0,230.0 L1157.0,222.0 L1156.0,221.0 L1156.0,219.0 L1148.0,203.0 L1148.0,201.0 L1143.0,191.0 L1143.0,189.0 L1139.0,181.0 L1139.0,179.0 L1135.0,171.0 L1133.0,170.0 L1133.0,166.0 L1130.0,160.0 L1130.0,158.0 L1128.0,155.0 L1128.0,153.0 L1125.0,147.0 L1125.0,145.0 L1123.0,142.0 L1123.0,140.0 L1121.0,138.0 L1119.0,138.0 Z
M1132.0,170.0 L1134.0,171.0 L1133.0,173.0 L1133.0,180.0 L1134.0,181.0 L1134.0,184.0 L1135.0,185.0 L1135.0,187.0 L1138.0,192.0 L1137.0,194.0 L1136.0,194.0 L1133.0,191.0 L1132.0,189.0 L1132.0,187.0 L1131.0,186.0 L1131.0,184.0 L1130.0,183.0 L1130.0,173.0 Z
M1212.0,135.0 L1210.0,139.0 L1210.0,141.0 L1212.0,143.0 L1216.0,151.0 L1216.0,153.0 L1218.0,157.0 L1218.0,161.0 L1219.0,162.0 L1219.0,167.0 L1220.0,168.0 L1220.0,200.0 L1219.0,201.0 L1218.0,223.0 L1217.0,224.0 L1217.0,241.0 L1216.0,242.0 L1216.0,273.0 L1217.0,274.0 L1217.0,287.0 L1218.0,288.0 L1218.0,294.0 L1219.0,295.0 L1219.0,298.0 L1220.0,298.0 L1224.0,296.0 L1224.0,293.0 L1223.0,292.0 L1223.0,285.0 L1222.0,284.0 L1222.0,271.0 L1221.0,270.0 L1221.0,246.0 L1222.0,245.0 L1222.0,226.0 L1223.0,225.0 L1223.0,213.0 L1224.0,212.0 L1224.0,202.0 L1225.0,201.0 L1225.0,168.0 L1224.0,167.0 L1224.0,161.0 L1223.0,160.0 L1223.0,156.0 L1222.0,155.0 L1221.0,149.0 L1219.0,146.0 L1218.0,142.0 Z
M1094.0,105.0 L1093.0,106.0 L1091.0,106.0 L1090.0,107.0 L1085.0,108.0 L1082.0,110.0 L1080.0,110.0 L1074.0,113.0 L1072.0,115.0 L1072.0,118.0 L1067.0,122.0 L1067.0,125.0 L1070.0,130.0 L1072.0,130.0 L1073.0,129.0 L1077.0,129.0 L1079.0,131.0 L1081.0,135.0 L1081.0,138.0 L1076.0,141.0 L1076.0,143.0 L1077.0,144.0 L1077.0,146.0 L1078.0,148.0 L1081.0,148.0 L1082.0,147.0 L1084.0,147.0 L1087.0,145.0 L1089.0,145.0 L1094.0,142.0 L1096.0,142.0 L1101.0,139.0 L1103.0,139.0 L1106.0,137.0 L1108.0,137.0 L1114.0,134.0 L1114.0,133.0 L1112.0,131.0 L1114.0,127.0 L1112.0,126.0 L1108.0,126.0 L1104.0,124.0 L1102.0,122.0 L1100.0,118.0 L1100.0,111.0 L1098.0,111.0 L1096.0,107.0 Z
M1161.0,83.0 L1160.0,90.0 L1162.0,94.0 L1170.0,98.0 L1176.0,103.0 L1180.0,105.0 L1189.0,115.0 L1192.0,115.0 L1196.0,117.0 L1201.0,117.0 L1203.0,116.0 L1209.0,119.0 L1211.0,119.0 L1212.0,118.0 L1216.0,118.0 L1221.0,121.0 L1223.0,121.0 L1229.0,124.0 L1231.0,126.0 L1235.0,128.0 L1241.0,134.0 L1245.0,141.0 L1245.0,144.0 L1246.0,145.0 L1246.0,152.0 L1245.0,153.0 L1244.0,159.0 L1242.0,163.0 L1240.0,165.0 L1239.0,168.0 L1229.0,179.0 L1229.0,186.0 L1230.0,186.0 L1230.0,185.0 L1232.0,184.0 L1243.0,172.0 L1250.0,158.0 L1250.0,155.0 L1251.0,154.0 L1251.0,143.0 L1250.0,142.0 L1250.0,140.0 L1249.0,139.0 L1249.0,137.0 L1247.0,133.0 L1238.0,124.0 L1237.0,124.0 L1232.0,120.0 L1222.0,115.0 L1220.0,115.0 L1216.0,113.0 L1213.0,109.0 L1210.0,109.0 L1209.0,108.0 L1205.0,107.0 L1204.0,106.0 L1204.0,104.0 L1202.0,102.0 L1198.0,101.0 L1197.0,100.0 L1194.0,100.0 L1193.0,99.0 L1193.0,96.0 L1192.0,94.0 L1189.0,91.0 L1185.0,89.0 L1180.0,88.0 L1179.0,87.0 L1176.0,87.0 L1172.0,85.0 L1169.0,85.0 L1168.0,84.0 Z
M437.0,75.0 L433.0,82.0 L436.0,89.0 L480.0,109.0 L481.0,114.0 L493.0,127.0 L503.0,130.0 L520.0,129.0 L524.0,140.0 L535.0,141.0 L547.0,150.0 L551.0,168.0 L586.0,275.0 L610.0,267.0 L572.0,145.0 L569.0,141.0 L564.0,139.0 L568.0,136.0 L569.0,132.0 L563.0,129.0 L561.0,125.0 L582.0,121.0 L605.0,102.0 L618.0,94.0 L627.0,97.0 L665.0,96.0 L670.0,92.0 L667.0,85.0 L653.0,77.0 L633.0,74.0 L517.0,76.0 L449.0,70.0 Z
M555.0,139.0 L557.0,138.0 L558.0,140.0 L556.0,141.0 Z
M602.0,95.0 L602.0,96.0 L600.0,98.0 L599.0,98.0 L593.0,104.0 L592.0,104.0 L582.0,113.0 L574.0,117.0 L564.0,117.0 L563.0,118.0 L561.0,118.0 L560.0,117.0 L560.0,115.0 L561.0,114.0 L558.0,110.0 L552.0,110.0 L548.0,115.0 L542.0,115.0 L541.0,116.0 L530.0,116.0 L527.0,114.0 L524.0,114.0 L520.0,117.0 L520.0,121.0 L519.0,122.0 L515.0,122.0 L514.0,123.0 L500.0,123.0 L496.0,120.0 L495.0,120.0 L492.0,116.0 L493.0,114.0 L499.0,114.0 L500.0,115.0 L506.0,115.0 L507.0,114.0 L514.0,114.0 L515.0,113.0 L519.0,113.0 L520.0,112.0 L523.0,112.0 L524.0,111.0 L526.0,111.0 L530.0,109.0 L533.0,109.0 L534.0,108.0 L536.0,108.0 L537.0,107.0 L539.0,107.0 L540.0,106.0 L542.0,106.0 L543.0,105.0 L545.0,105.0 L549.0,103.0 L552.0,103.0 L556.0,101.0 L559.0,101.0 L560.0,100.0 L563.0,100.0 L564.0,99.0 L567.0,99.0 L568.0,98.0 L577.0,97.0 L578.0,96.0 L584.0,96.0 L585.0,95.0 L591.0,95.0 L592.0,94.0 L601.0,94.0 Z
M1105.0,111.0 L1105.0,118.0 L1108.0,122.0 L1110.0,123.0 L1116.0,123.0 L1120.0,125.0 L1129.0,133.0 L1133.0,133.0 L1137.0,128.0 L1138.0,125.0 L1141.0,122.0 L1145.0,121.0 L1146.0,123.0 L1144.0,124.0 L1139.0,131.0 L1139.0,135.0 L1141.0,138.0 L1147.0,142.0 L1156.0,146.0 L1163.0,146.0 L1167.0,144.0 L1175.0,136.0 L1177.0,132.0 L1176.0,130.0 L1176.0,128.0 L1177.0,127.0 L1179.0,127.0 L1182.0,129.0 L1187.0,129.0 L1200.0,136.0 L1204.0,136.0 L1205.0,137.0 L1207.0,135.0 L1207.0,133.0 L1204.0,129.0 L1199.0,127.0 L1190.0,121.0 L1176.0,107.0 L1166.0,100.0 L1163.0,99.0 L1158.0,94.0 L1157.0,92.0 L1156.0,73.0 L1154.0,71.0 L1149.0,69.0 L1137.0,68.0 L1133.0,72.0 L1135.0,74.0 L1138.0,80.0 L1138.0,83.0 L1139.0,84.0 L1138.0,92.0 L1135.0,99.0 L1132.0,102.0 L1134.0,105.0 L1133.0,106.0 L1127.0,106.0 L1126.0,107.0 L1124.0,107.0 L1124.0,109.0 L1126.0,113.0 L1134.0,118.0 L1133.0,120.0 L1130.0,120.0 L1120.0,115.0 L1114.0,108.0 L1112.0,108.0 L1111.0,107.0 L1107.0,108.0 Z
M1184.0,122.0 L1186.0,121.0 L1187.0,123.0 L1185.0,124.0 Z
M1154.0,118.0 L1155.0,118.0 L1157.0,120.0 L1157.0,124.0 L1155.0,126.0 L1152.0,126.0 L1150.0,125.0 L1149.0,123.0 L1150.0,122.0 L1153.0,123.0 L1154.0,122.0 L1153.0,121.0 L1153.0,119.0 Z
M1143.0,113.0 L1145.0,112.0 L1146.0,114.0 L1144.0,115.0 Z
M1142.0,105.0 L1145.0,105.0 L1146.0,106.0 L1145.0,108.0 L1145.0,111.0 L1144.0,112.0 L1142.0,111.0 L1142.0,109.0 L1141.0,108.0 L1141.0,106.0 Z
M1135.0,105.0 L1136.0,104.0 L1138.0,104.0 L1139.0,106.0 L1138.0,107.0 L1136.0,107.0 Z
M1035.0,76.0 L1035.0,80.0 L1036.0,81.0 L1036.0,84.0 L1038.0,88.0 L1043.0,93.0 L1045.0,94.0 L1048.0,94.0 L1049.0,95.0 L1051.0,94.0 L1055.0,94.0 L1059.0,96.0 L1067.0,96.0 L1068.0,97.0 L1076.0,97.0 L1077.0,98.0 L1086.0,98.0 L1087.0,99.0 L1094.0,99.0 L1095.0,100.0 L1102.0,100.0 L1103.0,101.0 L1110.0,101.0 L1111.0,102.0 L1119.0,102.0 L1120.0,103.0 L1121.0,102.0 L1124.0,102.0 L1126.0,100.0 L1127.0,100.0 L1129.0,98.0 L1132.0,92.0 L1132.0,88.0 L1133.0,87.0 L1133.0,83.0 L1132.0,82.0 L1132.0,79.0 L1130.0,75.0 L1127.0,72.0 L1125.0,71.0 L1122.0,71.0 L1121.0,70.0 L1114.0,70.0 L1113.0,69.0 L1106.0,69.0 L1105.0,68.0 L1099.0,68.0 L1098.0,67.0 L1090.0,67.0 L1089.0,66.0 L1083.0,66.0 L1082.0,65.0 L1075.0,65.0 L1074.0,64.0 L1067.0,64.0 L1066.0,63.0 L1057.0,63.0 L1053.0,61.0 L1049.0,61.0 L1048.0,62.0 L1046.0,62.0 L1042.0,64.0 L1038.0,68.0 L1036.0,72.0 L1036.0,75.0 Z
M1063.0,84.0 L1065.0,83.0 L1066.0,85.0 L1064.0,86.0 Z
M1064.0,80.0 L1066.0,79.0 L1067.0,80.0 L1067.0,82.0 L1065.0,83.0 L1064.0,82.0 Z
M1064.0,73.0 L1066.0,72.0 L1067.0,74.0 L1065.0,75.0 Z"/>
  </g>
</svg>
