<?xml version="1.0" ?>
<svg xmlns="http://www.w3.org/2000/svg" xmlns:ev="http://www.w3.org/2001/xml-events" xmlns:xlink="http://www.w3.org/1999/xlink" baseProfile="full" height="351.22501mm" id="svg5" version="1.1" viewBox="0 0 529.17029 351.22501" width="529.17029mm" xml:space="preserve">
	<defs/>
	<path d="M 112.885,350.943 C 115.779,350.537 131.689,348.648 135.394,348.269 L 138.495,347.953 L 133.74,347.659 C 131.124,347.496 119.497,347.163 107.899,346.917 C 60.81,345.921 18.776,344.416 8.753,343.369 C 2.276,342.693 -0.533,342.074 0.083,341.46 C 1.125,340.417 14.735,339.063 35.131,337.972 C 41.953,337.607 47.593,337.25 47.664,337.18 C 47.734,337.11 46.34,336.254 44.563,335.28 C 32.262,328.539 21.388,318.509 13.895,306.989 C 7.324,296.89 3.072,285.325 1.2,272.466 C 0.273,266.107 0.561,253.306 1.786,246.419 C 2.722,241.156 4.945,233.175 6.615,229.088 C 8.332,224.887 12.315,217.187 14.844,213.18 C 16.12,211.157 17.113,209.449 17.049,209.386 C 16.99,209.326 14.897,208.703 12.409,208.01 C 2.897,205.36 -0.133,202.402 2.203,198.046 L 2.972,196.612 L 1.79,195.508 L 0.608,194.404 L 0.608,177.805 C 0.608,159.553 0.632,159.371 3.088,158.354 C 5.552,157.332 13.397,158.683 19.559,161.191 C 22.68,162.462 27.503,165.369 30.061,167.524 L 31.606,168.824 L 39.28,165.408 C 48.178,161.448 52.242,159.998 59.111,158.335 C 66.944,156.439 70.945,155.87 79.512,155.438 C 83.911,155.215 87.82,154.867 88.2,154.664 C 89.371,154.037 90.162,152.935 92.826,148.223 C 99.879,135.746 103.236,132.807 109.118,133.961 C 115.594,135.234 122.631,138.216 126.644,141.387 C 129.677,143.784 132.051,147.191 135.261,153.748 C 143.84,171.27 148.047,175.304 157.739,175.304 C 165.753,175.304 171.406,173.557 184.632,166.994 C 199.099,159.814 205.256,157.406 212.089,156.256 C 213.681,155.988 215.298,155.606 215.684,155.405 C 216.068,155.205 219.069,151.729 222.352,147.679 C 236.039,130.799 250.376,116.676 264.598,106.061 C 271.363,101.013 272.913,99.98 281.549,94.78 C 291.306,88.905 297.501,83.815 305.323,75.248 L 308.686,71.566 L 306.917,69.169 C 305.945,67.851 305.122,66.722 305.088,66.658 C 305.053,66.598 304.051,67.201 302.859,68.003 C 300.959,69.28 300.375,69.461 298.133,69.461 C 296.406,69.461 295.057,69.197 293.98,68.647 L 292.385,67.834 L 287.208,71.438 C 284.36,73.421 280.632,76.019 278.923,77.212 C 276.317,79.033 275.522,79.384 273.991,79.384 C 270.709,79.384 268.525,77.265 268.525,74.079 C 268.525,71.965 269.813,70.377 272.992,68.571 C 274.288,67.835 278.246,65.343 281.789,63.033 C 288.164,58.876 288.236,58.812 288.794,56.818 C 289.182,55.431 289.908,54.268 291.126,53.086 L 292.893,51.367 L 291.188,48.94 C 288.052,44.478 286.608,43.432 282.73,42.805 L 281.016,42.528 L 279.96,44.834 C 278.804,47.362 275.604,50.713 272.747,52.392 C 270.686,53.602 266.45,54.116 264.403,53.402 C 263.161,52.968 262.934,53.076 259.508,55.705 C 257.532,57.222 253.683,60.248 250.954,62.43 C 244.604,67.506 243.796,68.055 242.162,68.409 C 240.378,68.796 237.303,67.329 236.237,65.58 C 235.161,63.815 235.191,60.804 236.296,59.397 C 236.763,58.804 241.368,55.408 246.53,51.851 C 251.69,48.296 256.347,44.988 256.878,44.503 C 257.736,43.717 257.812,43.381 257.572,41.45 C 256.814,35.374 260.932,30.018 267.288,28.81 C 269.774,28.338 269.786,28.328 269.539,27.088 C 269.403,26.403 268.793,24.818 268.185,23.568 C 267.22,21.588 266.847,21.22 265.31,20.734 C 262.512,19.849 261.747,20.271 259.963,23.674 C 258.237,26.968 255.897,28.937 252.671,29.81 C 250.35,30.438 246.333,30.065 244.315,29.036 C 242.306,28.012 239.143,24.707 237.969,22.409 C 235.784,18.123 233.798,9.575 233.795,4.427 C 233.795,1.476 234.946,0.0 237.252,0.0 C 238.858,0.0 243.375,1.838 249.637,5.04 C 254.352,7.451 258.202,10.874 259.742,14.027 L 260.636,15.857 L 263.14,15.752 C 266.028,15.633 268.166,16.216 270.075,17.641 C 271.715,18.867 272.386,20.113 273.276,23.582 C 273.984,26.344 275.273,28.899 276.746,30.459 C 277.497,31.256 277.775,31.31 279.153,30.929 C 281.477,30.288 286.948,30.742 289.714,31.806 C 293.066,33.095 295.622,35.27 300.085,40.63 L 303.961,45.286 L 305.861,45.135 C 312.792,44.584 323.566,53.65 334.389,69.141 C 337.459,73.534 340.996,79.336 345.615,87.55 C 346.926,89.883 348.137,91.877 348.307,91.982 C 348.475,92.087 349.338,91.112 350.224,89.817 C 352.48,86.519 357.513,81.606 361.049,79.249 C 367.404,75.012 376.124,71.95 381.854,71.942 C 384.337,71.942 384.756,72.068 386.466,73.374 C 388.623,75.022 391.709,79.454 392.804,82.481 C 393.438,84.232 393.576,86.249 393.712,95.693 C 393.935,111.281 393.204,116.345 390.115,120.61 C 388.15,123.322 385.711,124.617 379.905,126.03 C 377.032,126.73 374.567,127.417 374.428,127.556 C 374.066,127.917 375.599,130.452 379.65,136.19 C 394.435,157.135 405.222,172.907 407.689,177.184 C 408.118,177.927 408.351,177.869 412.263,176.029 C 420.034,172.373 428.068,170.159 441.459,167.979 C 447.293,167.03 449.437,166.884 457.886,166.86 C 467.164,166.84 467.823,166.88 472.531,168.003 C 480.709,169.944 486.513,172.324 493.857,176.749 C 499.531,180.168 500.884,181.289 500.884,182.573 C 500.884,184.547 499.754,185.069 494.889,185.345 C 490.708,185.582 490.284,185.688 488.415,186.962 C 487.315,187.711 486.414,188.438 486.414,188.576 C 486.414,188.714 487.576,189.536 488.997,190.403 C 492.817,192.731 498.15,196.932 502.077,200.705 C 526.738,224.399 535.683,260.678 524.253,290.632 C 522.324,295.688 518.78,302.552 516.091,306.441 C 510.153,315.03 501.203,323.436 491.735,329.315 C 487.887,331.703 478.586,336.491 476.908,336.946 C 476.342,337.099 480.528,337.455 486.21,337.737 C 505.781,338.705 520.987,340.126 522.936,341.171 C 523.625,341.539 523.658,341.664 523.141,341.953 C 518.905,344.323 465.921,346.108 357.293,347.538 C 345.97,347.688 336.793,347.898 336.901,348.007 C 337.006,348.112 339.204,348.369 341.779,348.571 C 346.234,348.921 360.03,350.339 364.839,350.943 C 366.079,351.098 309.436,351.225 238.967,351.225 C 168.496,351.225 111.759,351.096 112.883,350.939 L 112.885,350.943 M 418.609,335.551 C 418.609,335.461 416.983,334.514 414.995,333.455 C 396.432,323.581 381.336,305.569 374.902,285.616 C 374.041,282.945 373.243,280.756 373.129,280.749 C 373.012,280.739 372.578,281.576 372.156,282.6 C 371.736,283.625 370.92,284.833 370.343,285.286 C 368.4,286.815 363.749,286.12 361.714,283.995 C 360.687,282.924 360.561,282.419 360.198,277.956 C 359.703,271.846 360.429,257.774 361.53,252.167 C 362.464,247.411 365.509,236.652 367.812,229.966 C 369.897,223.917 372.131,218.641 375.214,212.485 L 377.611,207.699 L 376.065,205.87 C 373.378,202.689 368.357,195.901 365.996,192.256 C 361.572,185.428 358.729,178.552 357.768,172.36 C 357.178,168.565 357.026,157.115 357.526,154.322 C 357.82,152.679 357.781,152.564 356.906,152.569 C 354.558,152.579 351.662,154.604 345.731,160.383 C 342.443,163.587 339.541,166.209 339.282,166.209 C 338.692,166.209 338.69,166.169 339.433,168.276 C 340.332,170.824 340.208,172.96 338.791,179.331 C 335.571,193.801 332.324,215.846 330.416,236.186 L 330.232,238.149 L 332.558,238.149 C 338.126,238.149 340.952,243.16 338.157,248.071 C 336.325,251.289 333.291,255.013 331.692,256.004 L 330.152,256.959 L 330.152,260.577 L 330.14,264.195 L 332.453,264.195 C 337.096,264.195 338.823,266.539 338.823,272.842 C 338.823,279.016 337.484,280.733 332.67,280.733 L 330.199,280.733 L 329.563,282.921 C 328.247,287.448 324.119,291.612 318.967,293.61 C 317.333,294.244 315.514,294.531 312.424,294.64 C 310.071,294.72 307.931,294.916 307.669,295.067 C 307.408,295.217 304.838,296.984 301.96,298.993 L 296.725,302.646 L 235.08,302.646 C 174.734,302.646 173.353,302.636 169.681,301.81 C 167.619,301.351 163.928,300.328 161.481,299.537 C 159.034,298.746 156.863,298.101 156.657,298.105 C 156.452,298.105 155.074,300.079 153.596,302.484 C 145.674,315.374 135.689,325.501 123.639,332.865 C 121.693,334.054 120.148,335.06 120.207,335.1 C 120.266,335.13 141.151,335.02 166.62,334.825 C 227.249,334.372 413.162,334.984 418.103,335.653 C 418.386,335.683 418.62,335.643 418.62,335.547 L 418.609,335.551 M 452.894,326.318 C 452.882,326.148 451.99,324.426 450.925,322.494 L 448.987,318.979 L 446.786,318.853 C 444.26,318.708 444.267,318.661 446.163,322.896 C 447.658,326.237 448.135,326.628 450.716,326.628 C 451.931,326.628 452.911,326.489 452.894,326.318 L 452.894,326.318 M 460.712,326.318 C 459.735,324.117 456.667,319.608 456.026,319.429 C 454.605,319.03 452.099,319.165 452.099,319.64 C 452.099,319.89 452.863,321.563 453.798,323.361 L 455.498,326.628 L 458.175,326.628 C 459.645,326.628 460.788,326.489 460.712,326.318 L 460.712,326.318 M 443.968,322.803 C 443.184,320.928 442.407,319.134 442.239,318.817 C 442.059,318.475 439.928,317.837 436.991,317.246 C 421.308,314.086 409.385,306.761 400.317,294.715 C 399.761,293.977 399.839,294.468 400.657,296.86 C 402.475,302.171 405.326,307.516 407.686,310.035 L 409.869,312.364 L 409.528,310.71 C 408.984,308.069 408.76,305.128 409.105,305.128 C 409.441,305.128 409.721,306.416 410.184,310.091 C 410.572,313.176 411.907,314.331 419.436,318.094 C 426.18,321.465 432.769,323.803 439.488,325.209 C 446.003,326.572 445.626,326.775 443.968,322.803 L 443.968,322.803 M 467.775,325.754 C 469.272,325.501 470.63,325.173 470.792,325.025 C 471.062,324.779 468.034,320.061 466.861,318.899 C 466.48,318.522 465.579,318.512 463.055,318.869 C 461.236,319.119 459.689,319.368 459.616,319.425 C 459.43,319.571 461.561,323.734 462.516,325.088 C 463.413,326.359 463.894,326.421 467.776,325.764 L 467.775,325.754 M 477.593,323.059 L 478.989,322.475 L 477.919,321.347 C 477.331,320.727 476.26,319.413 475.54,318.425 C 474.311,316.739 474.138,316.645 472.699,316.875 C 471.855,317.01 470.675,317.308 470.075,317.536 L 468.984,317.951 L 470.537,320.119 C 473.216,323.86 473.624,324.207 474.983,323.909 C 475.651,323.762 476.826,323.38 477.593,323.059 M 482.571,320.757 C 483.207,320.484 484.24,319.913 484.864,319.488 L 486.002,318.716 L 483.832,316.084 C 482.638,314.638 481.425,313.441 481.137,313.425 C 480.849,313.415 479.596,313.972 478.353,314.674 L 476.091,315.95 L 478.255,318.573 C 479.446,320.017 480.644,321.21 480.917,321.226 C 481.191,321.236 481.935,321.03 482.571,320.757 M 87.109,320.198 C 91.458,319.6 94.219,319.054 95.702,318.5 C 96.084,318.357 95.448,317.948 94.048,317.434 C 92.109,316.724 90.561,316.582 83.505,316.474 C 74.576,316.338 69.571,315.72 63.752,314.033 C 61.761,313.456 59.814,312.984 59.424,312.984 C 58.18,312.984 53.071,315.122 53.223,315.579 C 53.569,316.614 63.86,319.648 69.454,320.365 C 74.123,320.963 82.093,320.888 87.109,320.198 L 87.109,320.198 M 101.727,316.858 C 105.685,315.546 105.103,315.227 99.684,315.74 L 96.844,316.007 L 97.823,316.76 C 99.032,317.69 99.202,317.693 101.727,316.85 L 101.727,316.858 M 491.33,314.764 L 493.558,312.758 L 491.194,310.597 C 489.893,309.408 488.608,308.436 488.338,308.436 C 487.942,308.436 484.849,310.747 483.412,312.116 C 483.238,312.281 484.136,313.567 485.408,314.972 C 488.04,317.882 487.862,317.888 491.33,314.764 L 491.33,314.764 M 52.608,313.264 C 53.456,312.736 54.507,312.172 54.943,312.01 C 55.987,311.623 55.683,311.379 51.257,309.031 C 49.209,307.946 46.345,306.239 44.889,305.237 L 42.243,303.416 L 39.328,304.131 L 36.413,304.845 L 38.46,306.701 C 42.807,310.644 48.331,314.203 50.127,314.217 C 50.644,314.217 51.759,313.793 52.608,313.264 M 497.253,309.381 C 498.342,308.31 499.232,307.314 499.232,307.169 C 499.232,307.023 498.098,306.013 496.712,304.924 L 494.191,302.944 L 492.095,305.039 L 490.0,307.135 L 491.397,308.302 C 492.165,308.944 493.265,309.883 493.842,310.387 C 494.418,310.891 494.977,311.311 495.083,311.318 C 495.188,311.328 496.166,310.454 497.253,309.381 L 497.253,309.381 M 456.026,307.151 C 474.246,304.919 489.001,292.968 494.662,275.861 C 499.316,261.796 497.373,247.268 489.153,234.658 C 482.899,225.064 472.563,217.542 461.805,214.754 C 456.31,213.33 448.506,212.972 443.187,213.9 C 439.773,214.497 433.744,216.261 433.175,216.83 C 433.005,217.0 436.678,222.762 438.299,224.866 C 438.369,224.946 439.868,224.63 441.64,224.154 C 451.418,221.528 462.981,223.222 471.47,228.525 C 481.046,234.506 487.992,244.828 489.742,255.676 C 490.447,260.043 490.047,268.884 488.962,272.962 C 485.686,285.26 476.193,295.666 464.461,299.817 C 454.795,303.238 444.701,302.979 435.411,299.071 C 427.16,295.601 419.259,287.668 415.253,278.833 C 413.854,275.75 411.993,268.983 411.993,266.981 C 411.993,266.031 411.555,265.344 410.133,264.066 C 409.11,263.146 408.272,262.206 408.272,261.978 C 408.272,261.749 408.672,261.138 409.161,260.618 C 409.934,259.794 409.974,259.584 409.47,258.974 C 409.152,258.588 408.102,257.924 407.135,257.495 L 405.379,256.716 L 405.332,253.324 L 405.285,249.932 L 404.897,252.413 C 404.685,253.777 404.596,258.056 404.7,261.923 C 404.924,270.243 405.833,274.204 409.087,281.019 C 411.405,285.872 412.758,287.943 416.048,291.664 C 423.616,300.225 433.309,305.381 444.87,307.001 C 449.71,307.679 451.53,307.703 456.033,307.151 L 456.026,307.151 M 473.598,305.128 C 473.939,304.908 474.032,304.727 473.804,304.727 C 473.577,304.727 473.113,304.908 472.772,305.128 C 472.429,305.349 472.337,305.529 472.564,305.529 C 472.792,305.529 473.257,305.349 473.598,305.128 M 503.088,302.995 L 505.357,300.45 L 503.949,299.495 C 503.176,298.969 501.987,298.129 501.309,297.629 C 500.09,296.726 500.066,296.725 499.195,297.512 C 498.71,297.949 497.741,299.029 497.039,299.914 L 495.765,301.521 L 498.015,303.518 C 499.253,304.616 500.391,305.521 500.543,305.528 C 500.696,305.538 501.841,304.396 503.088,302.995 L 503.088,302.995 M 480.214,301.179 C 486.605,296.492 491.309,291.41 494.761,285.461 C 499.726,276.901 502.135,266.828 501.568,256.997 C 500.215,233.589 483.008,213.734 460.349,209.435 C 453.645,208.164 443.917,208.864 437.115,211.11 C 432.618,212.595 432.76,213.021 437.329,211.759 C 440.809,210.798 441.864,210.704 449.412,210.683 C 457.15,210.663 457.952,210.733 461.924,211.792 C 470.928,214.192 477.401,217.783 484.026,224.053 C 491.786,231.399 497.319,241.807 499.011,252.241 C 501.623,268.349 496.898,284.392 486.352,295.225 C 483.273,298.386 478.22,302.406 475.768,303.645 C 475.03,304.017 474.425,304.415 474.425,304.527 C 474.425,304.934 477.584,303.107 480.214,301.179 L 480.214,301.179 M 37.946,302.53 C 39.041,302.246 39.898,301.83 39.851,301.608 C 39.804,301.384 37.958,299.294 35.75,296.963 L 31.734,292.725 L 29.387,292.725 C 27.082,292.725 27.049,292.735 27.535,293.656 C 28.136,294.782 30.797,298.416 32.985,301.098 C 34.723,303.227 34.976,303.3 37.946,302.53 L 37.946,302.53 M 89.707,302.171 C 92.678,301.584 99.168,299.417 100.088,298.707 C 100.778,298.173 98.659,298.108 82.162,298.16 C 71.872,298.19 63.454,298.36 63.454,298.533 C 63.454,299.329 73.414,302.269 77.924,302.803 C 79.977,303.047 87.257,302.657 89.707,302.171 M 420.469,300.083 C 411.675,292.713 405.966,283.471 403.015,271.826 C 401.931,267.547 401.867,266.79 401.865,258.08 C 401.865,249.627 401.818,249.06 401.336,251.258 C 400.408,255.472 400.251,263.896 401.013,268.538 C 403.058,280.991 409.17,291.527 418.881,299.34 C 422.368,302.144 423.639,302.74 420.469,300.083 L 420.469,300.083 M 508.097,296.478 C 509.134,295.13 509.982,293.947 509.982,293.85 C 509.982,293.629 505.181,290.244 504.867,290.244 C 504.741,290.244 503.855,291.396 502.899,292.805 C 501.294,295.169 501.218,295.398 501.91,295.803 C 502.322,296.043 503.423,296.829 504.357,297.551 C 505.29,298.272 506.09,298.877 506.134,298.894 C 506.181,298.904 507.061,297.824 508.097,296.478 M 458.401,294.544 C 468.796,292.433 477.734,285.662 482.211,276.504 C 484.943,270.915 485.721,267.653 485.688,261.923 C 485.641,252.732 482.18,244.617 475.546,238.11 C 468.81,231.504 461.128,228.229 452.259,228.185 C 447.874,228.165 442.779,228.808 442.033,229.48 C 441.839,229.653 443.042,231.628 444.704,233.869 C 446.366,236.11 447.778,238.02 447.843,238.114 C 447.913,238.204 449.032,238.246 450.34,238.194 C 458.177,237.914 466.377,242.277 470.779,249.066 C 475.695,256.649 475.858,267.967 471.156,275.294 C 469.392,278.043 465.526,281.645 462.932,282.96 C 458.055,285.432 449.987,286.37 444.847,285.064 C 438.602,283.476 432.924,279.306 429.737,273.967 L 428.325,271.599 L 426.258,271.72 C 423.785,271.863 423.733,272.279 425.77,275.707 C 427.7,278.957 431.417,282.836 434.562,284.886 C 436.082,285.876 437.115,286.756 436.858,286.842 C 435.909,287.158 432.184,285.573 429.876,283.87 C 425.516,280.653 422.988,277.37 420.722,271.982 C 420.067,270.425 419.664,270.004 418.612,269.772 C 417.896,269.615 417.23,269.566 417.133,269.666 C 416.843,269.957 418.808,275.374 420.208,278.146 C 425.253,288.134 440.672,296.223 452.925,295.309 C 454.403,295.203 456.868,294.853 458.401,294.542 L 458.401,294.544 M 453.98,288.618 C 454.698,287.913 464.613,284.076 466.328,283.839 C 467.347,283.7 468.408,283.819 469.004,284.134 C 471.238,285.33 469.901,286.068 462.441,287.763 C 457.013,288.995 453.204,289.38 453.98,288.618 M 472.772,282.579 C 472.772,282.001 473.165,280.745 473.648,279.789 C 475.032,277.042 475.161,276.945 476.534,277.656 C 477.194,277.997 477.733,278.388 477.733,278.526 C 477.733,279.589 473.991,283.629 473.005,283.629 C 472.876,283.629 472.772,283.157 472.772,282.579 M 479.847,270.436 C 479.245,270.055 479.274,269.817 480.398,265.864 C 481.544,261.829 481.066,255.954 479.307,252.477 C 478.302,250.491 478.724,249.943 480.015,251.557 C 482.451,254.605 484.063,262.011 483.194,266.164 C 482.724,268.407 481.669,270.403 480.808,270.676 C 480.595,270.746 480.162,270.646 479.847,270.436 L 479.847,270.436 M 475.764,247.969 C 475.102,247.146 472.288,241.388 472.463,241.214 C 472.858,240.819 477.153,243.866 477.821,245.014 C 478.547,246.267 478.545,246.326 477.703,247.392 C 476.742,248.614 476.37,248.724 475.761,247.969 L 475.764,247.969 M 459.852,237.295 C 457.942,236.767 453.283,233.979 453.45,233.464 C 453.835,232.294 459.916,232.976 461.658,234.385 C 462.335,234.934 462.493,235.378 462.294,236.173 C 461.976,237.439 461.374,237.715 459.852,237.295 L 459.852,237.295 M 248.266,291.739 C 253.862,290.925 260.308,289.432 264.737,287.925 C 268.407,286.675 279.276,281.584 279.276,281.114 C 279.276,280.938 277.647,280.732 275.658,280.655 C 272.627,280.538 271.681,280.665 269.832,281.446 C 266.664,282.781 261.737,284.29 257.068,285.356 C 253.022,286.279 253.0,286.279 199.716,286.505 L 146.413,286.73 L 145.882,289.004 C 145.59,290.255 145.344,291.509 145.334,291.79 C 145.311,292.41 162.127,292.591 210.849,292.497 C 239.003,292.437 244.168,292.337 248.266,291.739 L 248.266,291.739 M 137.713,291.581 C 138.288,291.202 139.399,289.063 139.591,287.967 C 139.734,287.15 139.388,287.142 93.883,286.937 L 48.031,286.73 L 47.509,285.22 L 46.986,283.71 L 83.437,283.537 C 116.63,283.378 120.166,283.296 122.991,282.624 C 128.827,281.234 132.009,278.907 133.352,275.05 C 133.781,273.819 133.968,273.706 135.577,273.706 C 137.444,273.706 138.366,274.375 138.897,276.114 C 139.42,277.827 139.447,276.879 138.967,273.706 L 138.497,270.605 L 91.317,270.499 L 44.139,270.394 L 43.046,271.253 C 42.171,271.942 42.009,272.331 42.23,273.218 C 42.892,275.885 47.773,288.351 48.446,289.094 C 49.764,290.55 51.6,291.226 54.98,291.5 C 59.613,291.877 137.154,291.952 137.715,291.58 L 137.713,291.581 M 512.607,289.432 L 513.858,287.217 L 512.571,286.147 C 511.863,285.557 510.731,284.751 510.054,284.354 L 508.822,283.63 L 508.009,285.009 C 507.561,285.767 506.881,286.869 506.496,287.455 L 505.797,288.522 L 508.2,290.188 C 509.521,291.104 510.771,291.807 510.979,291.75 C 511.186,291.69 511.919,290.651 512.607,289.432 L 512.607,289.432 M 30.79,290.894 C 30.79,290.508 27.79,285.71 27.288,285.292 C 26.993,285.047 25.795,284.6 24.627,284.296 C 22.542,283.756 22.508,283.762 22.773,284.617 C 22.921,285.097 23.673,286.746 24.441,288.281 L 25.84,291.071 L 28.315,291.071 C 29.677,291.071 30.79,290.991 30.79,290.894 L 30.79,290.894 M 38.424,282.924 C 38.019,281.379 37.55,279.956 37.381,279.763 C 37.213,279.569 36.668,279.823 36.171,280.316 C 34.958,281.529 35.33,283.027 37.278,284.766 C 38.107,285.506 38.869,286.025 38.972,285.922 C 39.077,285.816 38.83,284.468 38.424,282.924 L 38.424,282.924 M 515.695,283.104 C 516.19,281.906 516.597,280.733 516.597,280.499 C 516.597,280.095 513.244,278.255 512.507,278.255 C 512.186,278.255 509.982,281.297 509.982,281.741 C 509.982,281.983 514.232,285.267 514.557,285.276 C 514.686,285.276 515.198,284.302 515.695,283.104 M 26.244,282.492 C 26.244,282.321 25.585,280.478 24.779,278.395 C 23.404,274.845 23.211,274.567 21.668,273.951 C 19.334,273.017 19.107,273.086 19.416,274.637 C 19.821,276.662 21.338,281.288 21.781,281.85 C 21.997,282.122 22.948,282.415 23.898,282.501 C 24.846,282.581 25.761,282.691 25.932,282.73 C 26.102,282.77 26.243,282.66 26.244,282.492 L 26.244,282.492 M 168.265,278.506 C 176.878,277.034 183.975,274.676 192.142,270.574 C 203.669,264.785 214.148,256.227 219.102,248.557 C 223.178,242.249 227.475,231.538 229.048,223.77 L 229.74,220.348 L 227.968,217.25 C 226.993,215.546 226.002,214.217 225.764,214.297 C 225.527,214.377 225.16,215.077 224.95,215.855 C 222.536,224.819 217.671,237.754 215.0,242.311 C 207.788,254.617 195.559,263.949 180.963,268.284 C 173.263,270.572 167.693,271.295 155.941,271.531 L 145.274,271.745 L 145.486,272.829 C 145.603,273.425 145.82,275.029 145.972,276.393 C 146.123,277.758 146.343,279.039 146.461,279.24 C 146.793,279.809 164.048,279.23 168.265,278.506 M 224.264,278.074 C 224.635,277.626 224.641,277.264 224.287,276.603 C 223.675,275.458 220.86,275.551 220.637,276.724 C 220.32,278.402 223.125,279.446 224.263,278.074 L 224.264,278.074 M 252.918,277.828 C 251.824,277.388 251.654,275.737 252.62,274.937 C 253.106,274.532 253.491,274.521 254.285,274.877 C 255.685,275.515 256.034,276.574 255.077,277.275 C 253.962,278.089 254.458,277.978 257.99,276.617 C 261.232,275.37 263.978,273.609 263.978,272.778 C 263.978,272.521 262.979,270.809 261.758,268.975 C 260.538,267.14 259.21,264.753 258.807,263.672 C 256.869,258.467 259.917,251.574 265.336,248.906 C 270.922,246.156 276.727,247.604 281.029,252.818 C 282.225,254.268 283.331,255.465 283.487,255.481 C 284.022,255.541 288.365,250.095 288.629,249.043 C 289.334,246.236 286.628,242.41 283.275,241.472 C 281.203,240.892 279.734,241.051 275.615,242.305 C 272.479,243.26 268.368,243.33 265.218,242.485 C 260.354,241.18 256.649,241.926 254.589,244.628 C 252.826,246.939 252.881,249.062 254.868,255.286 C 256.226,259.544 256.522,260.989 256.304,262.316 C 255.916,264.672 254.48,268.062 252.47,271.366 C 250.004,275.421 250.139,278.289 252.793,278.223 C 253.835,278.203 253.837,278.193 252.918,277.822 L 252.918,277.828 M 256.62,249.077 C 255.058,247.983 255.691,246.005 257.601,246.005 C 259.483,246.005 259.994,248.082 258.377,249.154 C 257.656,249.632 257.396,249.62 256.62,249.074 L 256.62,249.077 M 283.306,248.866 C 282.194,248.219 282.382,246.475 283.613,246.006 C 284.919,245.509 285.746,245.824 286.035,246.927 C 286.521,248.786 285.012,249.859 283.306,248.866 M 457.596,275.873 C 466.185,271.854 469.131,261.72 464.026,253.763 C 462.225,250.956 457.099,247.245 455.024,247.245 C 454.799,247.245 455.731,248.913 457.093,250.949 C 461.869,258.088 462.896,261.803 461.192,265.763 C 460.165,268.152 457.409,270.937 455.071,271.949 C 454.163,272.343 452.374,272.613 450.652,272.617 C 445.179,272.627 441.703,270.104 436.938,262.646 C 435.448,260.316 434.064,258.408 433.862,258.408 C 433.288,258.408 433.427,261.286 434.131,264.007 C 436.815,274.379 448.337,280.206 457.596,275.873 L 457.596,275.873 M 369.157,274.93 C 371.094,273.229 371.965,271.643 376.638,261.303 C 383.851,245.337 389.673,234.806 393.476,230.837 L 394.738,229.521 L 393.683,227.737 C 393.102,226.755 391.887,224.966 390.982,223.762 C 388.632,220.635 380.954,211.685 380.633,211.701 C 380.336,211.711 378.723,214.425 373.922,222.983 C 368.269,233.061 364.005,243.436 362.534,250.69 L 361.877,253.929 L 362.912,255.031 C 363.939,256.128 363.946,256.191 364.147,265.707 C 364.252,270.973 364.475,275.484 364.628,275.734 C 365.206,276.668 367.677,276.229 369.157,274.93 L 369.157,274.93 M 332.774,274.706 C 332.911,274.346 333.025,273.245 333.025,272.259 C 333.025,268.85 335.817,269.153 304.762,269.199 C 289.493,269.219 275.978,269.361 274.728,269.509 L 272.455,269.779 L 272.317,271.975 C 272.247,273.182 272.282,274.439 272.411,274.765 C 272.606,275.275 276.917,275.36 302.584,275.36 C 329.507,275.36 332.553,275.29 332.779,274.706 L 332.774,274.706 M 22.774,271.742 C 22.122,269.563 21.184,262.713 21.133,259.756 C 21.098,257.882 20.948,256.346 20.794,256.344 C 20.349,256.344 18.765,260.875 18.342,263.37 C 17.897,265.994 18.26,270.681 18.952,271.128 C 19.421,271.432 22.017,272.341 22.652,272.423 C 22.838,272.443 22.893,272.14 22.774,271.742 L 22.774,271.742 M 245.902,270.832 C 246.08,270.669 246.118,270.254 245.984,269.91 C 245.792,269.407 244.947,269.286 241.726,269.302 C 234.156,269.332 232.272,268.125 225.797,259.057 C 223.696,256.118 221.753,253.637 221.478,253.545 C 220.356,253.172 221.112,254.914 223.372,257.916 C 224.689,259.664 226.625,262.305 227.674,263.783 C 231.435,269.083 233.909,270.737 238.755,271.196 C 241.73,271.478 245.4,271.286 245.901,270.832 L 245.902,270.832 M 38.683,265.826 L 40.17,264.354 L 40.415,258.797 C 40.814,249.766 43.333,241.986 48.2,234.75 C 50.346,231.561 55.156,226.735 58.211,224.706 L 60.488,223.194 L 60.627,220.748 C 60.709,219.403 60.709,218.302 60.651,218.302 C 60.581,218.302 59.748,218.702 58.791,219.188 C 51.026,223.137 43.747,230.853 39.725,239.399 C 35.926,247.471 34.544,257.92 36.04,267.268 C 36.274,268.734 36.355,268.831 36.754,268.111 C 37.001,267.663 37.872,266.635 38.689,265.826 L 38.683,265.826 M 269.973,264.709 C 270.427,264.479 271.799,264.157 273.02,263.993 C 274.998,263.724 275.592,263.381 278.498,260.821 C 280.29,259.241 281.756,257.795 281.756,257.606 C 281.756,257.418 280.57,256.153 279.121,254.798 C 274.221,250.213 270.179,249.078 266.108,251.14 C 263.861,252.28 261.233,254.979 260.837,256.556 C 260.436,258.155 261.038,258.358 262.036,256.961 C 264.384,253.672 267.459,251.818 270.593,251.801 C 272.134,251.791 272.933,252.118 275.244,253.697 C 276.779,254.744 278.035,255.769 278.035,255.971 C 278.035,256.175 276.849,256.341 275.399,256.341 C 271.182,256.341 266.929,258.327 265.218,261.097 C 264.076,262.944 264.178,263.926 265.691,265.65 L 266.992,267.13 L 268.069,266.128 C 268.661,265.576 269.518,264.937 269.973,264.709 L 269.973,264.709 M 158.991,261.476 C 159.121,259.448 159.138,255.587 159.026,252.896 C 158.862,248.843 158.691,247.85 158.034,247.108 L 157.242,246.211 L 157.48,247.607 C 157.61,248.375 157.717,252.716 157.717,257.255 C 157.717,263.671 157.834,265.468 158.233,265.336 C 158.57,265.218 158.832,263.881 158.987,261.476 L 158.991,261.476 M 65.52,262.631 C 65.52,258.21 68.156,255.603 78.659,249.637 C 82.652,247.368 83.674,246.59 84.249,245.385 C 85.389,242.995 85.233,242.697 82.842,242.697 C 75.709,242.697 68.972,247.005 65.677,253.673 C 64.345,256.366 64.103,257.3 63.943,260.339 C 63.802,263.053 63.884,263.959 64.329,264.236 C 65.345,264.88 65.52,264.644 65.52,262.631 L 65.52,262.631 M 235.035,264.188 C 235.035,263.507 225.969,250.14 225.507,250.14 C 224.65,250.14 224.668,251.35 225.554,253.097 C 227.136,256.229 230.727,261.503 232.356,263.084 C 233.885,264.569 235.04,265.044 235.04,264.188 L 235.035,264.188 M 452.544,263.547 C 453.717,262.485 453.509,262.07 452.183,262.831 C 450.627,263.724 448.188,263.269 447.305,261.922 C 446.435,260.594 446.741,260.236 449.414,259.459 C 452.024,258.7 452.502,257.802 451.668,255.226 C 450.178,250.635 447.0,245.592 436.252,230.771 C 432.238,225.236 424.44,213.94 418.923,205.671 C 413.407,197.401 408.682,190.627 408.427,190.619 C 408.17,190.609 407.728,190.881 407.446,191.222 C 407.153,191.575 406.252,191.842 405.355,191.842 C 402.914,191.842 401.658,192.472 401.658,193.693 C 401.658,194.268 402.647,196.645 403.855,198.975 C 409.19,209.263 416.749,220.608 430.371,238.769 C 440.216,251.896 443.184,256.264 444.496,259.562 C 445.606,262.349 446.09,263.083 447.344,263.873 C 448.82,264.802 451.331,264.645 452.544,263.547 L 452.544,263.547 M 48.718,263.266 C 50.174,255.091 51.49,251.424 53.719,249.33 C 55.047,248.082 55.081,248.699 53.868,252.015 C 53.194,253.857 52.922,255.708 52.791,259.339 L 52.616,264.196 L 53.899,264.196 L 55.184,264.196 L 55.184,261.162 C 55.184,254.137 57.969,247.764 63.445,242.256 C 68.979,236.69 75.103,234.014 82.309,234.014 C 84.122,234.014 86.703,234.3 88.045,234.651 L 90.484,235.286 L 91.543,234.224 C 92.862,232.9 92.626,232.725 88.109,231.687 C 85.663,231.124 83.253,230.924 79.267,230.951 C 72.014,231.001 72.054,230.164 79.373,228.76 C 83.114,228.043 88.013,228.236 92.374,229.273 L 95.038,229.908 L 96.079,228.866 C 97.336,227.61 97.175,227.417 93.664,225.953 C 88.171,223.662 81.044,223.048 74.705,224.316 C 71.371,224.984 65.185,227.695 62.008,229.881 C 55.192,234.57 49.74,242.928 47.926,251.47 C 47.23,254.746 46.92,262.848 47.458,263.68 C 47.975,264.478 48.538,264.294 48.72,263.266 L 48.718,263.266 M 98.879,263.296 C 99.667,262.557 100.192,261.301 99.714,261.301 C 99.644,261.301 98.391,261.948 96.923,262.739 L 94.255,264.177 L 96.089,264.187 C 97.412,264.197 98.19,263.946 98.879,263.296 M 125.206,262.646 C 126.332,255.827 124.469,245.463 120.68,237.478 L 119.203,234.367 L 117.803,235.948 C 117.035,236.816 116.294,237.849 116.159,238.241 C 116.023,238.634 116.595,240.663 117.43,242.749 C 119.496,247.913 120.56,253.402 120.646,259.336 L 120.716,264.193 L 122.832,264.193 L 124.949,264.193 L 125.206,262.646 M 301.942,254.84 C 307.245,249.93 312.419,244.863 313.438,243.581 C 315.831,240.57 318.707,234.695 319.842,230.499 C 321.05,226.033 321.216,216.588 320.115,214.906 C 319.722,214.307 319.034,213.701 318.584,213.558 C 317.735,213.288 315.52,214.217 314.998,215.06 C 314.833,215.328 314.736,217.608 314.782,220.128 C 314.888,225.728 313.987,229.647 311.503,234.419 C 309.198,238.849 306.057,242.435 294.384,253.951 L 284.443,263.758 L 288.372,263.758 L 292.299,263.758 L 301.942,254.84 M 421.644,262.567 C 422.689,262.17 424.398,260.575 424.398,259.996 C 424.398,259.818 423.752,260.113 422.964,260.645 C 419.8,262.792 416.483,262.193 414.5,259.119 C 413.6,257.722 413.427,257.624 412.866,258.184 C 412.305,258.745 412.329,258.933 413.084,259.954 C 415.07,262.634 418.619,263.717 421.644,262.567 L 421.644,262.567 M 180.925,261.088 C 181.92,260.743 182.987,260.368 183.298,260.256 C 183.748,260.092 183.758,259.928 183.357,259.436 C 182.51,258.415 180.966,258.729 179.323,260.257 C 177.584,261.874 178.016,262.098 180.931,261.088 L 180.925,261.088 M 72.417,260.677 C 73.696,260.142 84.131,253.84 85.07,253.035 C 85.465,252.697 85.011,251.378 84.495,251.378 C 84.035,251.378 71.305,259.099 70.536,259.846 C 70.225,260.148 70.096,260.599 70.25,260.848 C 70.606,261.424 70.632,261.423 72.417,260.677 L 72.417,260.677 M 421.656,257.877 C 422.867,256.249 423.155,251.278 422.106,250.121 C 421.285,249.211 419.056,249.029 418.278,249.808 C 417.989,250.096 417.782,251.481 417.782,253.121 C 417.782,254.67 417.55,256.319 417.265,256.786 C 416.817,257.522 416.882,257.743 417.75,258.455 C 419.065,259.533 420.593,259.307 421.656,257.877 L 421.656,257.877 M 108.886,256.443 C 108.41,252.633 108.451,250.047 108.98,250.376 C 109.235,250.533 110.251,252.405 111.241,254.534 C 112.62,257.508 113.228,258.408 113.854,258.408 C 114.303,258.408 114.765,258.254 114.881,258.067 C 115.423,257.188 113.677,248.575 112.327,245.481 L 111.592,243.795 L 108.195,248.259 C 106.325,250.715 104.796,253.004 104.796,253.346 C 104.796,254.077 106.229,256.564 107.416,257.891 C 108.824,259.465 109.213,259.082 108.884,256.443 L 108.886,256.443 M 138.851,256.493 C 140.014,254.054 141.177,248.494 141.174,245.384 C 141.174,242.316 139.842,234.99 139.164,234.312 C 138.645,233.793 136.991,234.222 135.819,235.162 L 134.899,235.907 L 136.261,241.266 C 137.465,246.002 137.625,247.285 137.645,252.308 C 137.657,255.434 137.773,257.991 137.901,257.992 C 138.03,257.992 138.457,257.32 138.851,256.493 M 316.862,256.981 C 318.482,256.143 319.026,254.521 318.883,250.963 L 318.76,247.918 L 317.551,249.752 C 316.886,250.761 315.347,252.63 314.132,253.906 C 312.446,255.676 312.046,256.325 312.447,256.641 C 313.766,257.686 315.274,257.801 316.862,256.981 L 316.862,256.981 M 415.104,254.656 C 415.254,254.184 415.28,253.7 415.163,253.581 C 414.83,253.249 408.28,252.478 408.017,252.741 C 407.891,252.867 407.9,253.342 408.052,253.795 C 408.256,254.438 408.881,254.707 410.881,255.014 C 414.684,255.599 414.816,255.587 415.111,254.656 L 415.104,254.656 M 99.264,254.131 L 100.391,253.161 L 97.859,252.932 C 95.029,252.675 92.301,251.373 91.052,249.683 C 90.02,248.287 89.894,246.059 90.812,245.464 C 91.376,245.098 91.857,245.339 93.387,246.751 C 94.91,248.153 95.571,248.485 96.841,248.485 C 98.95,248.485 99.795,247.81 102.509,243.959 C 106.208,238.711 113.455,229.895 122.793,219.287 C 127.572,213.857 132.099,208.623 132.853,207.656 C 133.891,206.325 134.507,205.9 135.395,205.9 C 137.11,205.9 138.094,205.467 137.392,205.022 C 137.089,204.83 136.417,204.669 135.899,204.665 C 135.381,204.665 133.867,204.109 132.534,203.436 C 130.649,202.484 129.827,201.751 128.828,200.129 C 128.123,198.982 127.393,198.044 127.206,198.044 C 126.627,198.044 125.249,199.708 108.198,220.99 C 99.088,232.361 90.876,242.469 89.948,243.455 C 88.528,244.962 88.26,245.521 88.26,246.976 C 88.26,250.387 91.012,253.395 95.154,254.508 C 97.881,255.242 97.984,255.232 99.264,254.131 L 99.264,254.131 M 194.133,251.551 C 194.904,250.622 194.11,249.519 192.657,249.519 C 191.21,249.519 190.41,250.622 191.181,251.551 C 191.48,251.912 192.144,252.206 192.657,252.206 C 193.17,252.206 193.834,251.912 194.133,251.551 M 330.212,251.069 C 331.567,249.62 335.092,244.43 335.092,243.884 C 335.092,242.804 334.163,241.87 333.09,241.87 C 331.076,241.87 324.341,248.06 324.341,249.911 C 324.341,250.751 326.713,252.203 328.088,252.205 C 328.713,252.205 329.585,251.739 330.212,251.069 M 424.62,248.246 C 423.105,245.934 419.161,244.659 416.372,245.579 C 414.852,246.08 413.099,247.873 413.36,248.659 C 413.597,249.369 414.888,249.447 414.888,248.749 C 414.888,248.408 415.378,247.744 415.977,247.271 C 418.084,245.614 422.237,246.444 424.039,248.882 C 425.142,250.374 425.651,249.815 424.62,248.243 L 424.62,248.246 M 245.083,248.226 C 246.383,248.01 246.634,247.814 246.53,247.092 C 246.413,246.27 246.099,246.206 241.031,245.989 C 238.074,245.863 235.284,245.604 234.829,245.414 C 234.374,245.223 233.118,244.339 232.039,243.449 C 230.139,241.883 229.247,241.714 229.247,242.922 C 229.247,243.851 231.595,246.268 233.281,247.078 C 235.393,248.092 242.001,248.734 245.083,248.226 M 411.239,247.536 C 409.833,246.041 410.24,244.024 411.973,243.9 C 412.325,243.88 414.077,242.285 415.866,240.367 C 419.043,236.963 419.1,236.862 418.374,236.059 C 417.242,234.809 414.937,233.502 414.296,233.748 C 412.952,234.264 408.023,243.035 407.595,245.669 C 407.376,247.018 407.474,247.245 408.535,247.819 C 409.186,248.172 410.264,248.468 410.929,248.478 L 412.138,248.488 L 411.239,247.536 M 175.79,246.676 C 176.69,246.359 181.132,243.787 185.662,240.962 C 190.192,238.137 196.223,234.41 199.066,232.68 C 204.655,229.279 206.138,227.97 206.864,225.796 C 207.535,223.792 207.446,217.825 206.703,214.961 C 205.621,210.785 197.122,189.954 195.955,188.62 C 195.553,188.16 180.641,194.728 168.918,200.529 C 161.281,204.309 153.777,207.93 152.242,208.577 C 150.707,209.224 149.451,209.9 149.451,210.078 C 149.451,210.902 158.125,231.908 160.619,237.124 C 161.488,238.943 162.761,241.203 163.446,242.146 C 166.586,246.466 171.389,248.229 175.79,246.676 L 175.79,246.676 M 170.308,243.549 C 169.291,243.138 167.075,240.685 166.213,239.017 C 165.873,238.359 164.303,234.687 162.725,230.857 C 161.147,227.027 158.742,221.475 157.38,218.519 C 155.169,213.719 154.976,213.088 155.565,212.627 C 156.726,211.717 157.199,212.052 158.765,214.901 C 162.96,222.534 168.451,229.832 173.998,235.148 C 175.948,237.018 177.666,239.034 177.815,239.629 C 178.128,240.875 177.056,242.602 175.458,243.423 C 174.337,243.999 171.586,244.067 170.308,243.549 M 298.782,240.735 C 304.422,235.71 306.743,232.541 308.006,228.136 C 308.38,226.831 308.624,225.25 308.547,224.622 C 308.413,223.512 308.324,223.566 305.389,226.54 C 301.459,230.523 296.914,237.326 294.795,242.396 C 293.813,244.748 294.69,244.385 298.782,240.735 L 298.782,240.735 M 406.665,240.121 C 407.38,238.701 408.788,236.261 409.795,234.7 C 410.8,233.139 411.544,231.783 411.447,231.685 C 411.103,231.341 406.766,238.366 405.601,241.155 C 404.579,243.602 405.237,242.963 406.665,240.121 L 406.665,240.121 M 242.004,241.613 C 244.265,241.376 244.545,241.248 244.545,240.439 C 244.545,239.938 243.986,238.43 243.303,237.087 C 241.833,234.194 236.662,226.851 236.069,226.813 C 235.555,226.783 232.994,234.225 232.979,235.793 C 232.967,237.39 233.881,239.395 235.241,240.741 C 236.489,241.977 237.399,242.095 242.004,241.613 L 242.004,241.613 M 422.743,241.523 C 422.743,241.324 422.455,240.92 422.101,240.627 C 421.564,240.181 421.311,240.24 420.562,240.99 L 419.665,241.886 L 421.204,241.886 C 422.051,241.886 422.743,241.723 422.743,241.523 L 422.743,241.523 M 209.402,238.915 C 209.402,238.343 208.416,238.561 207.373,239.361 C 206.685,239.891 206.466,240.354 206.662,240.865 C 206.917,241.53 207.068,241.487 208.173,240.428 C 208.85,239.781 209.402,239.1 209.402,238.915 M 253.688,239.462 C 255.14,238.811 257.973,237.664 259.981,236.913 C 263.504,235.597 263.677,235.572 264.801,236.237 C 266.298,237.121 266.458,237.104 266.458,236.058 C 266.458,234.922 265.149,232.724 264.607,232.951 C 264.374,233.041 261.207,234.27 257.569,235.662 C 248.011,239.321 248.856,238.871 249.726,239.833 C 250.655,240.859 250.547,240.869 253.688,239.462 M 291.586,239.784 C 291.731,239.036 291.481,238.905 283.409,235.59 C 275.431,232.309 275.695,232.351 274.909,234.234 C 274.138,236.078 274.323,236.365 275.867,235.726 C 276.913,235.293 277.708,235.516 283.632,237.908 C 287.262,239.373 290.508,240.54 290.847,240.501 C 291.186,240.471 291.518,240.139 291.586,239.784 L 291.586,239.784 M 135.978,233.41 C 136.723,232.841 137.547,232.377 137.811,232.377 C 138.073,232.377 138.288,232.094 138.288,231.748 C 138.288,230.917 136.244,226.439 133.907,222.152 L 132.029,218.707 L 130.714,219.812 C 127.976,222.113 127.959,221.869 131.314,228.474 C 132.983,231.757 134.409,234.443 134.484,234.443 C 134.566,234.443 135.232,233.979 135.978,233.41 M 508.209,229.316 C 505.379,223.897 502.931,220.214 499.499,216.217 C 496.964,213.264 489.883,206.857 489.538,207.204 C 489.368,207.374 488.469,213.519 488.608,213.568 C 488.655,213.578 490.177,214.686 491.997,216.016 C 495.771,218.775 507.194,230.026 508.971,232.736 C 511.013,235.846 510.561,233.819 508.209,229.316 L 508.209,229.316 M 257.94,230.599 C 258.632,230.092 258.603,229.922 257.43,227.601 C 256.062,224.9 255.129,222.888 249.007,209.43 C 246.731,204.428 244.503,199.404 244.056,198.266 C 243.611,197.13 243.084,196.034 242.884,195.83 C 242.594,195.531 240.383,196.099 239.638,196.665 C 239.471,196.791 255.603,229.77 256.246,230.619 C 256.74,231.272 257.023,231.268 257.94,230.599 L 257.94,230.599 M 293.054,214.804 C 297.471,205.936 301.211,198.271 301.364,197.772 C 301.589,197.042 301.399,196.737 300.403,196.221 C 298.75,195.366 298.403,195.409 298.058,196.51 C 297.899,197.022 294.614,204.324 290.758,212.738 C 282.037,231.77 282.656,230.254 283.415,230.741 C 283.754,230.958 284.253,231.089 284.525,231.033 C 284.798,230.973 288.635,223.674 293.054,214.804 L 293.054,214.804 M 296.393,229.004 C 296.011,228.384 290.841,226.133 290.411,226.399 C 289.496,226.964 290.194,227.956 292.607,229.515 L 295.188,231.184 L 295.912,230.29 C 296.311,229.799 296.526,229.22 296.393,229.004 M 248.876,229.4 C 250.066,228.821 250.747,228.22 250.747,227.747 C 250.747,227.336 250.677,227.001 250.587,227.001 C 249.872,227.001 245.01,229.644 245.19,229.935 C 245.572,230.554 246.896,230.361 248.876,229.4 M 262.731,228.552 C 262.731,227.124 262.06,226.272 261.443,226.891 C 261.058,227.276 261.053,227.638 261.42,228.438 C 262.009,229.733 262.742,229.798 262.734,228.555 L 262.731,228.552 M 279.953,228.862 C 280.083,228.521 280.085,227.966 279.953,227.629 C 279.644,226.823 278.446,227.291 278.446,228.218 C 278.446,229.506 279.525,229.969 279.951,228.862 L 279.953,228.862 M 299.05,225.308 C 299.349,224.831 299.504,224.353 299.397,224.245 C 299.095,223.945 293.299,221.627 292.847,221.627 C 291.775,221.627 292.917,223.549 294.722,224.793 C 297.039,226.387 298.284,226.535 299.05,225.308 L 299.05,225.308 M 407.239,215.894 C 407.239,215.576 401.009,205.383 398.143,201.01 C 395.798,197.433 394.49,196.636 392.652,197.667 C 391.662,198.223 387.717,202.528 384.657,206.391 L 383.461,207.9 L 388.645,214.246 C 391.496,217.738 394.665,221.84 395.689,223.365 L 397.549,226.135 L 402.394,221.146 C 405.059,218.402 407.239,216.038 407.239,215.894 L 407.239,215.894 M 411.045,225.546 L 412.551,224.916 L 411.176,223.497 C 409.701,221.976 409.186,221.998 407.687,223.656 C 406.93,224.492 406.929,224.549 407.652,225.348 C 408.55,226.34 409.072,226.371 411.045,225.546 L 411.045,225.546 M 246.045,224.766 C 248.163,223.781 248.989,223.039 248.508,222.557 C 248.192,222.242 242.478,224.963 242.478,225.427 C 242.478,226.031 243.891,225.77 246.045,224.766 M 261.145,224.806 C 261.766,224.334 261.615,223.645 259.447,217.068 C 258.137,213.096 256.652,208.824 256.145,207.573 C 255.036,204.829 251.55,198.363 251.311,198.602 C 251.053,198.861 259.831,225.354 260.17,225.339 C 260.331,225.329 260.77,225.091 261.145,224.806 M 282.283,222.353 C 285.785,212.372 292.366,191.565 292.177,191.073 C 292.053,190.751 291.616,191.914 291.203,193.66 C 290.375,197.171 289.651,198.789 287.935,200.975 C 287.193,201.92 285.658,205.733 283.613,211.725 C 279.861,222.71 279.517,223.893 279.835,224.722 C 280.372,226.123 281.265,225.259 282.283,222.353 L 282.283,222.353 M 102.661,221.046 C 103.382,220.042 103.972,219.138 103.972,219.037 C 103.972,218.571 96.93,215.704 93.312,214.696 C 89.583,213.657 88.742,213.579 81.645,213.603 C 76.343,213.623 73.363,213.812 71.932,214.22 C 69.912,214.795 69.86,214.852 69.506,216.792 C 69.308,217.885 69.238,218.871 69.353,218.985 C 69.471,219.102 71.21,218.88 73.226,218.503 C 78.691,217.472 87.58,217.854 92.601,219.334 C 95.373,220.15 100.832,222.345 101.317,222.837 C 101.341,222.857 101.941,222.05 102.661,221.046 M 65.384,220.798 C 67.466,219.917 67.529,219.842 67.804,217.841 C 67.959,216.713 67.975,215.678 67.839,215.543 C 67.703,215.407 66.429,215.752 65.006,216.308 L 62.42,217.32 L 62.293,219.735 C 62.199,221.593 62.293,222.098 62.707,221.927 C 63.003,221.804 64.208,221.296 65.384,220.798 L 65.384,220.798 M 302.346,221.548 C 303.202,220.692 302.922,220.396 299.856,218.927 C 296.648,217.389 295.209,217.147 294.848,218.086 C 294.575,218.799 295.044,219.211 297.933,220.804 C 300.327,222.124 301.561,222.332 302.346,221.548 L 302.346,221.548 M 243.603,220.577 C 245.818,219.473 247.149,218.323 246.212,218.323 C 245.374,218.323 239.584,220.476 239.584,220.789 C 239.584,221.941 241.016,221.866 243.603,220.577 M 305.485,217.368 C 306.063,216.426 305.265,215.776 302.051,214.574 C 298.706,213.322 297.467,213.131 297.467,213.866 C 297.467,214.725 298.572,215.622 301.411,217.069 C 304.11,218.444 304.796,218.494 305.485,217.368 M 277.807,217.53 C 277.937,217.32 277.017,216.593 275.765,215.915 C 273.204,214.528 272.634,215.051 274.759,216.839 C 276.047,217.923 277.378,218.225 277.807,217.53 L 277.807,217.53 M 240.592,216.427 C 243.53,215.25 244.851,214.188 243.374,214.188 C 242.123,214.188 237.096,216.086 236.335,216.846 C 235.745,217.437 235.787,217.496 236.803,217.496 C 237.418,217.496 239.123,217.015 240.592,216.427 M 266.501,216.182 C 267.953,215.366 268.911,214.022 268.402,213.513 C 268.043,213.155 263.978,215.897 263.978,216.498 C 263.978,217.312 264.636,217.23 266.501,216.182 L 266.501,216.182 M 308.792,213.534 C 308.931,213.174 309.044,212.7 309.044,212.479 C 309.044,211.995 304.641,209.892 301.912,209.071 C 299.967,208.486 299.947,208.49 299.947,209.431 C 299.947,210.357 301.61,211.668 305.116,213.505 C 306.734,214.353 308.474,214.368 308.792,213.525 L 308.792,213.534 M 237.798,212.05 C 240.567,210.91 242.036,209.887 241.572,209.423 C 241.061,208.912 232.142,212.75 232.142,213.48 C 232.142,214.015 234.442,213.43 237.798,212.05 M 279.688,212.542 C 279.688,211.57 275.852,209.437 274.819,209.834 C 274.227,210.062 274.228,210.145 274.819,210.744 C 275.671,211.596 278.495,213.272 279.163,213.322 C 279.448,213.342 279.68,212.993 279.68,212.542 L 279.688,212.542 M 265.068,211.262 C 267.82,209.688 267.585,208.959 264.682,210.063 C 263.498,210.513 262.484,210.881 262.427,210.881 C 262.368,210.881 262.322,211.252 262.322,211.707 C 262.322,212.784 262.439,212.764 265.065,211.262 L 265.068,211.262 M 487.035,208.959 L 487.035,205.388 L 484.555,204.005 C 483.191,203.244 481.934,202.619 481.763,202.617 C 481.593,202.617 481.46,204.054 481.467,205.815 L 481.479,209.02 L 484.256,210.737 C 485.783,211.68 487.033,212.47 487.033,212.491 C 487.033,212.511 487.033,210.922 487.033,208.959 L 487.035,208.959 M 47.053,209.049 C 48.822,207.817 50.27,206.679 50.269,206.521 C 50.269,206.178 46.225,204.259 45.507,204.259 C 44.874,204.259 39.472,208.693 39.472,209.214 C 39.472,209.59 42.549,211.182 43.411,211.253 C 43.645,211.273 45.284,210.28 47.053,209.049 L 47.053,209.049 M 312.36,209.418 C 312.994,208.654 313.117,208.771 310.077,207.252 C 307.107,205.768 302.962,204.416 302.574,204.802 C 301.907,205.47 305.654,208.361 308.585,209.44 C 310.596,210.18 311.733,210.174 312.36,209.42 L 312.36,209.418 M 112.486,208.761 C 113.269,207.894 113.263,207.879 111.414,206.229 C 106.964,202.259 101.82,199.316 95.463,197.104 C 88.444,194.661 85.231,194.143 77.028,194.136 C 73.011,194.136 69.592,194.26 69.433,194.42 C 69.274,194.579 69.97,195.752 70.98,197.025 L 72.817,199.341 L 79.195,199.484 C 82.702,199.564 87.247,199.934 89.294,200.309 C 96.314,201.592 105.417,205.195 109.553,208.325 C 111.564,209.848 111.513,209.84 112.486,208.761 M 232.19,208.867 C 235.181,207.838 238.757,206.004 238.757,205.497 C 238.757,204.901 238.499,204.961 234.351,206.505 C 229.928,208.152 228.834,208.695 228.834,209.241 C 228.834,209.826 229.674,209.733 232.19,208.867 L 232.19,208.867 M 281.756,207.572 C 281.756,207.344 281.29,207.158 280.722,207.158 C 280.154,207.158 279.688,207.344 279.688,207.572 C 279.688,207.799 280.154,207.986 280.722,207.986 C 281.29,207.986 281.756,207.799 281.756,207.572 M 429.375,207.346 C 429.811,206.819 429.784,206.45 429.225,205.278 C 428.445,203.64 427.82,203.504 426.542,204.693 C 425.458,205.704 425.413,206.225 426.322,207.23 C 427.158,208.153 428.657,208.211 429.375,207.347 L 429.375,207.346 M 479.784,201.685 C 479.315,201.043 472.38,199.234 468.223,198.668 C 460.531,197.623 454.402,197.95 448.712,199.707 C 443.414,201.343 443.884,201.598 452.18,201.596 C 457.799,201.596 460.688,201.783 463.405,202.33 C 467.794,203.213 474.795,205.459 477.578,206.877 L 479.593,207.903 L 479.8,204.947 C 479.917,203.321 479.906,201.853 479.788,201.685 L 479.784,201.685 M 261.497,206.666 C 261.497,206.123 260.557,206.463 260.352,207.081 C 260.246,207.383 260.434,207.476 260.842,207.321 C 261.203,207.183 261.497,206.889 261.497,206.666 M 323.582,205.091 C 323.664,203.725 323.629,202.617 323.512,202.626 C 323.395,202.636 322.663,203.192 321.879,203.862 L 320.453,205.081 L 321.646,206.327 C 322.302,207.012 322.974,207.572 323.139,207.572 C 323.303,207.572 323.501,206.455 323.579,205.091 L 323.582,205.091 M 315.685,205.68 C 316.352,204.876 316.263,204.807 311.616,202.524 C 306.338,199.93 302.811,200.3 306.778,203.029 C 308.965,204.534 312.964,206.288 314.264,206.314 C 314.749,206.324 315.387,206.039 315.685,205.68 L 315.685,205.68 M 21.694,205.74 C 21.694,205.65 21.09,205.159 20.35,204.667 L 19.007,203.774 L 20.167,204.847 C 21.284,205.879 21.694,206.118 21.694,205.74 M 230.488,204.214 C 233.941,202.897 236.724,201.326 236.03,201.087 C 235.108,200.768 225.113,204.807 225.113,205.497 C 225.113,206.06 226.553,205.716 230.488,204.214 M 56.553,203.88 C 58.301,203.099 59.713,202.355 59.69,202.226 C 59.667,202.096 58.73,201.168 57.61,200.162 L 55.572,198.335 L 54.034,199.058 C 53.188,199.457 51.294,200.449 49.824,201.265 L 47.153,202.749 L 50.032,204.09 C 51.615,204.828 53.015,205.401 53.141,205.365 C 53.269,205.335 54.804,204.659 56.553,203.88 M 276.092,204.673 C 286.611,201.425 291.998,188.843 287.047,179.084 C 285.23,175.5 282.471,172.827 278.636,170.932 C 275.975,169.617 274.991,169.357 272.104,169.205 C 266.077,168.889 261.748,170.541 257.873,174.639 C 251.871,180.985 251.154,189.921 256.042,197.473 C 260.464,204.303 268.245,207.097 276.092,204.673 L 276.092,204.673 M 268.939,197.653 C 266.009,197.107 262.76,194.628 261.2,191.751 C 260.203,189.911 260.191,184.322 261.177,182.498 C 263.93,177.427 270.146,175.449 275.342,177.991 C 280.708,180.616 282.887,186.939 280.25,192.23 C 278.262,196.219 273.495,198.504 268.936,197.653 L 268.939,197.653 M 274.7,194.498 C 276.026,193.715 277.037,191.937 276.476,191.376 C 276.273,191.174 275.341,191.296 274.337,191.645 C 271.135,192.775 269.261,192.444 268.297,190.577 L 267.685,189.394 L 269.449,189.619 C 272.768,190.041 275.667,187.405 275.667,183.965 C 275.667,181.651 274.675,180.698 272.264,180.698 C 269.616,180.698 266.296,182.402 264.933,184.462 C 263.032,187.336 263.244,191.466 265.397,193.489 C 267.632,195.588 272.045,196.067 274.7,194.498 M 11.38,203.67 C 10.835,203.014 5.098,200.051 4.85,200.298 C 4.726,200.422 11.135,204.088 11.718,204.228 C 11.8,204.248 11.648,203.997 11.38,203.67 M 18.801,203.71 C 18.801,203.63 18.381,203.213 17.87,202.78 L 16.94,201.992 L 17.727,202.923 C 18.468,203.797 18.801,204.041 18.801,203.71 M 381.423,201.889 C 382.195,200.808 384.273,198.203 386.04,196.099 L 389.252,192.273 L 387.642,190.818 C 386.756,190.018 380.664,181.281 374.102,171.403 C 367.541,161.524 362.049,153.435 361.897,153.427 C 361.546,153.407 360.037,159.922 359.696,162.921 C 358.788,170.911 366.486,188.031 376.44,200.164 C 378.105,202.193 379.591,203.853 379.742,203.853 C 379.894,203.853 380.65,202.97 381.423,201.889 M 319.658,201.994 C 319.728,201.767 317.772,200.511 315.302,199.204 C 309.047,195.892 304.019,195.264 308.94,198.408 C 314.092,201.7 319.197,203.408 319.658,201.994 L 319.658,201.994 M 207.092,200.03 C 207.941,196.996 208.675,191.926 208.509,190.252 C 208.341,188.577 206.973,187.408 204.759,187.048 C 203.446,186.835 203.067,186.978 201.978,188.061 C 200.336,189.704 200.346,190.599 201.99,189.214 C 203.433,188.001 205.066,187.843 206.415,188.787 C 207.584,189.606 207.601,191.08 206.509,197.066 C 205.547,202.352 205.56,202.201 206.077,202.201 C 206.299,202.201 206.752,201.224 207.086,200.03 L 207.092,200.03 M 229.322,199.451 C 233.299,197.785 235.052,196.705 234.569,196.222 C 234.475,196.132 231.705,197.119 228.411,198.426 C 225.119,199.731 222.059,200.94 221.61,201.11 C 220.976,201.35 220.919,201.495 221.351,201.762 C 222.1,202.225 224.06,201.657 229.322,199.451 M 67.02,200.661 C 68.927,200.268 70.44,199.822 70.381,199.668 C 70.038,198.769 66.192,195.172 65.576,195.172 C 64.799,195.172 59.387,196.929 58.313,197.529 C 57.815,197.809 58.13,198.237 59.845,199.608 C 61.033,200.558 62.353,201.344 62.778,201.355 C 63.203,201.365 65.112,201.053 67.02,200.661 L 67.02,200.661 M 429.508,197.474 C 439.678,193.677 448.227,191.881 477.113,187.473 C 479.627,187.09 480.894,186.243 486.261,181.362 C 488.277,179.527 488.589,179.377 489.505,179.795 C 490.813,180.39 491.242,179.735 490.218,178.716 C 489.184,177.683 480.89,174.744 474.193,173.039 C 466.695,171.13 461.318,170.376 453.133,170.089 C 449.266,169.953 445.913,169.693 445.681,169.512 C 445.042,169.011 433.954,171.446 428.361,173.316 C 420.263,176.023 411.166,180.989 411.167,182.701 C 411.167,183.977 413.573,188.488 417.585,194.732 L 421.573,200.94 L 423.502,199.968 C 424.563,199.432 427.266,198.311 429.508,197.474 L 429.508,197.474 M 140.407,197.963 C 143.32,194.82 142.814,194.429 138.741,196.681 C 135.394,198.531 135.494,198.442 136.233,198.91 C 137.496,199.709 139.133,199.339 140.407,197.963 M 323.285,196.965 C 321.731,195.829 292.761,184.423 291.428,184.423 C 291.161,184.423 291.048,184.851 291.16,185.437 C 291.37,186.531 293.691,187.662 301.08,190.269 C 303.072,190.971 307.214,192.615 310.284,193.922 C 317.044,196.798 321.302,198.502 322.688,198.884 C 323.523,199.114 323.749,199.008 323.864,198.331 C 323.946,197.87 323.683,197.256 323.285,196.965 L 323.285,196.965 M 224.949,195.965 C 228.564,194.58 234.87,192.236 238.964,190.755 C 249.418,186.971 249.094,187.127 249.094,185.891 C 249.094,185.311 248.988,184.836 248.852,184.836 C 248.506,184.836 237.254,188.86 229.388,191.797 C 217.116,196.378 215.63,197.128 216.706,198.204 C 217.267,198.766 218.524,198.423 224.949,195.965 L 224.949,195.965 M 7.573,197.297 C 8.177,196.874 9.414,196.275 10.325,195.967 C 12.754,195.143 20.282,195.257 25.08,196.19 L 29.086,196.969 L 32.416,194.393 C 36.001,191.62 43.577,186.735 46.92,185.04 C 48.055,184.465 48.982,183.892 48.982,183.766 C 48.982,183.64 44.114,183.676 38.164,183.836 C 28.071,184.115 27.364,184.088 27.616,183.43 C 27.942,182.581 27.942,182.581 23.485,185.764 C 21.627,187.09 17.265,189.661 13.793,191.475 C 6.747,195.156 5.983,195.706 5.983,197.097 C 5.983,198.267 6.158,198.289 7.573,197.296 L 7.573,197.297 M 122.422,194.491 C 123.388,192.18 123.265,188.24 122.16,186.047 C 120.791,183.332 118.577,180.787 116.789,179.875 C 115.441,179.187 109.911,176.981 109.536,176.981 C 109.466,176.981 109.285,177.585 109.132,178.325 C 108.383,181.917 106.609,182.885 100.251,183.173 L 95.496,183.389 L 100.871,185.391 C 106.788,187.595 113.868,191.134 118.271,194.087 C 119.838,195.139 121.271,196.0 121.457,196.0 C 121.641,196.0 122.075,195.321 122.422,194.491 L 122.422,194.491 M 137.771,192.787 C 139.647,191.82 141.182,190.873 141.182,190.682 C 141.182,189.975 134.03,191.476 133.526,192.289 C 133.243,192.747 133.747,194.839 134.099,194.67 C 134.243,194.6 135.896,193.754 137.771,192.787 L 137.771,192.787 M 326.978,186.665 C 328.314,183.347 329.243,180.492 329.043,180.313 C 328.678,179.983 315.85,174.829 314.072,174.297 C 313.348,174.08 312.952,174.227 312.498,174.873 C 311.706,176.004 310.688,175.967 307.325,174.682 C 303.711,173.301 303.527,173.045 304.532,170.8 C 304.98,169.8 305.2,168.836 305.021,168.658 C 304.014,167.652 284.755,167.981 280.666,169.074 C 279.538,169.377 282.063,170.537 294.577,175.472 C 303.598,179.03 322.752,187.853 323.283,188.696 C 323.57,189.152 323.563,189.501 323.26,189.806 C 322.795,190.27 322.714,190.243 310.077,185.464 C 306.667,184.173 300.837,182.014 297.122,180.665 C 293.408,179.316 290.013,178.023 289.577,177.789 C 288.529,177.228 288.52,177.956 289.565,178.998 C 290.361,179.793 292.15,180.527 309.048,186.992 C 314.391,189.037 319.88,191.146 321.244,191.681 C 322.609,192.214 323.912,192.661 324.14,192.671 C 324.368,192.681 325.647,189.979 326.982,186.665 L 326.978,186.665 M 231.985,186.897 C 247.726,181.169 251.161,179.768 251.161,179.07 C 251.161,178.831 251.014,178.634 250.837,178.634 C 250.498,178.634 231.55,185.212 223.544,188.108 C 220.975,189.037 218.789,189.798 218.686,189.798 C 218.581,189.798 218.498,189.328 218.498,188.753 C 218.498,188.038 218.803,187.594 219.47,187.34 C 220.006,187.137 223.773,185.494 227.843,183.689 C 231.912,181.884 239.243,178.788 244.131,176.807 C 249.021,174.828 255.234,172.15 257.937,170.856 L 262.854,168.505 L 249.669,168.299 C 242.417,168.181 236.408,168.136 236.315,168.193 C 236.221,168.253 236.461,169.26 236.843,170.442 C 237.691,173.07 237.62,173.16 233.382,174.869 L 230.281,176.12 L 229.017,174.714 L 227.754,173.309 L 220.541,176.181 C 216.575,177.761 212.924,179.229 212.427,179.444 C 211.531,179.831 211.539,179.87 213.595,184.713 C 214.733,187.397 215.921,190.198 216.233,190.937 C 216.546,191.676 216.891,192.281 216.999,192.281 C 217.104,192.281 223.851,189.86 231.985,186.899 L 231.985,186.897 M 394.172,187.301 C 396.128,186.414 400.881,183.155 402.354,181.691 C 403.213,180.838 403.229,180.697 402.675,178.857 C 402.337,177.735 400.986,175.497 399.466,173.54 C 398.022,171.68 394.169,166.624 390.905,162.303 C 387.641,157.983 383.499,152.535 381.701,150.198 L 378.432,145.949 L 377.08,146.784 C 376.171,147.346 374.737,147.687 372.715,147.82 C 371.059,147.926 369.605,148.117 369.485,148.238 C 369.366,148.357 369.646,148.874 370.108,149.384 C 370.57,149.895 373.986,154.871 377.699,160.443 C 389.438,178.064 390.683,179.479 395.735,180.948 C 397.218,181.379 397.826,181.748 397.679,182.132 C 397.387,182.892 393.898,185.793 392.251,186.644 C 391.512,187.026 390.908,187.519 390.908,187.741 C 390.908,188.372 392.191,188.2 394.172,187.301 L 394.172,187.301 M 13.145,186.522 C 13.387,186.279 13.596,184.739 13.609,183.1 L 13.632,180.118 L 14.948,179.737 C 16.885,179.178 18.35,179.687 18.963,181.152 C 19.448,182.305 19.533,182.346 20.074,181.687 C 20.396,181.295 21.962,180.141 23.554,179.125 C 27.101,176.861 29.136,174.994 29.136,174.005 C 29.136,172.798 24.604,168.65 21.149,166.694 C 19.39,165.699 16.42,164.358 14.551,163.715 C 10.94,162.473 5.457,161.448 4.752,161.884 C 4.258,162.189 4.225,165.851 4.604,178.381 L 4.877,187.43 L 8.79,187.197 C 10.942,187.069 12.902,186.764 13.144,186.522 L 13.145,186.522 M 5.637,184.058 C 5.821,180.814 6.285,180.042 8.298,179.639 C 10.225,179.254 11.662,180.716 12.275,183.686 C 12.543,184.985 12.679,186.128 12.577,186.223 C 12.472,186.313 10.835,186.532 8.931,186.698 L 5.47,186.999 L 5.637,184.058 M 210.229,183.786 C 210.229,183.266 208.53,180.288 208.233,180.288 C 208.055,180.288 207.311,180.729 206.581,181.268 L 205.254,182.248 L 207.432,183.082 C 209.867,184.016 210.229,184.108 210.229,183.786 M 149.141,181.315 C 143.964,180.191 139.98,177.01 137.437,171.972 C 136.705,170.523 135.13,166.732 133.935,163.546 C 129.706,152.275 126.984,147.455 122.449,143.213 C 119.543,140.494 115.116,138.101 111.089,137.072 C 106.012,135.773 105.861,136.893 110.858,138.773 C 121.366,142.724 126.569,148.679 132.497,163.537 C 136.46,173.472 138.925,177.234 143.06,179.656 C 145.06,180.829 148.602,181.89 150.484,181.882 C 151.219,181.882 150.672,181.648 149.141,181.315 L 149.141,181.315 M 105.389,178.812 C 106.842,177.358 106.537,174.845 104.841,174.307 C 104.015,174.045 99.236,174.926 97.186,175.718 C 95.618,176.324 96.006,176.657 100.043,178.173 C 103.89,179.616 104.51,179.69 105.389,178.812 M 83.713,175.533 L 83.713,172.846 L 60.386,172.846 C 45.413,172.846 37.011,172.992 36.923,173.254 C 36.853,173.479 36.853,174.688 36.923,175.941 L 37.065,178.221 L 60.386,178.221 L 83.709,178.221 L 83.713,175.533 M 326.172,172.329 C 326.277,171.818 326.44,169.949 326.533,168.175 C 326.793,163.176 326.322,163.035 315.349,164.84 C 311.653,165.448 308.631,166.082 308.631,166.25 C 308.631,166.76 315.37,169.568 324.755,172.97 C 325.82,173.356 325.974,173.285 326.172,172.329 M 233.304,171.909 C 233.469,171.055 232.275,170.48 231.646,171.11 C 231.016,171.739 231.587,172.933 232.445,172.768 C 232.842,172.688 233.228,172.306 233.304,171.909 L 233.304,171.909 M 309.871,172.276 C 309.871,171.963 309.616,171.496 309.306,171.238 C 308.521,170.586 307.586,171.638 308.31,172.359 C 308.972,173.022 309.871,172.974 309.871,172.279 L 309.871,172.276 M 116.738,168.752 C 117.675,168.159 116.946,167.592 113.575,166.292 C 105.74,163.271 94.882,160.745 82.885,159.155 C 77.747,158.473 75.852,158.061 75.21,157.486 C 74.128,156.516 72.95,156.527 66.905,157.556 C 57.921,159.082 51.807,161.256 44.538,165.509 C 42.661,166.607 41.126,167.544 41.126,167.592 C 41.126,167.642 48.429,167.612 57.354,167.532 C 71.781,167.403 78.937,167.582 103.558,168.698 C 113.236,169.137 116.112,169.148 116.738,168.758 L 116.738,168.752 M 296.856,160.879 C 302.376,160.652 307.759,160.208 309.673,159.82 C 319.417,157.847 325.466,152.202 328.515,142.24 C 329.714,138.321 329.716,134.85 328.515,130.171 C 326.6,122.665 323.618,117.064 319.2,112.673 C 314.139,107.644 308.137,105.453 299.422,105.453 C 290.71,105.453 282.473,107.726 272.033,113.012 C 258.134,120.049 237.883,136.159 234.534,142.844 C 233.842,144.223 232.259,146.812 231.013,148.597 C 228.735,151.865 227.586,154.095 227.586,155.254 C 227.586,155.599 228.098,156.456 228.725,157.156 C 229.814,158.375 230.149,158.473 236.477,159.403 C 242.253,160.253 249.712,160.927 259.009,161.439 C 263.045,161.66 286.038,161.32 296.849,160.879 L 296.856,160.879 M 298.294,154.289 C 298.294,154.087 299.364,153.793 300.672,153.635 C 303.875,153.245 308.824,151.562 311.166,150.067 C 320.372,144.182 323.662,131.494 318.579,121.475 C 317.25,118.853 317.524,118.345 319.131,120.452 C 322.595,124.993 324.424,132.613 323.606,139.092 C 322.504,147.832 317.759,152.943 309.585,154.198 C 306.03,154.743 298.294,154.805 298.294,154.288 L 298.294,154.289 M 290.854,147.523 C 290.854,147.238 292.576,145.906 294.678,144.562 C 296.904,143.141 298.26,142.038 297.923,141.924 C 297.606,141.819 294.252,141.954 290.468,142.237 C 285.364,142.614 283.152,142.626 281.886,142.287 C 279.412,141.62 278.31,140.586 278.31,138.931 C 278.31,137.142 280.416,135.256 283.85,133.972 C 288.897,132.085 287.867,132.007 272.729,133.13 C 265.126,133.694 261.91,132.892 261.91,130.434 C 261.91,127.224 273.688,122.799 285.417,121.602 C 294.38,120.687 297.369,121.077 296.98,123.11 C 296.85,123.786 296.072,123.877 288.367,124.119 C 283.303,124.277 278.547,124.653 276.543,125.054 C 272.09,125.942 267.481,127.54 265.433,128.901 L 263.77,130.009 L 265.424,130.363 C 267.111,130.724 272.225,130.363 281.549,129.236 C 287.426,128.522 294.153,128.439 296.358,129.05 C 298.575,129.666 299.691,130.851 299.098,131.959 C 298.439,133.19 296.696,133.79 290.207,135.022 C 284.326,136.139 281.555,137.061 280.599,138.22 C 280.191,138.713 280.179,138.943 280.552,139.173 C 281.231,139.591 288.308,139.468 292.75,138.96 C 299.849,138.146 303.619,138.545 304.508,140.203 C 305.205,141.506 303.434,142.893 298.709,144.744 C 296.321,145.68 293.752,146.804 293.0,147.242 C 291.409,148.169 290.853,148.243 290.855,147.523 L 290.854,147.523 M 225.94,160.443 C 225.94,160.215 225.753,160.029 225.526,160.029 C 225.299,160.029 225.113,160.215 225.113,160.443 C 225.113,160.67 225.299,160.856 225.526,160.856 C 225.753,160.856 225.94,160.67 225.94,160.443 M 100.856,145.558 C 102.888,142.533 103.591,141.238 102.79,141.998 C 101.596,143.131 97.356,149.632 97.356,150.33 C 97.356,150.782 97.286,150.877 100.856,145.558 L 100.856,145.558 M 367.193,144.726 C 369.532,143.581 370.942,142.288 373.44,139.002 C 373.951,138.33 374.369,137.503 374.369,137.166 C 374.369,136.196 370.109,129.997 362.52,119.925 C 340.811,91.11 341.577,92.064 339.754,91.564 C 338.668,91.266 333.878,93.72 330.354,96.38 C 326.43,99.343 327.664,99.414 333.168,96.541 C 338.061,93.986 341.265,93.037 340.049,94.501 C 339.765,94.844 338.812,95.53 337.932,96.024 C 337.052,96.519 336.332,97.195 336.332,97.528 C 336.332,98.148 342.229,109.384 347.003,117.857 C 353.995,130.267 360.251,137.237 365.997,139.014 C 366.963,139.313 367.754,139.684 367.754,139.838 C 367.754,140.632 363.795,143.925 362.071,144.563 C 359.63,145.468 359.578,145.51 360.324,146.012 C 361.293,146.664 364.44,146.072 367.193,144.726 M 382.335,109.071 C 382.535,102.872 382.735,101.292 383.857,96.996 C 385.002,92.614 385.117,91.665 384.871,88.637 C 384.677,86.233 384.752,84.842 385.124,83.941 C 385.593,82.811 385.558,82.531 384.832,81.55 C 383.96,80.372 381.56,78.579 380.856,78.579 C 380.575,78.579 380.529,83.792 380.715,94.394 C 380.999,110.486 381.286,116.203 381.811,116.203 C 381.973,116.203 382.208,112.993 382.335,109.071 M 384.67,106.822 C 384.693,103.59 384.537,101.263 384.292,101.112 C 384.021,100.945 383.898,103.54 383.934,108.634 C 383.969,114.019 384.088,115.775 384.311,114.342 C 384.488,113.206 384.65,109.821 384.67,106.822 L 384.67,106.822 M 376.269,111.125 C 373.496,105.957 373.302,104.438 375.234,103.01 C 377.382,101.421 377.597,100.325 377.918,89.245 L 378.213,79.083 L 376.025,79.48 C 371.077,80.38 366.531,82.987 363.302,86.775 C 359.596,91.125 357.311,94.677 356.58,97.222 C 356.198,98.551 357.213,100.481 358.86,101.561 C 359.447,101.945 360.878,103.635 362.04,105.314 C 364.475,108.838 365.234,109.127 363.039,105.694 L 361.563,103.387 L 363.367,103.387 C 365.327,103.387 365.129,103.144 366.592,107.314 L 367.171,108.968 L 370.74,108.968 L 374.309,108.968 L 375.849,111.862 C 377.56,115.076 378.118,115.9 378.395,115.623 C 378.5,115.518 377.54,113.496 376.269,111.125 L 376.269,111.125 M 368.489,108.478 C 367.773,108.29 366.934,106.051 366.929,104.316 C 366.929,103.451 367.106,103.387 369.511,103.387 L 372.095,103.387 L 372.984,105.83 L 373.873,108.273 L 372.984,108.512 C 371.985,108.779 369.568,108.761 368.489,108.482 L 368.489,108.478 M 282.169,102.402 C 284.557,101.61 287.865,100.686 289.523,100.349 C 291.945,99.855 292.865,99.437 294.227,98.206 C 297.616,95.144 303.452,93.429 307.574,94.285 C 310.398,94.872 313.258,96.698 314.652,98.805 C 315.899,100.69 316.424,100.634 318.291,98.415 C 320.628,95.637 320.44,92.466 317.619,87.139 C 315.057,82.298 311.563,80.033 308.293,81.094 C 306.402,81.707 305.18,82.533 300.934,86.069 C 295.828,90.32 290.045,94.394 283.848,98.103 C 278.127,101.527 268.693,107.742 268.334,108.323 C 268.229,108.5 270.316,107.564 272.982,106.244 C 275.647,104.923 279.782,103.194 282.169,102.402 M 389.835,106.0 C 390.353,104.482 390.494,102.274 390.494,95.743 C 390.494,86.921 390.229,85.558 388.638,86.169 C 387.964,86.428 387.924,86.936 388.166,92.335 C 388.31,95.571 388.459,100.404 388.495,103.076 C 388.53,105.748 388.701,107.934 388.87,107.934 C 389.039,107.934 389.472,107.063 389.835,106.0 L 389.835,106.0 M 311.938,102.385 C 311.938,101.456 308.64,98.878 307.078,98.585 C 305.008,98.196 302.099,98.655 299.741,99.729 L 297.674,100.676 L 301.602,100.995 C 303.762,101.17 306.739,101.666 308.217,102.096 C 311.599,103.081 311.938,103.108 311.938,102.385 L 311.938,102.385 M 328.89,85.824 C 328.89,85.06 322.354,76.404 303.881,52.707 C 293.669,39.608 291.079,36.861 287.779,35.626 C 284.942,34.565 280.516,34.405 280.516,35.365 C 280.516,35.995 281.048,36.174 284.213,36.605 C 286.845,36.964 289.778,38.708 292.194,41.351 C 293.346,42.611 298.128,48.573 302.822,54.599 C 307.516,60.625 314.399,69.462 318.119,74.238 C 326.661,85.204 328.89,87.602 328.89,85.824 L 328.89,85.824 M 338.813,84.042 C 338.813,83.472 333.952,75.717 330.879,71.385 C 327.168,66.155 321.353,59.113 318.707,56.651 C 314.903,53.109 307.806,48.611 308.284,50.046 C 308.366,50.295 314.201,58.117 321.247,67.426 L 334.058,84.351 L 336.435,84.361 C 337.743,84.361 338.813,84.223 338.813,84.043 L 338.813,84.042 M 298.904,59.457 C 296.688,56.95 296.389,56.708 297.239,58.113 C 298.213,59.722 299.575,61.214 300.068,61.214 C 300.283,61.214 299.759,60.424 298.904,59.457 L 298.904,59.457 M 273.942,46.67 C 276.127,45.442 277.701,43.058 277.927,40.637 C 278.187,37.832 276.434,34.585 273.769,32.936 C 267.025,28.767 258.731,35.351 261.719,42.503 C 262.608,44.63 263.456,45.473 265.838,46.591 C 268.563,47.87 271.75,47.902 273.942,46.671 L 273.942,46.67 M 251.904,22.07 C 255.639,19.74 254.841,14.543 250.222,11.126 C 248.454,9.818 238.812,4.984 237.971,4.984 C 237.317,4.984 237.394,5.66 238.553,10.123 C 240.356,17.064 243.454,21.911 246.516,22.586 C 247.137,22.723 247.832,22.889 248.06,22.956 C 248.792,23.171 250.927,22.679 251.904,22.07" id="path289" style="fill:#A8B0BE;opacity:0.92;stroke-width:1"/>
</svg>
