<svg xmlns="http://www.w3.org/2000/svg" width="1672" height="941" viewBox="0 0 1672 941">
  <g fill="#F4F6FA" fill-rule="evenodd">
    <path d="M 631 776 L 632 778 L 690 790 L 759 791 L 760 792 L 792 792 L 793 793 L 824 793 L 825 794 L 891 796 L 895 794 L 898 790 L 902 778 L 902 771 L 900 768 L 896 766 L 697 758 L 682 755 L 650 742 L 646 742 L 646 746 L 641 760 Z M 1378 686 L 1376 688 L 1376 689 L 1375 690 L 1375 691 L 1374 692 L 1374 693 L 1375 694 L 1375 695 L 1376 696 L 1376 697 L 1377 698 L 1378 698 L 1379 699 L 1386 699 L 1389 696 L 1389 695 L 1390 694 L 1390 690 L 1389 689 L 1389 688 L 1387 686 L 1386 686 L 1385 685 L 1380 685 L 1379 686 Z M 531 681 L 528 685 L 527 690 L 513 719 L 502 735 L 504 741 L 506 743 L 508 743 L 511 745 L 513 745 L 516 747 L 523 749 L 528 752 L 533 753 L 536 755 L 538 755 L 541 757 L 543 757 L 546 759 L 548 759 L 551 761 L 553 761 L 556 763 L 558 763 L 561 765 L 563 765 L 566 767 L 568 767 L 571 769 L 573 769 L 586 775 L 588 775 L 594 778 L 599 779 L 604 782 L 614 782 L 618 780 L 624 774 L 630 765 L 635 755 L 635 753 L 638 746 L 638 743 L 639 742 L 639 734 L 637 730 L 632 725 L 608 713 L 606 713 L 543 681 L 541 681 L 540 680 L 534 680 L 533 681 Z M 290 673 L 289 674 L 288 674 L 287 675 L 286 675 L 285 676 L 285 677 L 283 679 L 283 682 L 282 683 L 282 685 L 283 686 L 283 688 L 284 689 L 284 690 L 286 692 L 287 692 L 288 693 L 290 693 L 291 694 L 295 694 L 296 693 L 297 693 L 298 692 L 299 692 L 301 690 L 301 689 L 302 688 L 302 687 L 303 686 L 303 682 L 302 681 L 302 679 L 301 678 L 301 677 L 299 675 L 298 675 L 297 674 L 296 674 L 295 673 Z M 719 673 L 717 675 L 717 676 L 716 677 L 716 681 L 717 682 L 717 683 L 719 685 L 720 685 L 721 686 L 727 686 L 728 685 L 729 685 L 730 684 L 730 683 L 731 682 L 731 681 L 732 680 L 732 678 L 731 677 L 731 676 L 730 675 L 730 674 L 729 673 L 728 673 L 727 672 L 721 672 L 720 673 Z M 1391 665 L 1386 665 L 1385 666 L 1383 666 L 1382 667 L 1381 667 L 1380 668 L 1379 668 L 1378 669 L 1377 669 L 1376 670 L 1374 670 L 1373 671 L 1372 671 L 1371 672 L 1370 672 L 1369 673 L 1367 673 L 1366 674 L 1365 674 L 1364 675 L 1362 675 L 1361 676 L 1360 676 L 1359 677 L 1357 677 L 1357 679 L 1356 680 L 1356 683 L 1355 684 L 1355 693 L 1356 694 L 1356 695 L 1357 696 L 1357 697 L 1358 698 L 1358 699 L 1359 700 L 1359 701 L 1360 702 L 1360 703 L 1361 704 L 1361 706 L 1362 707 L 1362 708 L 1363 709 L 1363 710 L 1364 711 L 1364 712 L 1365 713 L 1365 714 L 1370 714 L 1371 715 L 1373 715 L 1374 716 L 1376 716 L 1377 717 L 1378 717 L 1379 718 L 1385 718 L 1386 717 L 1388 717 L 1389 716 L 1390 716 L 1391 715 L 1393 715 L 1394 714 L 1395 714 L 1396 713 L 1397 713 L 1398 712 L 1399 712 L 1400 711 L 1401 711 L 1402 710 L 1403 710 L 1404 709 L 1405 709 L 1405 708 L 1406 707 L 1406 701 L 1407 700 L 1407 698 L 1408 697 L 1408 696 L 1409 695 L 1409 690 L 1408 689 L 1408 687 L 1407 686 L 1407 685 L 1406 684 L 1406 683 L 1405 682 L 1405 681 L 1404 680 L 1404 679 L 1402 677 L 1402 676 L 1401 675 L 1401 673 L 1400 672 L 1400 671 L 1399 670 L 1399 669 L 1398 668 L 1397 668 L 1396 667 L 1395 667 L 1394 666 L 1392 666 Z M 1379 679 L 1385 679 L 1386 680 L 1387 680 L 1388 681 L 1390 681 L 1393 684 L 1393 686 L 1394 687 L 1394 688 L 1396 690 L 1396 694 L 1395 695 L 1395 696 L 1394 697 L 1394 699 L 1393 700 L 1393 701 L 1392 702 L 1391 702 L 1390 703 L 1389 703 L 1388 704 L 1387 704 L 1386 705 L 1385 705 L 1384 706 L 1380 706 L 1378 704 L 1377 704 L 1376 703 L 1375 703 L 1374 702 L 1373 702 L 1372 701 L 1372 700 L 1371 699 L 1371 698 L 1370 697 L 1370 696 L 1369 695 L 1369 694 L 1368 693 L 1368 692 L 1369 691 L 1369 690 L 1370 689 L 1370 688 L 1371 687 L 1371 685 L 1372 684 L 1372 683 L 1374 681 L 1376 681 L 1377 680 L 1378 680 Z M 250 670 L 250 674 L 249 675 L 249 691 L 250 692 L 250 696 L 254 706 L 256 708 L 257 711 L 263 717 L 272 722 L 278 723 L 279 724 L 290 724 L 291 723 L 296 723 L 297 722 L 302 722 L 303 721 L 308 721 L 309 720 L 320 719 L 321 718 L 325 718 L 326 717 L 337 716 L 338 715 L 342 715 L 343 714 L 349 714 L 350 713 L 354 713 L 355 712 L 360 712 L 361 711 L 373 710 L 374 709 L 384 708 L 385 707 L 389 707 L 390 706 L 395 706 L 395 704 L 393 704 L 382 698 L 380 698 L 350 683 L 348 683 L 320 669 L 318 669 L 307 663 L 305 663 L 297 659 L 294 656 L 291 650 L 290 644 L 289 643 L 283 643 L 282 644 L 273 645 L 264 650 L 256 658 Z M 284 667 L 286 667 L 287 666 L 291 666 L 292 665 L 294 665 L 295 666 L 298 666 L 299 667 L 301 667 L 304 670 L 305 670 L 306 671 L 306 672 L 308 674 L 308 675 L 309 676 L 309 677 L 310 678 L 310 680 L 311 681 L 311 686 L 310 687 L 310 689 L 309 690 L 309 691 L 308 692 L 308 693 L 302 699 L 301 699 L 300 700 L 298 700 L 297 701 L 288 701 L 287 700 L 286 700 L 285 699 L 284 699 L 283 698 L 282 698 L 277 693 L 277 692 L 276 691 L 276 690 L 275 689 L 275 678 L 276 677 L 276 676 L 277 675 L 277 674 Z M 936 642 L 935 643 L 933 643 L 932 644 L 931 644 L 930 645 L 929 645 L 922 652 L 922 653 L 921 654 L 921 655 L 920 656 L 920 658 L 919 659 L 919 667 L 920 668 L 920 671 L 921 672 L 921 673 L 922 674 L 922 675 L 928 681 L 929 681 L 931 683 L 933 683 L 934 684 L 936 684 L 937 685 L 945 685 L 946 684 L 948 684 L 949 683 L 951 683 L 953 681 L 954 681 L 959 676 L 959 675 L 961 673 L 961 672 L 962 671 L 962 668 L 963 667 L 963 659 L 962 658 L 962 656 L 961 655 L 961 654 L 960 653 L 960 652 L 958 650 L 958 649 L 956 647 L 955 647 L 953 645 L 952 645 L 951 644 L 950 644 L 949 643 L 947 643 L 946 642 Z M 1287 606 L 1287 607 L 1286 608 L 1286 609 L 1285 610 L 1285 616 L 1286 616 L 1287 615 L 1288 615 L 1289 614 L 1292 614 L 1293 613 L 1294 613 L 1296 611 L 1298 611 L 1299 610 L 1303 610 L 1304 611 L 1306 611 L 1307 612 L 1306 613 L 1305 613 L 1302 616 L 1301 616 L 1301 618 L 1302 618 L 1304 620 L 1304 621 L 1305 622 L 1305 623 L 1306 624 L 1306 625 L 1307 626 L 1307 627 L 1308 628 L 1308 629 L 1309 630 L 1309 631 L 1310 632 L 1310 633 L 1311 634 L 1311 635 L 1313 637 L 1313 638 L 1314 639 L 1314 640 L 1315 641 L 1315 642 L 1318 642 L 1319 641 L 1320 641 L 1323 638 L 1324 638 L 1326 636 L 1327 636 L 1328 635 L 1329 635 L 1329 633 L 1328 632 L 1328 630 L 1327 629 L 1327 628 L 1326 627 L 1326 626 L 1325 625 L 1325 624 L 1324 623 L 1324 621 L 1323 620 L 1323 619 L 1322 618 L 1322 617 L 1321 616 L 1321 615 L 1320 614 L 1320 613 L 1319 612 L 1319 611 L 1318 610 L 1318 609 L 1317 608 L 1317 607 L 1316 606 L 1316 605 L 1312 605 L 1311 604 L 1307 604 L 1306 603 L 1303 603 L 1302 602 L 1293 602 L 1292 603 L 1291 603 L 1290 604 L 1289 604 Z M 990 602 L 987 602 L 986 601 L 985 601 L 985 604 L 984 605 L 984 607 L 983 608 L 983 612 L 982 613 L 982 616 L 981 617 L 981 618 L 983 618 L 984 617 L 984 616 L 985 615 L 985 614 L 986 613 L 986 612 L 988 610 L 988 609 L 989 608 L 989 607 L 990 606 L 990 605 L 991 604 L 991 603 Z M 1399 590 L 1399 595 L 1403 601 L 1399 604 L 1399 611 L 1396 618 L 1405 621 L 1404 630 L 1399 637 L 1384 636 L 1396 664 L 1409 675 L 1414 686 L 1413 702 L 1402 717 L 1389 723 L 1377 723 L 1365 718 L 1356 709 L 1352 701 L 1351 680 L 1338 651 L 1317 647 L 1318 652 L 1309 682 L 1322 685 L 1322 702 L 1314 710 L 1308 712 L 1308 715 L 1311 717 L 1326 716 L 1341 735 L 1329 749 L 1318 739 L 1308 722 L 1302 698 L 1287 704 L 1289 707 L 1287 711 L 1283 709 L 1284 705 L 1275 711 L 1283 738 L 1300 763 L 1325 783 L 1357 796 L 1397 798 L 1413 795 L 1436 786 L 1454 774 L 1469 759 L 1478 746 L 1489 719 L 1492 702 L 1491 677 L 1487 661 L 1475 637 L 1457 616 L 1441 604 L 1425 596 Z M 1389 784 L 1392 784 L 1395 787 L 1395 789 L 1392 792 L 1389 792 L 1387 790 L 1387 789 L 1386 788 L 1387 787 L 1387 786 Z M 1353 781 L 1357 781 L 1359 783 L 1359 786 L 1357 788 L 1353 788 L 1352 787 L 1352 786 L 1351 785 L 1351 783 Z M 1346 777 L 1347 777 L 1349 779 L 1349 782 L 1347 784 L 1345 784 L 1344 783 L 1344 779 Z M 1421 776 L 1423 776 L 1426 779 L 1426 781 L 1423 784 L 1421 784 L 1418 781 L 1418 780 L 1419 779 L 1419 778 Z M 1372 775 L 1374 775 L 1377 778 L 1377 781 L 1375 783 L 1372 783 L 1369 780 L 1369 778 Z M 1408 773 L 1410 775 L 1410 777 L 1407 780 L 1406 780 L 1405 781 L 1404 781 L 1402 779 L 1402 778 L 1401 777 L 1401 776 L 1404 773 Z M 1333 766 L 1335 764 L 1339 764 L 1342 767 L 1342 769 L 1340 771 L 1336 771 L 1333 768 Z M 1429 765 L 1431 763 L 1435 763 L 1437 765 L 1437 768 L 1436 769 L 1435 769 L 1434 770 L 1431 770 L 1429 768 Z M 1449 761 L 1452 761 L 1454 763 L 1454 764 L 1451 767 L 1448 767 L 1447 766 L 1447 763 Z M 1314 759 L 1317 759 L 1318 760 L 1319 760 L 1320 761 L 1320 762 L 1321 763 L 1321 766 L 1319 768 L 1317 768 L 1316 767 L 1315 767 L 1313 765 L 1313 764 L 1312 763 L 1312 761 Z M 1357 765 L 1358 764 L 1358 763 L 1359 762 L 1359 760 L 1360 759 L 1360 756 L 1361 755 L 1361 754 L 1362 753 L 1362 752 L 1365 749 L 1366 750 L 1371 750 L 1372 751 L 1393 751 L 1395 753 L 1395 754 L 1396 755 L 1396 756 L 1397 757 L 1397 760 L 1398 761 L 1398 764 L 1397 765 L 1397 767 L 1396 768 L 1394 768 L 1393 769 L 1371 769 L 1370 768 L 1365 768 L 1364 767 L 1361 767 L 1360 766 L 1358 766 Z M 1452 748 L 1455 751 L 1454 752 L 1454 753 L 1453 754 L 1452 754 L 1451 755 L 1448 752 L 1448 751 L 1450 749 L 1451 749 Z M 1336 753 L 1338 751 L 1339 751 L 1342 748 L 1348 748 L 1351 751 L 1351 752 L 1352 753 L 1352 757 L 1351 758 L 1351 762 L 1350 763 L 1349 762 L 1348 762 L 1347 761 L 1345 761 L 1344 760 L 1343 760 L 1342 759 L 1341 759 L 1339 757 L 1338 757 L 1336 755 Z M 1464 740 L 1468 740 L 1470 742 L 1470 745 L 1467 748 L 1464 748 L 1463 747 L 1463 746 L 1462 745 L 1462 742 Z M 1299 738 L 1300 738 L 1301 739 L 1302 739 L 1304 741 L 1304 744 L 1301 747 L 1299 747 L 1298 746 L 1297 746 L 1296 745 L 1296 744 L 1295 743 L 1295 742 Z M 1466 727 L 1467 728 L 1467 731 L 1466 732 L 1465 732 L 1464 733 L 1463 732 L 1462 732 L 1461 731 L 1461 729 L 1463 727 Z M 1300 724 L 1301 724 L 1304 727 L 1304 730 L 1302 732 L 1300 732 L 1297 729 L 1297 727 Z M 1457 721 L 1457 723 L 1456 724 L 1456 725 L 1455 726 L 1455 727 L 1453 729 L 1453 730 L 1452 731 L 1452 732 L 1450 734 L 1450 735 L 1448 737 L 1448 738 L 1446 740 L 1446 741 L 1437 750 L 1436 750 L 1432 754 L 1431 754 L 1429 756 L 1428 756 L 1426 758 L 1425 758 L 1424 759 L 1423 759 L 1422 760 L 1421 760 L 1420 761 L 1419 761 L 1418 762 L 1417 762 L 1416 763 L 1415 763 L 1414 764 L 1412 764 L 1411 765 L 1409 765 L 1408 766 L 1406 766 L 1405 765 L 1405 764 L 1406 763 L 1406 761 L 1405 760 L 1405 757 L 1406 756 L 1406 754 L 1408 752 L 1410 752 L 1411 751 L 1413 751 L 1414 752 L 1415 752 L 1416 753 L 1417 753 L 1421 757 L 1423 757 L 1424 756 L 1425 756 L 1427 754 L 1428 754 L 1428 752 L 1427 751 L 1427 750 L 1424 747 L 1424 746 L 1423 745 L 1423 744 L 1422 743 L 1422 742 L 1421 741 L 1421 739 L 1430 730 L 1430 729 L 1433 726 L 1433 725 L 1436 722 L 1436 721 L 1438 719 L 1443 719 L 1444 718 L 1445 718 L 1446 719 L 1447 719 L 1449 721 L 1450 721 L 1451 722 L 1452 722 L 1453 723 L 1454 723 L 1455 722 L 1455 721 L 1456 720 Z M 1475 717 L 1478 717 L 1480 719 L 1480 720 L 1481 721 L 1478 724 L 1476 724 L 1473 721 L 1473 719 Z M 1285 716 L 1286 715 L 1288 715 L 1289 716 L 1290 716 L 1291 717 L 1291 720 L 1290 721 L 1289 721 L 1288 722 L 1285 719 Z M 1471 700 L 1473 700 L 1476 703 L 1476 705 L 1473 708 L 1471 708 L 1468 705 L 1468 703 Z M 1448 685 L 1452 685 L 1453 684 L 1461 684 L 1462 685 L 1462 705 L 1461 706 L 1461 710 L 1460 711 L 1460 714 L 1459 715 L 1459 717 L 1458 718 L 1457 717 L 1457 713 L 1456 713 L 1455 712 L 1450 712 L 1448 710 L 1447 710 L 1446 709 L 1445 709 L 1442 706 L 1442 704 L 1443 703 L 1443 695 L 1444 694 L 1444 690 L 1443 689 L 1446 686 L 1447 686 Z M 1479 682 L 1482 682 L 1484 684 L 1484 688 L 1483 689 L 1482 689 L 1481 690 L 1480 690 L 1479 689 L 1478 689 L 1477 688 L 1477 687 L 1476 686 L 1477 685 L 1477 684 Z M 1468 665 L 1469 666 L 1470 666 L 1472 668 L 1472 669 L 1473 670 L 1472 671 L 1472 672 L 1470 674 L 1468 674 L 1465 671 L 1465 667 L 1466 666 L 1467 666 Z M 1460 649 L 1461 649 L 1462 648 L 1463 648 L 1464 649 L 1465 649 L 1467 651 L 1467 653 L 1466 654 L 1466 655 L 1465 656 L 1461 656 L 1459 654 L 1459 650 Z M 1434 636 L 1435 636 L 1438 639 L 1439 639 L 1442 642 L 1442 643 L 1447 648 L 1447 649 L 1449 651 L 1449 652 L 1451 654 L 1451 655 L 1452 656 L 1452 657 L 1453 658 L 1453 659 L 1454 660 L 1454 661 L 1455 662 L 1455 663 L 1456 664 L 1456 665 L 1457 666 L 1457 667 L 1458 668 L 1458 669 L 1459 670 L 1459 673 L 1460 674 L 1459 675 L 1457 675 L 1456 676 L 1452 676 L 1451 675 L 1450 675 L 1448 673 L 1448 672 L 1447 671 L 1447 669 L 1448 668 L 1448 667 L 1452 663 L 1452 661 L 1449 661 L 1445 665 L 1444 665 L 1442 667 L 1441 667 L 1440 668 L 1439 668 L 1436 665 L 1436 664 L 1434 662 L 1434 661 L 1432 659 L 1432 658 L 1423 649 L 1423 647 L 1424 646 L 1424 645 L 1430 639 L 1431 639 Z M 1457 635 L 1459 633 L 1462 633 L 1465 636 L 1465 639 L 1464 640 L 1463 640 L 1462 641 L 1461 640 L 1460 640 L 1457 637 Z M 1443 627 L 1444 627 L 1448 631 L 1448 632 L 1447 633 L 1447 634 L 1446 635 L 1443 635 L 1440 632 L 1440 630 Z M 1413 624 L 1414 623 L 1415 623 L 1416 624 L 1417 624 L 1418 625 L 1419 625 L 1420 626 L 1422 626 L 1424 628 L 1425 628 L 1427 630 L 1428 630 L 1430 632 L 1429 633 L 1426 633 L 1425 634 L 1424 634 L 1423 635 L 1422 635 L 1420 637 L 1416 637 L 1412 633 L 1412 627 L 1413 626 Z M 1423 613 L 1424 612 L 1427 612 L 1429 614 L 1429 615 L 1427 617 L 1425 617 L 1423 615 Z M 1435 611 L 1439 611 L 1441 613 L 1441 617 L 1439 619 L 1436 619 L 1433 616 L 1433 613 Z M 1411 608 L 1412 608 L 1413 609 L 1414 609 L 1417 612 L 1417 613 L 1414 616 L 1412 616 L 1411 615 L 1410 615 L 1408 613 L 1408 611 Z M 330 578 L 297 640 L 298 648 L 302 653 L 482 737 L 489 737 L 497 732 L 509 712 L 522 684 L 522 679 L 516 670 L 344 575 L 336 575 Z M 1070 573 L 1052 592 L 1059 604 L 1062 614 L 1062 632 L 1059 642 L 1015 732 L 1006 746 L 990 761 L 983 765 L 970 769 L 947 770 L 909 768 L 909 775 L 904 792 L 951 795 L 978 793 L 1001 784 L 1010 778 L 1026 762 L 1035 749 L 1083 652 L 1088 635 L 1089 617 L 1085 599 L 1077 583 Z M 1001 643 L 984 626 L 980 626 L 975 621 L 981 604 L 978 598 L 944 584 L 941 584 L 941 586 L 936 589 L 936 581 L 910 570 L 903 569 L 897 576 L 889 574 L 896 587 L 901 604 L 901 626 L 899 635 L 886 660 L 867 677 L 858 682 L 842 687 L 818 688 L 800 683 L 783 673 L 771 661 L 762 645 L 760 645 L 754 653 L 751 661 L 759 697 L 763 701 L 799 717 L 803 727 L 807 730 L 924 731 L 928 729 L 933 715 L 941 714 L 975 698 L 981 698 L 986 694 Z M 936 638 L 946 638 L 947 639 L 949 639 L 950 640 L 952 640 L 954 642 L 955 642 L 963 650 L 963 651 L 964 652 L 964 653 L 965 654 L 965 656 L 966 657 L 966 670 L 965 671 L 965 672 L 964 673 L 964 675 L 962 677 L 962 678 L 956 684 L 955 684 L 954 685 L 953 685 L 952 686 L 951 686 L 950 687 L 948 687 L 947 688 L 935 688 L 934 687 L 932 687 L 931 686 L 930 686 L 929 685 L 928 685 L 926 683 L 925 683 L 920 678 L 920 677 L 918 675 L 918 673 L 917 672 L 917 670 L 916 669 L 916 657 L 917 656 L 917 654 L 918 653 L 918 652 L 919 651 L 919 650 L 927 642 L 928 642 L 929 641 L 930 641 L 931 640 L 932 640 L 933 639 L 935 639 Z M 320 573 L 316 573 L 315 572 L 312 572 L 311 571 L 308 571 L 307 570 L 304 570 L 303 569 L 300 569 L 299 568 L 296 568 L 295 567 L 289 567 L 284 572 L 284 573 L 283 574 L 283 575 L 282 576 L 282 577 L 281 578 L 281 579 L 280 580 L 280 581 L 278 583 L 278 584 L 277 585 L 277 586 L 276 587 L 276 588 L 275 589 L 275 590 L 274 591 L 274 592 L 273 593 L 273 594 L 272 595 L 272 596 L 271 597 L 271 598 L 269 600 L 269 601 L 268 602 L 268 604 L 266 607 L 266 613 L 267 614 L 267 615 L 277 625 L 278 625 L 284 631 L 285 631 L 289 635 L 291 635 L 292 634 L 292 633 L 294 631 L 294 630 L 295 629 L 295 628 L 296 627 L 296 626 L 297 625 L 297 624 L 298 623 L 298 622 L 299 621 L 299 620 L 300 619 L 300 618 L 302 616 L 302 615 L 303 614 L 303 613 L 304 612 L 304 611 L 305 610 L 305 609 L 306 608 L 306 607 L 307 606 L 307 605 L 308 604 L 308 603 L 310 601 L 310 600 L 311 599 L 311 598 L 312 597 L 312 596 L 313 595 L 313 594 L 314 593 L 314 592 L 315 591 L 315 590 L 317 588 L 317 587 L 318 586 L 318 585 L 319 584 L 319 583 L 320 582 L 320 581 L 322 578 L 322 575 Z M 411 603 L 428 614 L 481 642 L 533 672 L 599 660 L 680 649 L 682 647 L 675 619 L 558 571 L 540 565 L 527 565 L 512 569 Z M 672 610 L 672 604 L 671 603 L 671 600 L 670 599 L 670 595 L 669 594 L 669 591 L 668 590 L 668 585 L 667 584 L 667 579 L 666 578 L 666 563 L 667 562 L 667 559 L 668 558 L 668 556 L 669 555 L 669 554 L 668 553 L 661 553 L 660 554 L 654 554 L 653 555 L 647 555 L 646 556 L 639 556 L 638 557 L 633 557 L 632 558 L 626 558 L 625 559 L 620 559 L 619 560 L 613 560 L 612 561 L 606 561 L 605 562 L 599 562 L 598 563 L 593 563 L 592 564 L 587 564 L 586 565 L 580 565 L 579 566 L 574 566 L 573 567 L 570 567 L 570 569 L 571 569 L 572 570 L 574 570 L 575 571 L 576 571 L 577 572 L 579 572 L 584 575 L 586 575 L 589 577 L 591 577 L 596 580 L 598 580 L 601 582 L 603 582 L 606 584 L 608 584 L 613 587 L 615 587 L 618 589 L 620 589 L 623 591 L 625 591 L 630 594 L 632 594 L 637 597 L 639 597 L 642 599 L 644 599 L 647 601 L 649 601 L 652 603 L 654 603 L 659 606 L 661 606 L 664 608 L 666 608 L 667 609 Z M 1066 570 L 1055 562 L 1053 553 L 1043 549 L 1019 580 L 1009 577 L 988 618 L 1009 642 L 992 699 L 937 723 L 932 735 L 924 739 L 806 738 L 798 732 L 796 720 L 772 711 L 771 726 L 763 736 L 723 738 L 713 734 L 705 726 L 701 713 L 694 710 L 698 702 L 684 656 L 586 670 L 586 673 L 631 710 L 647 710 L 684 746 L 695 750 L 951 760 L 971 750 L 989 727 L 1007 719 L 1038 650 L 1033 636 L 1022 659 L 1018 656 L 1038 608 L 1037 595 L 1041 590 L 1049 590 Z M 516 558 L 514 556 L 514 555 L 511 552 L 510 552 L 508 550 L 507 550 L 506 549 L 498 549 L 497 550 L 496 550 L 494 552 L 493 552 L 493 553 L 491 555 L 491 556 L 490 557 L 490 558 L 488 560 L 488 561 L 486 563 L 486 564 L 485 565 L 485 566 L 483 568 L 483 569 L 482 570 L 482 571 L 483 571 L 484 570 L 486 570 L 487 569 L 489 569 L 490 568 L 492 568 L 493 567 L 495 567 L 496 566 L 498 566 L 498 564 L 497 563 L 497 558 L 500 555 L 502 555 L 503 554 L 505 554 L 506 555 L 507 555 L 509 557 L 509 558 L 510 559 L 510 562 L 511 562 L 512 561 L 515 561 L 516 560 Z M 794 552 L 783 559 L 777 559 L 773 563 L 769 565 L 765 569 L 759 579 L 759 581 L 764 590 L 764 594 L 760 606 L 760 624 L 761 625 L 762 633 L 768 648 L 774 657 L 785 668 L 795 675 L 810 681 L 819 682 L 820 683 L 842 682 L 846 680 L 852 679 L 864 673 L 871 668 L 883 656 L 892 640 L 895 631 L 896 619 L 897 618 L 896 604 L 892 590 L 888 582 L 881 572 L 871 562 L 862 556 L 845 549 L 833 548 L 832 547 L 824 547 L 823 548 L 812 549 L 801 554 L 798 554 Z M 704 530 L 700 534 L 700 540 L 704 544 L 710 544 L 711 543 L 712 543 L 713 542 L 713 541 L 715 539 L 715 535 L 714 534 L 714 533 L 712 531 L 711 531 L 710 530 Z M 655 525 L 655 528 L 656 529 L 656 531 L 657 532 L 657 534 L 658 535 L 658 537 L 660 539 L 660 540 L 661 541 L 661 542 L 664 545 L 665 545 L 667 547 L 671 547 L 672 546 L 672 544 L 673 543 L 673 540 L 674 539 L 674 538 L 670 534 L 669 534 L 667 532 L 666 532 L 664 530 L 663 530 L 661 528 L 660 528 L 659 527 L 658 527 L 656 525 Z M 283 522 L 222 542 L 176 581 L 149 630 L 141 667 L 141 697 L 161 758 L 199 803 L 226 821 L 259 834 L 315 839 L 360 828 L 399 805 L 432 770 L 451 731 L 437 725 L 424 754 L 399 782 L 389 780 L 353 744 L 342 755 L 381 792 L 376 803 L 357 813 L 315 824 L 273 822 L 262 815 L 260 808 L 273 763 L 305 765 L 327 759 L 348 746 L 368 718 L 328 724 L 309 735 L 297 729 L 292 736 L 265 729 L 252 718 L 241 697 L 241 669 L 252 649 L 276 632 L 264 627 L 260 609 L 243 616 L 253 608 L 219 573 L 221 561 L 258 543 L 297 537 L 305 546 L 302 563 L 316 566 L 319 547 L 331 540 L 376 558 L 414 593 L 428 589 L 402 558 L 363 534 L 326 523 Z M 268 763 L 269 762 L 272 762 L 273 763 L 272 764 L 269 764 Z M 265 762 L 266 761 L 268 761 L 269 762 L 268 763 L 266 763 Z M 281 751 L 285 751 L 287 753 L 287 755 L 284 758 L 282 758 L 281 757 L 280 757 L 279 756 L 279 753 Z M 314 748 L 317 748 L 319 750 L 319 753 L 317 755 L 313 755 L 312 754 L 312 750 Z M 297 743 L 300 743 L 302 745 L 302 749 L 301 750 L 300 750 L 299 751 L 297 751 L 295 749 L 295 748 L 294 747 L 294 746 Z M 268 743 L 269 742 L 269 741 L 270 740 L 273 740 L 276 743 L 276 744 L 273 747 L 271 747 L 268 744 Z M 255 739 L 256 740 L 257 740 L 258 741 L 258 742 L 259 743 L 259 744 L 258 745 L 258 746 L 257 747 L 254 747 L 251 744 L 251 742 L 253 740 L 254 740 Z M 326 734 L 327 734 L 330 737 L 330 739 L 327 742 L 324 742 L 322 740 L 322 737 L 324 735 L 325 735 Z M 344 731 L 347 731 L 348 732 L 348 733 L 349 734 L 348 735 L 348 736 L 346 738 L 343 738 L 340 735 L 341 734 L 341 733 L 342 732 L 343 732 Z M 248 723 L 249 723 L 252 726 L 252 728 L 250 730 L 248 730 L 246 728 L 246 725 Z M 235 723 L 238 723 L 240 725 L 240 726 L 241 727 L 240 728 L 240 729 L 238 731 L 236 731 L 233 728 L 233 725 Z M 231 699 L 235 699 L 236 700 L 236 701 L 237 702 L 237 705 L 235 707 L 234 707 L 233 708 L 230 705 L 230 704 L 229 703 L 229 701 Z M 229 684 L 230 685 L 231 685 L 232 686 L 232 688 L 230 690 L 227 690 L 226 689 L 226 686 L 227 685 L 228 685 Z M 222 669 L 223 670 L 224 670 L 226 672 L 226 675 L 223 678 L 220 678 L 219 677 L 219 675 L 218 674 L 219 673 L 219 672 Z M 230 663 L 232 663 L 235 666 L 235 668 L 234 669 L 234 670 L 233 671 L 231 671 L 229 669 L 229 664 Z M 237 648 L 239 648 L 241 650 L 241 651 L 242 652 L 241 653 L 241 654 L 239 656 L 237 656 L 234 653 L 234 651 Z M 250 627 L 252 629 L 252 631 L 248 635 L 247 635 L 246 636 L 245 636 L 242 633 L 242 632 L 243 631 L 243 630 L 245 628 L 246 628 L 247 627 Z M 200 580 L 206 580 L 210 582 L 240 617 L 243 618 L 232 628 L 222 642 L 215 657 L 211 673 L 212 699 L 216 712 L 224 728 L 241 747 L 251 754 L 266 761 L 261 761 L 249 804 L 241 809 L 236 809 L 216 797 L 192 775 L 176 753 L 164 727 L 166 720 L 171 715 L 211 704 L 209 690 L 170 703 L 162 701 L 157 694 L 158 659 L 167 627 L 174 612 L 184 596 L 192 586 Z M 778 520 L 776 520 L 774 522 L 769 524 L 762 529 L 757 531 L 753 535 L 752 535 L 752 536 L 749 539 L 746 545 L 746 548 L 745 549 L 745 552 L 744 553 L 744 557 L 743 558 L 743 562 L 742 563 L 742 569 L 741 570 L 741 580 L 740 581 L 740 599 L 741 600 L 741 610 L 742 611 L 743 626 L 744 627 L 744 632 L 745 633 L 745 638 L 746 639 L 746 643 L 747 644 L 747 648 L 748 649 L 748 651 L 749 651 L 751 649 L 755 647 L 756 645 L 756 642 L 758 640 L 758 637 L 757 636 L 757 633 L 756 632 L 756 628 L 755 627 L 755 620 L 754 619 L 754 611 L 755 610 L 755 603 L 756 602 L 756 598 L 757 597 L 759 589 L 755 584 L 753 579 L 760 566 L 766 560 L 767 560 L 775 554 L 777 554 L 785 550 L 789 547 L 789 535 L 790 533 L 788 530 L 787 530 L 784 527 L 783 527 L 779 523 L 779 521 Z M 1319 509 L 1305 516 L 1303 516 L 1298 519 L 1296 519 L 1289 523 L 1285 524 L 1284 525 L 1284 528 L 1293 546 L 1296 555 L 1298 557 L 1301 557 L 1307 568 L 1307 570 L 1324 605 L 1324 607 L 1334 627 L 1334 629 L 1340 640 L 1340 642 L 1345 651 L 1345 653 L 1354 671 L 1354 673 L 1356 673 L 1365 668 L 1367 668 L 1372 665 L 1374 665 L 1377 663 L 1386 660 L 1386 657 L 1376 636 L 1376 634 L 1372 627 L 1372 625 L 1367 616 L 1367 614 L 1360 600 L 1360 598 L 1355 589 L 1355 587 L 1350 578 L 1350 576 L 1337 550 L 1337 548 L 1335 545 L 1335 538 L 1331 531 L 1331 529 L 1324 516 L 1322 510 Z M 915 507 L 913 512 L 913 517 L 912 518 L 912 520 L 910 523 L 909 528 L 907 531 L 905 539 L 903 542 L 903 544 L 902 545 L 902 547 L 901 548 L 901 550 L 897 560 L 897 563 L 898 564 L 893 568 L 893 572 L 895 572 L 898 570 L 901 565 L 910 564 L 913 566 L 918 567 L 923 570 L 930 572 L 935 575 L 937 575 L 942 578 L 947 579 L 950 581 L 957 583 L 962 586 L 964 586 L 970 589 L 972 589 L 975 591 L 977 591 L 979 592 L 984 598 L 989 600 L 993 600 L 995 595 L 997 593 L 997 591 L 1000 585 L 1004 579 L 1004 577 L 1007 571 L 1010 567 L 1010 565 L 1014 557 L 1017 554 L 1018 548 L 1014 546 L 1012 546 L 1009 544 L 1004 543 L 994 538 L 986 536 L 981 533 L 979 533 L 969 528 L 967 528 L 964 526 L 962 526 L 959 524 L 957 524 L 954 522 L 947 520 L 942 517 L 935 515 L 930 512 L 928 512 L 918 507 Z M 542 492 L 540 492 L 534 498 L 534 499 L 529 504 L 529 505 L 525 509 L 525 510 L 523 512 L 523 514 L 528 519 L 529 519 L 531 521 L 531 523 L 528 526 L 528 527 L 527 528 L 527 531 L 531 535 L 530 536 L 529 536 L 526 533 L 525 533 L 523 531 L 522 531 L 519 528 L 518 528 L 517 527 L 513 527 L 511 529 L 510 529 L 510 530 L 507 533 L 507 534 L 506 535 L 506 539 L 507 540 L 507 543 L 506 544 L 506 545 L 507 546 L 510 547 L 512 549 L 513 549 L 523 558 L 539 558 L 542 555 L 542 554 L 543 553 L 543 549 L 540 546 L 540 545 L 547 538 L 547 537 L 548 536 L 549 536 L 550 537 L 551 537 L 555 541 L 559 541 L 563 537 L 563 536 L 569 530 L 569 529 L 573 525 L 573 524 L 574 523 L 574 521 L 573 520 L 573 519 L 564 510 L 563 510 L 556 503 L 555 503 L 549 497 L 548 497 L 544 493 L 543 493 Z M 1202 539 L 1171 592 L 1218 556 L 1237 554 L 1184 597 L 1163 668 L 1169 744 L 1206 817 L 1269 873 L 1356 903 L 1444 897 L 1524 856 L 1576 795 L 1603 708 L 1594 627 L 1557 557 L 1485 500 L 1437 504 L 1406 526 L 1468 546 L 1518 588 L 1550 654 L 1551 724 L 1525 784 L 1475 831 L 1411 855 L 1346 853 L 1269 814 L 1222 748 L 1213 664 L 1250 585 L 1218 668 L 1228 748 L 1277 814 L 1349 848 L 1434 844 L 1503 802 L 1543 734 L 1543 648 L 1491 568 L 1403 532 L 1402 547 L 1457 565 L 1441 602 L 1453 608 L 1477 579 L 1512 616 L 1532 679 L 1495 687 L 1495 701 L 1525 700 L 1527 733 L 1480 802 L 1453 779 L 1441 786 L 1458 807 L 1445 824 L 1361 835 L 1353 827 L 1359 799 L 1347 795 L 1338 824 L 1315 821 L 1252 762 L 1256 749 L 1281 740 L 1277 728 L 1246 738 L 1236 722 L 1236 657 L 1246 630 L 1266 627 L 1264 603 L 1272 647 L 1253 687 L 1262 709 L 1301 691 L 1313 653 L 1297 619 L 1281 622 L 1264 573 L 1279 587 L 1300 571 L 1260 490 Z M 781 518 L 781 519 L 783 520 L 795 520 L 796 521 L 801 521 L 802 522 L 798 530 L 797 537 L 795 542 L 795 545 L 797 546 L 803 547 L 810 544 L 818 543 L 819 542 L 841 542 L 842 541 L 843 542 L 843 544 L 846 544 L 847 545 L 855 547 L 867 553 L 875 560 L 876 560 L 884 568 L 885 568 L 887 564 L 887 558 L 888 557 L 890 557 L 891 558 L 893 557 L 900 540 L 900 536 L 895 535 L 893 533 L 893 530 L 891 528 L 887 527 L 884 525 L 879 524 L 876 522 L 868 520 L 863 517 L 861 517 L 857 515 L 854 515 L 850 520 L 835 520 L 834 519 L 841 504 L 841 502 L 849 484 L 850 479 L 848 479 L 842 483 L 837 485 L 835 487 L 828 490 L 821 495 L 816 497 L 802 506 L 795 509 Z M 559 467 L 559 468 L 556 471 L 556 472 L 552 476 L 552 477 L 550 479 L 550 482 L 557 489 L 556 490 L 556 491 L 553 494 L 553 495 L 561 503 L 562 503 L 569 510 L 571 510 L 573 508 L 573 507 L 574 506 L 575 506 L 576 505 L 577 505 L 580 508 L 582 508 L 583 509 L 584 509 L 591 502 L 591 501 L 596 496 L 596 495 L 599 492 L 599 491 L 597 489 L 596 489 L 594 487 L 593 487 L 592 486 L 591 486 L 589 484 L 588 484 L 586 482 L 585 482 L 584 481 L 583 481 L 581 479 L 580 479 L 578 477 L 577 477 L 576 476 L 575 476 L 573 474 L 572 474 L 570 472 L 569 472 L 568 471 L 567 471 L 565 469 L 564 469 L 563 468 L 562 468 L 561 467 Z M 1504 489 L 1469 472 L 1448 465 L 1409 457 L 1359 456 L 1330 460 L 1310 466 L 1315 479 L 1328 504 L 1328 509 L 1343 539 L 1343 545 L 1350 558 L 1378 621 L 1381 622 L 1384 621 L 1392 611 L 1394 531 L 1396 526 L 1413 510 L 1437 497 L 1459 494 L 1507 494 L 1507 492 Z M 284 456 L 238 465 L 199 481 L 161 506 L 131 535 L 108 567 L 89 607 L 78 651 L 76 694 L 85 743 L 103 786 L 127 821 L 158 852 L 193 876 L 239 895 L 282 903 L 320 903 L 376 891 L 438 857 L 484 809 L 511 752 L 457 734 L 436 776 L 400 813 L 352 838 L 310 846 L 274 844 L 236 833 L 196 809 L 166 778 L 146 743 L 137 715 L 136 653 L 158 595 L 206 544 L 257 520 L 307 514 L 348 521 L 384 537 L 411 557 L 436 586 L 471 575 L 484 555 L 443 507 L 397 477 L 342 459 Z M 936 432 L 934 432 L 928 435 L 926 437 L 916 442 L 911 442 L 911 444 L 908 447 L 906 447 L 900 450 L 898 452 L 889 456 L 887 458 L 875 464 L 875 465 L 877 466 L 879 466 L 880 467 L 882 467 L 883 468 L 885 468 L 886 469 L 888 469 L 891 471 L 890 472 L 890 474 L 889 475 L 888 480 L 891 483 L 893 483 L 896 485 L 901 486 L 904 488 L 904 489 L 902 491 L 899 497 L 899 499 L 897 502 L 896 507 L 894 510 L 893 515 L 890 521 L 890 522 L 894 524 L 896 524 L 897 525 L 900 525 L 901 526 L 904 526 L 907 520 L 908 515 L 912 507 L 912 504 L 910 502 L 911 495 L 910 495 L 907 492 L 907 491 L 905 490 L 906 489 L 908 489 L 909 490 L 913 490 L 913 488 L 915 485 L 915 483 L 918 478 L 918 476 L 921 471 L 921 469 L 923 465 L 923 460 L 922 459 L 923 454 L 925 451 L 925 449 L 926 447 L 928 445 L 930 441 L 933 438 Z M 498 420 L 498 421 L 515 432 L 531 441 L 542 449 L 561 460 L 601 486 L 606 488 L 651 517 L 659 521 L 675 532 L 677 531 L 680 521 L 685 514 L 685 512 L 683 510 L 670 503 L 641 484 L 589 453 L 536 419 L 531 419 L 530 420 Z M 973 411 L 949 424 L 941 438 L 932 446 L 931 450 L 1046 496 L 1038 497 L 1014 487 L 1009 488 L 1004 483 L 968 470 L 943 459 L 939 455 L 929 452 L 926 459 L 926 470 L 919 485 L 920 492 L 916 503 L 1021 546 L 1025 536 L 1029 536 L 1032 533 L 1039 518 L 1006 504 L 1003 505 L 998 501 L 948 480 L 951 479 L 1041 516 L 1053 498 L 1053 484 L 1062 461 L 1056 443 L 1052 440 L 984 412 Z M 1002 504 L 1003 505 L 1003 506 L 1002 507 L 1002 508 L 1001 509 L 1001 511 L 999 513 L 999 514 L 998 515 L 998 516 L 997 517 L 997 518 L 996 519 L 996 520 L 995 521 L 995 522 L 994 523 L 994 524 L 993 525 L 993 526 L 992 527 L 992 528 L 991 529 L 990 529 L 989 528 L 990 527 L 990 526 L 991 525 L 991 524 L 992 523 L 992 522 L 993 521 L 993 520 L 994 519 L 994 518 L 995 517 L 995 516 L 996 515 L 996 514 L 997 513 L 997 512 L 998 511 L 998 510 L 999 509 L 999 508 L 1000 507 L 1000 506 Z M 961 489 L 962 490 L 962 491 L 961 492 L 961 494 L 960 495 L 960 496 L 959 497 L 959 498 L 958 499 L 958 500 L 957 501 L 957 502 L 956 503 L 956 505 L 955 506 L 955 507 L 954 508 L 954 509 L 953 510 L 953 511 L 951 513 L 950 512 L 950 510 L 952 508 L 952 506 L 953 505 L 953 504 L 954 503 L 954 502 L 955 501 L 955 500 L 956 499 L 956 497 L 957 496 L 957 495 L 958 494 L 958 493 L 959 492 L 959 491 Z M 933 474 L 934 473 L 936 473 L 937 474 L 938 474 L 939 475 L 941 475 L 942 476 L 943 476 L 944 477 L 946 477 L 947 478 L 948 478 L 949 479 L 948 480 L 946 480 L 945 479 L 943 479 L 942 478 L 941 478 L 940 477 L 938 477 L 937 476 L 936 476 L 935 475 L 934 475 Z M 928 472 L 929 471 L 931 471 L 932 472 L 933 472 L 934 473 L 933 474 L 931 474 L 930 473 L 929 473 Z M 1266 395 L 1259 399 L 1257 399 L 1248 404 L 1246 404 L 1234 410 L 1233 411 L 1233 413 L 1240 427 L 1240 429 L 1247 442 L 1247 444 L 1256 461 L 1256 463 L 1262 474 L 1262 476 L 1269 489 L 1269 491 L 1275 502 L 1274 506 L 1280 518 L 1282 520 L 1284 520 L 1318 505 L 1319 504 L 1319 502 L 1315 494 L 1315 492 L 1313 490 L 1313 489 L 1310 487 L 1308 483 L 1308 481 L 1302 470 L 1302 468 L 1297 459 L 1297 457 L 1293 450 L 1293 448 L 1280 422 L 1280 420 L 1275 411 L 1275 409 L 1270 400 L 1270 398 L 1268 395 Z M 1004 395 L 986 404 L 985 406 L 988 406 L 1002 411 L 1017 418 L 1022 419 L 1037 426 L 1054 432 L 1062 441 L 1069 457 L 1069 462 L 1059 490 L 1059 495 L 1054 507 L 1048 512 L 1047 515 L 1044 518 L 1041 525 L 1034 536 L 1034 538 L 1043 542 L 1046 546 L 1054 547 L 1064 520 L 1064 516 L 1063 515 L 1067 510 L 1088 448 L 1090 445 L 1095 430 L 1095 427 L 1088 427 L 1079 424 L 1021 400 L 1016 399 L 1008 395 Z M 1203 366 L 1200 366 L 1179 377 L 1176 382 L 1172 381 L 1164 385 L 1120 412 L 1108 421 L 1101 437 L 1084 489 L 1082 492 L 1075 515 L 1062 550 L 1062 555 L 1066 562 L 1089 569 L 1100 569 L 1108 563 L 1185 413 L 1186 404 L 1183 397 L 1196 390 L 1198 388 L 1198 385 L 1206 376 L 1206 372 Z M 508 362 L 508 364 L 537 407 L 538 412 L 682 501 L 687 499 L 713 442 L 730 409 L 730 405 L 696 412 L 688 412 L 670 409 L 539 371 L 512 362 Z M 1260 361 L 1259 361 L 1258 360 L 1255 360 L 1254 361 L 1253 361 L 1252 362 L 1250 362 L 1249 363 L 1248 363 L 1247 364 L 1246 364 L 1245 365 L 1243 365 L 1242 366 L 1241 366 L 1240 367 L 1239 367 L 1238 368 L 1237 368 L 1236 369 L 1234 369 L 1233 370 L 1232 370 L 1231 371 L 1230 371 L 1229 372 L 1228 372 L 1227 373 L 1226 373 L 1225 374 L 1223 374 L 1222 375 L 1221 375 L 1220 376 L 1219 376 L 1218 377 L 1217 377 L 1216 378 L 1215 378 L 1214 379 L 1213 379 L 1212 380 L 1212 382 L 1211 383 L 1211 384 L 1212 385 L 1212 387 L 1213 388 L 1213 389 L 1214 390 L 1214 391 L 1215 392 L 1215 393 L 1216 394 L 1216 395 L 1217 396 L 1217 397 L 1218 398 L 1218 400 L 1219 401 L 1219 402 L 1220 403 L 1220 404 L 1221 405 L 1221 406 L 1222 407 L 1223 407 L 1224 408 L 1228 408 L 1229 407 L 1230 407 L 1231 406 L 1232 406 L 1233 405 L 1235 405 L 1236 404 L 1237 404 L 1238 403 L 1239 403 L 1240 402 L 1241 402 L 1242 401 L 1244 401 L 1245 400 L 1246 400 L 1247 399 L 1248 399 L 1249 398 L 1250 398 L 1251 397 L 1253 397 L 1254 396 L 1255 396 L 1256 395 L 1257 395 L 1258 394 L 1259 394 L 1260 393 L 1262 393 L 1263 392 L 1264 392 L 1265 391 L 1266 391 L 1267 390 L 1268 390 L 1269 389 L 1270 389 L 1271 388 L 1271 382 L 1270 381 L 1270 380 L 1269 379 L 1269 378 L 1268 377 L 1268 376 L 1267 375 L 1267 373 L 1266 372 L 1266 371 L 1265 370 L 1265 369 L 1264 368 L 1264 367 L 1263 366 L 1263 365 L 1262 364 L 1262 363 Z M 119 359 L 117 361 L 117 362 L 116 363 L 116 367 L 117 368 L 117 369 L 119 371 L 121 371 L 122 372 L 126 372 L 129 369 L 129 368 L 130 367 L 130 362 L 127 359 L 126 359 L 125 358 L 122 358 L 121 359 Z M 974 361 L 943 356 L 921 357 L 902 360 L 828 378 L 743 402 L 707 474 L 696 499 L 696 505 L 698 507 L 705 506 L 970 366 L 974 363 Z M 291 316 L 246 293 L 241 293 L 93 331 L 90 334 L 91 339 L 118 347 L 118 355 L 124 353 L 133 354 L 142 363 L 142 368 L 139 372 L 127 377 L 119 376 L 113 370 L 109 377 L 98 376 L 93 379 L 71 444 L 71 449 L 78 450 L 79 452 L 62 492 L 69 492 L 77 487 L 136 390 L 140 387 L 149 385 L 156 378 L 158 374 L 158 366 L 156 362 L 166 352 L 191 339 L 241 327 L 286 319 Z M 97 407 L 98 408 L 97 409 L 97 410 L 96 411 L 96 412 L 95 413 L 95 415 L 94 416 L 94 417 L 93 418 L 92 417 L 92 415 L 93 414 L 93 412 L 94 411 L 94 409 L 96 407 Z M 1194 238 L 1189 241 L 1187 241 L 1180 245 L 1178 245 L 1169 250 L 1167 250 L 1161 253 L 1161 256 L 1167 268 L 1167 270 L 1173 281 L 1173 283 L 1177 290 L 1177 292 L 1183 303 L 1183 305 L 1195 329 L 1195 331 L 1199 338 L 1199 340 L 1207 355 L 1207 357 L 1212 366 L 1212 368 L 1214 372 L 1216 373 L 1238 362 L 1240 362 L 1245 359 L 1247 359 L 1249 358 L 1250 356 L 1241 338 L 1241 336 L 1236 327 L 1236 325 L 1232 318 L 1232 316 L 1228 309 L 1228 307 L 1222 296 L 1222 294 L 1219 289 L 1219 287 L 1208 265 L 1208 263 L 1204 256 L 1204 254 L 1198 243 L 1198 241 L 1196 238 Z M 1139 236 L 1129 240 L 1127 247 L 1138 261 L 1137 272 L 1148 292 L 1030 344 L 731 502 L 691 517 L 675 562 L 675 579 L 711 719 L 718 728 L 757 730 L 763 723 L 762 710 L 750 696 L 732 601 L 737 547 L 751 526 L 1001 388 L 1010 387 L 1096 419 L 1199 358 L 1154 257 L 1145 251 Z M 718 666 L 721 666 L 722 665 L 725 665 L 726 666 L 728 666 L 729 667 L 730 667 L 731 668 L 732 668 L 735 671 L 735 672 L 737 674 L 737 677 L 738 678 L 738 681 L 737 682 L 737 684 L 736 685 L 736 686 L 732 690 L 731 690 L 730 691 L 728 691 L 727 692 L 721 692 L 720 691 L 718 691 L 717 690 L 716 690 L 712 686 L 712 685 L 711 684 L 711 683 L 710 682 L 710 676 L 711 675 L 711 673 L 712 672 L 712 671 L 716 667 L 717 667 Z M 704 524 L 711 524 L 712 525 L 713 525 L 714 526 L 715 526 L 719 530 L 719 531 L 720 532 L 720 534 L 721 535 L 721 539 L 720 540 L 720 542 L 718 544 L 718 545 L 716 547 L 715 547 L 714 548 L 713 548 L 712 549 L 710 549 L 709 550 L 704 550 L 703 549 L 702 549 L 701 548 L 700 548 L 695 543 L 695 542 L 694 541 L 694 533 L 695 532 L 695 531 L 696 530 L 696 529 L 698 527 L 699 527 L 701 525 L 703 525 Z M 181 224 L 190 237 L 231 278 L 394 357 L 484 413 L 519 414 L 528 412 L 528 406 L 495 358 L 483 349 L 465 331 L 439 299 L 422 284 L 404 277 L 239 234 L 216 222 L 184 221 Z M 1209 233 L 1206 237 L 1207 244 L 1246 328 L 1250 339 L 1253 342 L 1274 350 L 1276 352 L 1277 356 L 1270 362 L 1272 371 L 1278 375 L 1287 375 L 1289 377 L 1289 379 L 1293 382 L 1322 384 L 1323 385 L 1343 385 L 1348 383 L 1354 377 L 1359 345 L 1359 337 L 1360 336 L 1361 313 L 1362 312 L 1361 280 L 1357 272 L 1342 256 L 1318 244 L 1268 223 L 1239 213 L 1235 213 Z M 1300 250 L 1304 250 L 1309 253 L 1311 253 L 1316 256 L 1318 256 L 1325 260 L 1327 260 L 1349 271 L 1354 276 L 1354 278 L 1356 282 L 1356 288 L 1357 289 L 1357 306 L 1356 307 L 1356 322 L 1355 323 L 1355 335 L 1354 336 L 1354 345 L 1353 346 L 1353 354 L 1352 355 L 1352 362 L 1351 363 L 1351 369 L 1349 373 L 1347 373 L 1345 371 L 1340 369 L 1334 363 L 1334 361 L 1333 360 L 1333 357 L 1332 356 L 1332 352 L 1331 351 L 1331 348 L 1330 347 L 1330 343 L 1329 342 L 1329 339 L 1328 338 L 1328 334 L 1327 333 L 1327 329 L 1326 328 L 1326 324 L 1325 323 L 1325 319 L 1324 318 L 1324 315 L 1323 314 L 1323 312 L 1318 302 L 1316 300 L 1312 292 L 1308 287 L 1307 284 L 1305 282 L 1304 279 L 1302 277 L 1301 274 L 1299 272 L 1297 267 L 1295 265 L 1292 259 L 1292 256 L 1295 253 L 1296 253 Z M 224 213 L 225 218 L 239 227 L 418 274 L 439 288 L 474 330 L 497 350 L 677 403 L 698 404 L 737 394 L 753 368 L 751 361 L 709 315 L 599 311 L 559 305 L 516 294 L 489 278 L 461 244 L 442 231 L 233 209 Z M 1190 207 L 1184 207 L 1183 208 L 1181 208 L 1180 209 L 1179 209 L 1178 210 L 1177 210 L 1176 211 L 1175 211 L 1174 212 L 1172 212 L 1171 213 L 1170 213 L 1169 214 L 1168 214 L 1167 215 L 1166 215 L 1165 216 L 1163 216 L 1162 217 L 1161 217 L 1160 218 L 1159 218 L 1158 219 L 1157 219 L 1156 220 L 1155 220 L 1154 221 L 1153 221 L 1152 222 L 1150 222 L 1149 223 L 1148 223 L 1147 224 L 1146 224 L 1145 225 L 1144 225 L 1142 227 L 1141 227 L 1141 228 L 1140 229 L 1140 234 L 1141 235 L 1141 236 L 1142 237 L 1142 238 L 1143 239 L 1143 240 L 1144 241 L 1144 242 L 1145 243 L 1145 244 L 1146 245 L 1146 246 L 1147 247 L 1147 248 L 1148 249 L 1148 250 L 1149 251 L 1150 251 L 1151 252 L 1154 252 L 1155 251 L 1156 251 L 1157 250 L 1158 250 L 1159 249 L 1160 249 L 1161 248 L 1162 248 L 1163 247 L 1165 247 L 1166 246 L 1167 246 L 1168 245 L 1169 245 L 1170 244 L 1171 244 L 1172 243 L 1173 243 L 1174 242 L 1175 242 L 1176 241 L 1178 241 L 1179 240 L 1180 240 L 1181 239 L 1182 239 L 1183 238 L 1184 238 L 1185 237 L 1186 237 L 1187 236 L 1189 236 L 1190 235 L 1191 235 L 1192 234 L 1193 234 L 1194 233 L 1195 233 L 1196 232 L 1197 232 L 1200 229 L 1200 227 L 1199 226 L 1199 225 L 1198 224 L 1198 223 L 1197 222 L 1197 221 L 1196 220 L 1196 218 L 1195 217 L 1195 216 L 1194 215 L 1194 214 L 1193 213 L 1193 211 L 1192 210 L 1192 209 Z M 1202 206 L 1201 207 L 1199 207 L 1198 208 L 1197 208 L 1195 210 L 1195 211 L 1197 213 L 1197 214 L 1198 215 L 1198 217 L 1199 218 L 1199 219 L 1201 221 L 1201 223 L 1202 224 L 1204 224 L 1205 223 L 1206 223 L 1209 220 L 1209 219 L 1210 218 L 1210 214 L 1209 213 L 1209 212 L 1208 211 L 1208 210 L 1204 206 Z M 1177 200 L 1173 196 L 1172 196 L 1171 195 L 1167 195 L 1166 196 L 1164 196 L 1163 197 L 1162 197 L 1161 198 L 1160 198 L 1159 199 L 1158 199 L 1157 200 L 1156 200 L 1155 201 L 1154 201 L 1153 202 L 1151 202 L 1150 203 L 1149 203 L 1148 204 L 1147 204 L 1145 206 L 1144 206 L 1144 207 L 1143 208 L 1143 209 L 1142 210 L 1142 212 L 1141 213 L 1141 214 L 1142 215 L 1142 217 L 1143 218 L 1143 219 L 1144 220 L 1145 220 L 1146 219 L 1147 219 L 1148 218 L 1149 218 L 1150 217 L 1152 217 L 1153 216 L 1154 216 L 1155 215 L 1156 215 L 1157 214 L 1158 214 L 1159 213 L 1160 213 L 1161 212 L 1163 212 L 1164 211 L 1165 211 L 1166 210 L 1167 210 L 1168 209 L 1170 209 L 1171 208 L 1172 208 L 1173 207 L 1174 207 L 1175 206 L 1176 206 L 1177 205 L 1178 205 L 1178 203 L 1177 202 Z M 719 311 L 760 360 L 761 371 L 751 390 L 756 390 L 834 368 L 911 350 L 947 348 L 988 356 L 1123 294 L 1124 287 L 1092 244 L 1044 220 L 1003 205 L 970 196 L 929 189 L 888 187 L 865 190 L 846 196 L 803 223 L 775 245 L 742 277 L 722 302 Z M 903 177 L 903 181 L 914 181 L 915 182 L 925 182 L 926 183 L 933 183 L 934 184 L 940 184 L 941 185 L 947 185 L 948 186 L 952 186 L 953 187 L 957 187 L 958 188 L 963 188 L 964 189 L 967 189 L 968 190 L 972 190 L 973 191 L 974 191 L 974 185 L 971 182 L 971 181 L 967 177 L 966 177 L 965 176 L 963 176 L 962 175 L 959 175 L 958 174 L 954 174 L 953 173 L 949 173 L 948 172 L 942 172 L 941 171 L 936 171 L 935 170 L 927 170 L 926 169 L 914 169 L 913 170 L 912 170 L 911 171 L 910 171 L 909 172 L 909 173 L 908 174 L 906 174 L 905 175 L 904 175 L 904 176 Z M 1214 206 L 1214 207 L 1216 209 L 1216 211 L 1219 217 L 1220 217 L 1224 213 L 1225 213 L 1230 209 L 1232 209 L 1235 207 L 1241 207 L 1242 208 L 1250 210 L 1253 212 L 1258 213 L 1261 215 L 1266 216 L 1269 218 L 1274 219 L 1277 221 L 1279 221 L 1282 223 L 1284 223 L 1287 225 L 1289 225 L 1299 230 L 1301 230 L 1335 247 L 1336 247 L 1338 245 L 1338 242 L 1336 239 L 1336 237 L 1334 233 L 1332 231 L 1331 228 L 1329 226 L 1327 221 L 1320 212 L 1318 208 L 1314 204 L 1314 203 L 1310 199 L 1310 198 L 1304 192 L 1304 191 L 1285 173 L 1284 173 L 1276 166 L 1263 158 L 1256 158 L 1254 159 L 1246 168 L 1245 170 L 1245 175 L 1244 176 L 1243 175 L 1241 175 L 1225 192 L 1225 193 L 1220 198 L 1220 199 Z M 1043 15 L 1039 20 L 1041 65 L 1046 70 L 1066 80 L 1087 73 L 1094 75 L 1115 99 L 1110 135 L 1118 138 L 1126 150 L 1125 170 L 1156 172 L 1164 170 L 1168 172 L 1168 180 L 1145 182 L 1138 179 L 1122 179 L 1116 182 L 1113 189 L 1108 189 L 1106 181 L 1110 175 L 1120 171 L 1122 154 L 1119 146 L 1111 138 L 1104 135 L 1088 136 L 1076 148 L 1057 147 L 1056 149 L 1047 143 L 1039 144 L 1034 147 L 1030 155 L 1033 167 L 1040 172 L 1048 172 L 1054 168 L 1055 170 L 1075 171 L 1084 182 L 1099 185 L 1103 195 L 1114 200 L 1136 198 L 1144 201 L 1164 190 L 1180 192 L 1185 201 L 1197 197 L 1193 185 L 1181 178 L 1184 174 L 1183 166 L 1159 161 L 1160 159 L 1169 159 L 1170 132 L 1134 130 L 1130 132 L 1130 142 L 1126 141 L 1125 94 L 1103 69 L 1105 57 L 1088 28 L 1083 24 L 1052 14 Z M 1057 148 L 1059 150 L 1059 151 L 1060 152 L 1060 155 L 1061 156 L 1061 159 L 1060 160 L 1060 163 L 1059 164 L 1059 165 L 1057 167 L 1056 166 L 1056 165 L 1057 164 L 1057 163 L 1058 162 L 1058 153 L 1057 152 L 1057 151 L 1056 150 L 1056 149 Z"/>
  </g>
</svg>
